<?xml version="1.0" standalone="no"?>
<!DOCTYPE svg PUBLIC "-//W3C//DTD SVG 1.1//EN" "http://www.w3.org/Graphics/SVG/1.1/DTD/svg11.dtd" >
<svg xmlns="http://www.w3.org/2000/svg" xmlns:xlink="http://www.w3.org/1999/xlink" version="1.1">
<metadata>
Created by FontForge 20161116 at Wed Feb  9 16:21:17 2011
 By Jimmy Wärting
Copyright 2011 Monotype Imaging Inc. All rights reserved.
</metadata>
<defs>
<font id="HarmoniaSansProCyr-SemiBd" horiz-adv-x="403" >
  <font-face 
    font-family="Harmonia Sans Pro Cyr Semi Bd"
    font-weight="600"
    font-stretch="normal"
    units-per-em="1000"
    panose-1="2 11 6 2 3 4 2 2 2 4"
    ascent="730"
    descent="-270"
    x-height="479"
    cap-height="682"
    bbox="-179 -257 1215 973"
    underline-thickness="50"
    underline-position="-100"
    stemh="98"
    stemv="118"
    unicode-range="U+0020-FB04"
  />
<missing-glyph horiz-adv-x="500" 
d="M12 0v665h475v-665h-475zM88 618l162 -243l161 243h-323zM60 575v-484c0 -1 161 242 161 242zM440 575l-162 -242l162 -243v485zM411 48l-161 242l-162 -242h323z" />
    <glyph glyph-name="fi" unicode="fi" horiz-adv-x="567" 
d="M21 385v94h68v79c0 108 57 167 163 167c27 0 53 -3 73 -9v-92c-19 5 -35 8 -54 8c-50 0 -70 -30 -70 -76v-77h107v-94h-107v-385h-112v385h-68zM390 0v479h112v-479h-112zM384 585v114h124v-114h-124z" />
    <glyph glyph-name="fl" unicode="fl" horiz-adv-x="570" 
d="M21 385v94h68v79c0 108 57 167 163 167c27 0 53 -3 73 -9v-92c-19 5 -35 8 -54 8c-50 0 -70 -30 -70 -76v-77h107v-94h-107v-385h-112v385h-68zM393 0v720h112v-720h-112z" />
    <glyph glyph-name="f_f" unicode="ff" horiz-adv-x="616" 
d="M201 385v-385h-112v385h-68v94h68v79c0 108 57 167 163 167c27 0 53 -3 73 -9v-92c-19 5 -35 8 -54 8c-50 0 -70 -30 -70 -76v-77h189v79c0 108 57 167 163 167c27 0 53 -3 73 -9v-92c-18 5 -35 8 -54 8c-50 0 -70 -30 -70 -76v-77h107v-94h-107v-385h-112v385h-189z" />
    <glyph glyph-name="f_f_i" unicode="ffi" horiz-adv-x="868" 
d="M691 0v479h112v-479h-112zM685 585v114h124v-114h-124zM201 385v-385h-112v385h-68v94h68v79c0 108 57 167 163 167c27 0 53 -3 73 -9v-92c-19 5 -35 8 -54 8c-50 0 -70 -30 -70 -76v-77h189v79c0 108 57 167 163 167c27 0 53 -3 73 -9v-92c-18 5 -35 8 -54 8
c-50 0 -70 -30 -70 -76v-77h107v-94h-107v-385h-112v385h-189z" />
    <glyph glyph-name="f_f_l" unicode="ffl" horiz-adv-x="868" 
d="M691 0v720h112v-720h-112zM201 385v-385h-112v385h-68v94h68v79c0 108 57 167 163 167c27 0 53 -3 73 -9v-92c-19 5 -35 8 -54 8c-50 0 -70 -30 -70 -76v-77h189v79c0 108 57 167 163 167c27 0 53 -3 73 -9v-92c-18 5 -35 8 -54 8c-50 0 -70 -30 -70 -76v-77h107v-94
h-107v-385h-112v385h-189z" />
    <glyph glyph-name="IJ" unicode="IJ" horiz-adv-x="628" 
d="M70 0v682h118v-682h-118zM448 190v492h118v-487c0 -157 -69 -216 -193 -216c-35 0 -80 10 -104 20v101c22 -10 64 -19 89 -19c62 0 90 29 90 109z" />
    <glyph glyph-name="ij" unicode="ij" horiz-adv-x="484" 
d="M65 0v479h112v-479h-112zM59 585v114h124v-114h-124zM419 479v-524c0 -143 -67 -206 -173 -206c-40 0 -69 7 -91 14v94c13 -4 43 -12 72 -12c51 0 80 29 80 106v528h112zM301 585v114h124v-114h-124z" />
    <glyph glyph-name="napostrophe" unicode="&#x2019;n" horiz-adv-x="664" 
d="M160 0v479h111v-60h2c38 54 93 76 146 76c99 0 186 -65 186 -219v-276h-112v270c0 82 -39 126 -103 126c-70 0 -118 -49 -118 -142v-254h-112zM-20 596v124h130v-60c0 -77 -22 -138 -53 -187h-65c23 35 35 79 38 123h-50z" />
    <glyph glyph-name=".notdef" horiz-adv-x="500" 
d="M12 0v665h475v-665h-475zM88 618l162 -243l161 243h-323zM60 575v-484c0 -1 161 242 161 242zM440 575l-162 -242l162 -243v485zM411 48l-161 242l-162 -242h323z" />
    <glyph glyph-name="space" unicode=" " horiz-adv-x="250" 
 />
    <glyph glyph-name="exclam" unicode="!" horiz-adv-x="256" 
d="M69 0v112h119v-112h-119zM67 682h123l-12 -480h-99z" />
    <glyph glyph-name="quotedbl" unicode="&#x22;" horiz-adv-x="406" 
d="M56 721h105l-10 -232h-86zM246 721h104l-10 -232h-86z" />
    <glyph glyph-name="numbersign" unicode="#" horiz-adv-x="603" 
d="M473 483h117l-16 -70h-116l-32 -148h118l-14 -72h-119l-42 -193h-80l42 193h-123l-43 -193h-80l43 193h-115l15 72h114l33 148h-118l15 70h118l42 199h81l-44 -199h124l43 199h80zM378 413h-124l-33 -148h125z" />
    <glyph glyph-name="dollar" unicode="$" horiz-adv-x="569" 
d="M494 501h-112c-7 45 -41 75 -98 75c-59 0 -96 -29 -96 -74c0 -48 31 -66 124 -95c143 -44 194 -109 194 -200c0 -80 -58 -166 -176 -184v-83h-90v82c-101 14 -171 75 -188 181h116c13 -58 48 -96 119 -96c70 0 107 46 107 92c0 59 -33 90 -134 119
c-135 39 -183 98 -183 184c0 82 68 144 163 157v71h90v-70c99 -15 156 -79 164 -159z" />
    <glyph glyph-name="percent" unicode="%" horiz-adv-x="791" 
d="M41 515c0 134 85 188 161 188c69 0 152 -47 152 -186c0 -153 -95 -192 -155 -192c-72 0 -158 46 -158 190zM268 515c0 73 -26 112 -70 112c-38 0 -70 -32 -70 -111c0 -80 28 -115 71 -115c36 0 69 33 69 114zM437 169c0 133 84 187 159 187c70 0 153 -47 153 -185
c0 -154 -95 -193 -156 -193c-71 0 -156 46 -156 191zM663 169c0 73 -26 111 -70 111c-38 0 -70 -32 -70 -110c0 -81 28 -115 71 -115c36 0 69 31 69 114zM583 682h88l-461 -682h-89z" />
    <glyph glyph-name="ampersand" unicode="&#x26;" horiz-adv-x="630" 
d="M480 331v11h102v-9c0 -79 -29 -157 -68 -207c31 -37 53 -50 76 -50c10 0 24 2 29 4v-90c-8 -2 -31 -6 -47 -6c-47 0 -81 18 -125 69c-41 -34 -105 -71 -192 -71c-150 0 -220 96 -220 200c0 94 57 155 148 203c-27 40 -60 97 -60 159c0 80 56 158 182 158
c98 0 176 -57 176 -152c0 -85 -63 -137 -157 -187l126 -164c20 38 30 80 30 132zM259 73c56 0 102 25 126 48l-150 194c-60 -36 -93 -77 -93 -131c0 -60 45 -111 117 -111zM229 542c0 -43 16 -71 44 -111c67 32 107 65 107 116c0 33 -25 67 -76 67c-53 0 -75 -39 -75 -72z
" />
    <glyph glyph-name="quoteright" unicode="&#x2019;" horiz-adv-x="256" 
d="M63 596v124h130v-60c0 -77 -22 -138 -53 -187h-65c23 35 35 79 38 123h-50z" />
    <glyph glyph-name="parenleft" unicode="(" horiz-adv-x="344" 
d="M327 -215h-108c-106 136 -152 320 -152 478c0 161 46 342 152 480h108c-108 -138 -150 -319 -150 -480c0 -158 42 -342 150 -478z" />
    <glyph glyph-name="parenright" unicode=")" horiz-adv-x="344" 
d="M125 -215h-109c109 137 151 319 151 479c0 159 -42 342 -151 479h109c106 -137 152 -320 152 -479c0 -160 -46 -342 -152 -479z" />
    <glyph glyph-name="asterisk" unicode="*" horiz-adv-x="423" 
d="M14 543l26 84l133 -50l-7 144h90l-8 -144l133 50l28 -83l-138 -37l90 -112l-74 -51l-76 120l-78 -120l-73 51l90 112z" />
    <glyph glyph-name="plus" unicode="+" horiz-adv-x="672" 
d="M594 219h-213v-219h-91v219h-212v91h212v220h91v-220h213v-91z" />
    <glyph glyph-name="comma" unicode="," horiz-adv-x="256" 
d="M58 0v135h141v-64c0 -99 -35 -165 -61 -206h-69c27 45 40 95 45 135h-56z" />
    <glyph glyph-name="hyphen" unicode="-" horiz-adv-x="467" 
d="M398 217h-322v94h322v-94z" />
    <glyph glyph-name="period" unicode="." horiz-adv-x="256" 
d="M58 0v135h141v-135h-141z" />
    <glyph glyph-name="slash" unicode="/" horiz-adv-x="392" 
d="M276 720h102l-299 -834h-101z" />
    <glyph glyph-name="zero" unicode="0" horiz-adv-x="569" 
d="M33 345c0 262 134 359 255 359c115 0 247 -83 247 -356c0 -301 -153 -370 -250 -370c-115 0 -252 81 -252 367zM418 345c0 174 -51 258 -133 258c-70 0 -133 -70 -133 -255c0 -194 56 -269 135 -269c66 0 131 70 131 266z" />
    <glyph glyph-name="one" unicode="1" horiz-adv-x="569" 
d="M233 0v579h-97v103h211v-682h-114z" />
    <glyph glyph-name="two" unicode="2" horiz-adv-x="569" 
d="M74 0v92l211 235c54 61 99 120 99 183c0 52 -34 93 -95 93c-57 0 -97 -44 -97 -109h-118c3 119 81 210 218 210c136 0 211 -85 211 -188c0 -92 -52 -163 -140 -258l-144 -155h295v-103h-440z" />
    <glyph glyph-name="three" unicode="3" horiz-adv-x="569" 
d="M192 516h-114c5 100 78 188 214 188c130 0 209 -77 209 -177c0 -80 -58 -135 -118 -152v-2c82 -17 141 -80 141 -179c0 -113 -78 -215 -234 -215c-148 0 -223 87 -231 203h115c8 -62 49 -106 119 -106c68 0 114 52 114 121c0 66 -43 120 -139 120h-40v96h40
c69 0 114 39 114 104c0 44 -28 89 -92 89c-67 0 -94 -45 -98 -90z" />
    <glyph glyph-name="four" unicode="4" horiz-adv-x="569" 
d="M534 142h-87v-142h-112v142h-303v94l304 446h111v-441h87v-99zM284 449l-144 -208h195v210c0 40 0 52 1 80h-3c-12 -24 -24 -45 -49 -82z" />
    <glyph glyph-name="five" unicode="5" horiz-adv-x="569" 
d="M226 579l-15 -147c19 5 44 8 65 8c145 0 242 -85 242 -224c0 -117 -84 -238 -238 -238c-146 0 -224 92 -232 197h121c7 -50 42 -94 114 -94c62 0 114 49 114 125c0 83 -51 132 -149 132c-47 0 -107 -9 -159 -22l35 366h347v-103h-245z" />
    <glyph glyph-name="six" unicode="6" horiz-adv-x="569" 
d="M29 225c0 83 37 150 84 218l171 239h128l-158 -219c13 5 39 8 58 8c130 -4 227 -108 227 -246c0 -136 -108 -247 -256 -247c-149 0 -254 103 -254 247zM147 224c0 -84 60 -145 136 -145c79 0 138 61 138 145c0 83 -55 147 -138 147c-80 0 -136 -60 -136 -147z" />
    <glyph glyph-name="seven" unicode="7" horiz-adv-x="569" 
d="M507 682v-96l-274 -586h-126l280 579h-315v103h435z" />
    <glyph glyph-name="eight" unicode="8" horiz-adv-x="569" 
d="M184 508c0 -61 48 -103 99 -103c61 0 102 43 102 103s-43 98 -101 98c-54 0 -100 -38 -100 -98zM166 195c0 -69 49 -119 120 -119c69 0 118 42 118 119c0 71 -49 120 -117 120c-70 0 -121 -50 -121 -120zM521 190c0 -110 -76 -211 -236 -211c-159 0 -237 97 -237 206
c0 91 46 150 121 180v2c-66 28 -101 81 -101 151c0 101 83 186 217 186c132 0 215 -85 215 -182c0 -77 -42 -134 -100 -155v-2c80 -29 121 -92 121 -175z" />
    <glyph glyph-name="nine" unicode="9" horiz-adv-x="569" 
d="M539 457c0 -83 -36 -150 -84 -218l-171 -239h-127l157 219c-12 -5 -39 -8 -58 -8c-133 3 -226 108 -226 246c0 136 107 247 256 247c148 0 253 -103 253 -247zM421 458c0 84 -59 145 -136 145c-78 0 -137 -61 -137 -145c0 -83 55 -147 137 -147c81 0 136 60 136 147z" />
    <glyph glyph-name="colon" unicode=":" horiz-adv-x="264" 
d="M62 333v135h140v-135h-140zM62 0v135h140v-135h-140z" />
    <glyph glyph-name="semicolon" unicode=";" horiz-adv-x="264" 
d="M62 0v135h140v-64c0 -99 -35 -165 -61 -206h-69c28 45 41 95 46 135h-56zM62 333v135h140v-135h-140z" />
    <glyph glyph-name="less" unicode="&#x3c;" horiz-adv-x="672" 
d="M588 -4l-505 230v78l505 230v-102l-378 -166v-2l378 -165v-103z" />
    <glyph glyph-name="equal" unicode="=" horiz-adv-x="672" 
d="M595 333h-519v90h519v-90zM595 107h-519v90h519v-90z" />
    <glyph glyph-name="greater" unicode="&#x3e;" horiz-adv-x="672" 
d="M588 226l-505 -230v102l379 165v3l-379 166v102l505 -230v-78z" />
    <glyph glyph-name="question" unicode="?" horiz-adv-x="454" 
d="M327 325c-37 -36 -52 -68 -52 -123h-100c0 73 8 115 52 165c54 60 87 87 87 145c0 51 -34 91 -91 91c-51 0 -92 -38 -92 -102h-114c3 123 87 203 210 203c131 0 205 -83 205 -184c0 -85 -48 -144 -105 -195zM165 0v112h119v-112h-119z" />
    <glyph glyph-name="at" unicode="@" horiz-adv-x="941" 
d="M882 356c0 -156 -87 -266 -197 -266c-69 0 -115 33 -122 91h-4c-31 -59 -91 -91 -143 -91c-99 0 -155 79 -155 184c0 125 78 249 204 249c50 0 89 -28 111 -68h2l10 58h90l-38 -245c-2 -19 -5 -37 -5 -51c0 -30 15 -56 58 -56c61 0 104 80 104 190
c0 176 -106 282 -318 282c-210 0 -336 -161 -336 -345s127 -308 330 -308c82 0 158 15 202 36l27 -60c-55 -30 -141 -47 -237 -47c-239 0 -407 148 -407 380c0 231 173 415 426 415c273 0 398 -166 398 -348zM561 345c0 64 -29 105 -84 105c-78 0 -122 -86 -122 -174
c0 -69 31 -113 81 -113c79 0 125 92 125 182z" />
    <glyph glyph-name="A" unicode="A" horiz-adv-x="652" 
d="M7 0l271 682h108l259 -682h-123l-61 167h-272l-62 -167h-120zM284 431l-64 -174h210l-63 175c-14 38 -28 82 -38 118h-5c-11 -37 -26 -82 -40 -119z" />
    <glyph glyph-name="B" unicode="B" horiz-adv-x="554" 
d="M71 0v682h173c141 0 230 -62 230 -173c0 -77 -54 -125 -117 -144v-2c105 -13 159 -87 159 -170c0 -127 -102 -193 -234 -193h-211zM396 202c0 65 -46 107 -129 107h-83v-214h92c80 0 120 41 120 107zM356 498c0 61 -46 90 -116 90h-56v-186h61c73 0 111 38 111 96z" />
    <glyph glyph-name="C" unicode="C" horiz-adv-x="764" 
d="M388 704c190 0 291 -119 320 -222h-129c-24 65 -91 120 -192 120c-127 0 -231 -99 -231 -260c0 -144 96 -262 235 -262c104 0 169 60 196 132h132c-49 -133 -154 -234 -332 -234c-211 0 -352 157 -352 365s151 361 353 361z" />
    <glyph glyph-name="D" unicode="D" horiz-adv-x="708" 
d="M71 682h228c246 0 374 -155 374 -341c0 -185 -136 -341 -376 -341h-226v682zM189 105h108c173 0 255 107 255 236c0 139 -88 236 -255 236h-108v-472z" />
    <glyph glyph-name="E" unicode="E" horiz-adv-x="535" 
d="M464 682v-104h-276v-175h266v-101h-266v-198h287v-104h-405v682h394z" />
    <glyph glyph-name="F" unicode="F" horiz-adv-x="508" 
d="M464 682v-104h-275v-190h265v-100h-265v-288h-119v682h394z" />
    <glyph glyph-name="G" unicode="G" horiz-adv-x="773" 
d="M355 373h383v-22c0 -193 -118 -372 -349 -372c-210 0 -354 165 -354 360c0 205 151 364 354 364c166 0 280 -83 326 -206h-128c-33 63 -103 104 -195 104c-139 0 -236 -107 -236 -259c0 -160 103 -261 242 -261c117 0 202 84 214 192h-257v100z" />
    <glyph glyph-name="H" unicode="H" horiz-adv-x="693" 
d="M504 0v300h-315v-300h-118v682h118v-277h315v277h118v-682h-118z" />
    <glyph glyph-name="I" unicode="I" horiz-adv-x="259" 
d="M70 0v682h118v-682h-118z" />
    <glyph glyph-name="J" unicode="J" horiz-adv-x="369" 
d="M189 190v492h118v-487c0 -157 -69 -216 -193 -216c-35 0 -80 10 -104 20v101c22 -10 64 -19 89 -19c62 0 90 29 90 109z" />
    <glyph glyph-name="K" unicode="K" horiz-adv-x="629" 
d="M494 0l-251 308c-16 -16 -39 -41 -54 -56v-252h-118v682h118v-286l272 286h151l-287 -294l320 -388h-151z" />
    <glyph glyph-name="L" unicode="L" horiz-adv-x="485" 
d="M70 0v682h118v-578h287v-104h-405z" />
    <glyph glyph-name="M" unicode="M" horiz-adv-x="819" 
d="M702 682l80 -682h-114l-36 361c-5 49 -11 120 -15 163h-5c-13 -48 -32 -114 -48 -164l-113 -360h-88l-114 368c-15 46 -35 104 -46 156h-7c-2 -49 -7 -107 -12 -155l-38 -369h-108l79 682h135l120 -371c12 -37 27 -88 36 -125h4c9 37 26 90 37 125l119 371h134z" />
    <glyph glyph-name="N" unicode="N" horiz-adv-x="675" 
d="M175 503h-3c1 -34 3 -102 3 -136v-367h-105v682h105l203 -308c70 -105 102 -160 122 -198h2c-1 36 -2 100 -2 133v373h104v-682h-104l-194 293c-84 127 -110 172 -131 210z" />
    <glyph glyph-name="O" unicode="O" horiz-adv-x="793" 
d="M156 341c0 -147 104 -257 240 -257c137 0 241 110 241 257c0 144 -96 257 -240 257c-136 0 -241 -109 -241 -257zM35 341c0 195 152 363 363 363c224 0 360 -173 360 -363c0 -199 -155 -363 -361 -363c-250 0 -362 194 -362 363z" />
    <glyph glyph-name="P" unicode="P" horiz-adv-x="554" 
d="M415 465c0 66 -38 118 -134 118h-93v-236h91c108 0 136 56 136 118zM70 0v682h210c146 0 255 -68 255 -215c0 -135 -82 -218 -261 -218h-86v-249h-118z" />
    <glyph glyph-name="Q" unicode="Q" horiz-adv-x="793" 
d="M650 -106l-97 119c-47 -22 -100 -35 -157 -35c-249 0 -362 194 -362 363c0 195 152 363 363 363c224 0 360 -173 360 -363c0 -107 -44 -203 -117 -269l91 -112zM155 341c0 -147 105 -257 240 -257c32 0 60 6 87 17l-89 110l81 66l94 -117c43 46 68 108 68 181
c0 144 -96 257 -240 257c-136 0 -241 -109 -241 -257z" />
    <glyph glyph-name="R" unicode="R" horiz-adv-x="589" 
d="M377 290l212 -290h-142l-194 275h-65v-275h-118v682h206c183 0 248 -100 248 -205c0 -97 -67 -167 -147 -187zM402 474c0 69 -42 109 -118 109h-96v-215h97c75 0 117 45 117 106z" />
    <glyph glyph-name="S" unicode="S" horiz-adv-x="555" 
d="M489 520h-116c-7 51 -41 86 -97 86c-55 0 -92 -35 -92 -85c0 -56 47 -84 122 -108c146 -46 197 -122 197 -225c0 -100 -72 -210 -224 -210c-127 0 -218 71 -236 206h120c11 -65 49 -108 117 -108c69 0 106 51 106 105c0 65 -41 101 -132 130c-131 42 -186 112 -186 209
c0 108 90 184 209 184c122 0 203 -76 212 -184z" />
    <glyph glyph-name="T" unicode="T" horiz-adv-x="478" 
d="M180 0v578h-170v104h458v-104h-170v-578h-118z" />
    <glyph glyph-name="U" unicode="U" horiz-adv-x="631" 
d="M316 -22c-135 0 -256 76 -256 293v411h118v-422c0 -109 51 -180 138 -180c101 0 137 77 137 180v422h117v-409c0 -214 -110 -295 -254 -295z" />
    <glyph glyph-name="V" unicode="V" horiz-adv-x="615" 
d="M615 682l-255 -682h-107l-252 682h127l138 -402c13 -38 32 -98 43 -140h2c12 45 30 101 44 141l139 401h121z" />
    <glyph glyph-name="W" unicode="W" horiz-adv-x="855" 
d="M550 0l-93 390c-13 56 -20 96 -24 145h-4c-6 -49 -11 -85 -25 -142l-90 -393h-123l-179 682h117l97 -400c16 -66 20 -92 27 -130h4c7 43 16 91 27 139l92 391h113l95 -398c14 -57 19 -91 26 -132h4c7 49 16 97 24 131l90 399h116l-168 -682h-126z" />
    <glyph glyph-name="X" unicode="X" horiz-adv-x="594" 
d="M146 682l105 -164c19 -29 33 -53 48 -79h3c16 29 30 53 48 81l104 162h126l-221 -326l231 -356h-133l-107 173c-19 30 -37 62 -55 92h-2c-19 -31 -38 -63 -57 -94l-105 -171h-127l229 352l-221 330h134z" />
    <glyph glyph-name="Y" unicode="Y" horiz-adv-x="570" 
d="M227 0v274l-218 408h130l115 -223c15 -29 27 -55 36 -82h2c11 28 22 50 37 81l110 224h123l-217 -407v-275h-118z" />
    <glyph glyph-name="Z" unicode="Z" horiz-adv-x="612" 
d="M56 578v104h500v-98l-371 -480h387v-104h-533v97l371 481h-354z" />
    <glyph glyph-name="bracketleft" unicode="[" horiz-adv-x="365" 
d="M301 728v-92h-106v-744h106v-92h-209v928h209z" />
    <glyph glyph-name="backslash" unicode="\" horiz-adv-x="420" 
d="M426 -114h-102l-317 834h101z" />
    <glyph glyph-name="bracketright" unicode="]" horiz-adv-x="365" 
d="M64 636v92h209v-928h-209v92h106v744h-106z" />
    <glyph glyph-name="asciicircum" unicode="^" horiz-adv-x="668" 
d="M612 326h-106l-171 281h-3l-170 -281h-105l232 378h90z" />
    <glyph glyph-name="underscore" unicode="_" horiz-adv-x="550" 
d="M0 -238v87h550v-87h-550z" />
    <glyph glyph-name="quoteleft" unicode="&#x2018;" horiz-adv-x="256" 
d="M194 597v-124h-131v60c0 77 22 138 53 187h65c-23 -35 -35 -79 -38 -123h51z" />
    <glyph glyph-name="a" unicode="a" horiz-adv-x="604" 
d="M538 479v-479h-109v61h-3c-33 -41 -85 -78 -164 -78c-108 0 -230 86 -230 257c0 152 108 254 238 254c80 0 128 -42 157 -80h2v65h109zM147 240c0 -80 46 -159 145 -159c74 0 142 64 142 156c0 97 -63 161 -141 161c-99 0 -146 -80 -146 -158z" />
    <glyph glyph-name="b" unicode="b" horiz-adv-x="604" 
d="M66 0v720h109v-302h3c31 34 80 76 167 76c111 0 227 -92 227 -256c0 -157 -113 -255 -232 -255c-77 0 -129 35 -161 75h-3v-58h-110zM457 239c0 80 -47 157 -145 157c-78 0 -141 -63 -141 -159c0 -93 65 -157 142 -157c96 0 144 80 144 159z" />
    <glyph glyph-name="c" unicode="c" horiz-adv-x="547" 
d="M287 495c137 0 206 -90 221 -160h-115c-15 38 -51 65 -107 65c-81 0 -139 -59 -139 -160c0 -91 56 -161 143 -161c62 0 94 35 110 72h116c-26 -87 -95 -168 -228 -168c-144 0 -256 103 -256 258c0 140 98 254 255 254z" />
    <glyph glyph-name="d" unicode="d" horiz-adv-x="604" 
d="M538 720v-720h-109v57h-3c-32 -37 -87 -74 -166 -74c-108 0 -228 86 -228 257c0 150 105 255 234 255c79 0 124 -33 159 -76h3v301h110zM147 240c0 -80 47 -159 144 -159c76 0 143 64 143 156c0 97 -63 162 -142 162c-97 0 -145 -81 -145 -159z" />
    <glyph glyph-name="e" unicode="e" horiz-adv-x="551" 
d="M275 495c165 -1 241 -129 241 -251c0 -10 0 -23 -2 -33h-370c0 -75 66 -140 143 -140c49 0 82 20 107 54h115c-32 -73 -101 -142 -222 -142c-147 0 -255 108 -255 261c0 135 92 251 243 251zM275 411c-77 0 -124 -57 -130 -119h259c-7 64 -56 119 -129 119z" />
    <glyph glyph-name="f" unicode="f" horiz-adv-x="315" 
d="M21 385v94h68v79c0 108 57 167 163 167c27 0 53 -3 73 -9v-92c-19 5 -35 8 -54 8c-50 0 -70 -30 -70 -76v-77h107v-94h-107v-385h-112v385h-68z" />
    <glyph glyph-name="g" unicode="g" horiz-adv-x="604" 
d="M539 479v-464c0 -176 -80 -272 -253 -272c-134 0 -220 74 -239 188h112c13 -53 51 -95 132 -95c92 0 141 59 141 165v60h-2c-34 -39 -86 -74 -163 -74c-126 0 -234 98 -234 254c0 146 101 253 238 253c82 0 131 -42 158 -77h3v62h107zM147 241c0 -77 47 -156 144 -156
c78 0 143 63 143 154c0 96 -62 159 -141 159c-97 0 -146 -80 -146 -157z" />
    <glyph glyph-name="h" unicode="h" horiz-adv-x="566" 
d="M65 0v720h112v-301h3c38 54 92 76 145 76c99 0 185 -64 185 -219v-276h-112v270c0 82 -39 126 -103 126c-70 0 -118 -48 -118 -141v-255h-112z" />
    <glyph glyph-name="i" unicode="i" horiz-adv-x="242" 
d="M65 0v479h112v-479h-112zM59 585v114h124v-114h-124z" />
    <glyph glyph-name="j" unicode="j" horiz-adv-x="242" 
d="M177 479v-524c0 -143 -67 -206 -173 -206c-40 0 -69 7 -91 14v94c13 -4 43 -12 72 -12c51 0 80 29 80 106v528h112zM59 585v114h124v-114h-124z" />
    <glyph glyph-name="k" unicode="k" horiz-adv-x="509" 
d="M380 0l-166 210l-37 -36v-174h-112v720h112v-420l172 179h136l-194 -197l225 -282h-136z" />
    <glyph glyph-name="l" unicode="l" horiz-adv-x="242" 
d="M65 0v720h112v-720h-112z" />
    <glyph glyph-name="m" unicode="m" horiz-adv-x="866" 
d="M65 0v479h111v-60h2c30 43 79 76 140 76c73 0 129 -43 147 -92c24 45 83 92 160 92c109 0 181 -76 181 -219v-276h-111v277c0 63 -29 119 -96 119c-55 0 -107 -42 -107 -135v-261h-112v277c0 67 -36 119 -95 119c-66 0 -108 -50 -108 -135v-261h-112z" />
    <glyph glyph-name="n" unicode="n" horiz-adv-x="569" 
d="M65 0v479h111v-60h2c38 54 93 76 146 76c99 0 186 -65 186 -219v-276h-112v270c0 82 -39 126 -103 126c-70 0 -118 -49 -118 -142v-254h-112z" />
    <glyph glyph-name="o" unicode="o" horiz-adv-x="577" 
d="M32 240c0 148 111 255 256 255c150 0 256 -110 256 -255c0 -141 -107 -257 -256 -257c-146 0 -256 112 -256 257zM146 240c0 -92 65 -157 142 -157c85 0 143 68 143 157c0 85 -54 156 -143 156c-86 0 -142 -67 -142 -156z" />
    <glyph glyph-name="p" unicode="p" horiz-adv-x="604" 
d="M66 -235v714h109v-61h3c31 36 78 76 165 76c123 0 229 -102 229 -256c0 -150 -106 -255 -235 -255c-74 0 -126 35 -158 75h-3v-293h-110zM457 239c0 80 -47 157 -145 157c-78 0 -141 -63 -141 -159c0 -93 65 -157 142 -157c96 0 144 80 144 159z" />
    <glyph glyph-name="q" unicode="q" horiz-adv-x="604" 
d="M538 479v-714h-109v292h-3c-32 -38 -87 -74 -164 -74c-107 0 -230 86 -230 257c0 150 105 255 238 255c78 0 125 -39 155 -76h3v60h110zM147 240c0 -80 47 -159 144 -159c76 0 143 64 143 156c0 97 -63 162 -142 162c-97 0 -145 -81 -145 -159z" />
    <glyph glyph-name="r" unicode="r" horiz-adv-x="378" 
d="M354 491v-104c-14 2 -31 5 -56 5c-76 0 -121 -50 -121 -150v-242h-112v479h110v-68h3c22 41 70 83 134 83c18 0 30 -1 42 -3z" />
    <glyph glyph-name="s" unicode="s" horiz-adv-x="434" 
d="M386 356h-103c-5 35 -31 58 -64 58c-39 0 -60 -24 -60 -51c0 -29 15 -49 98 -77c103 -33 139 -86 139 -153c0 -88 -66 -150 -176 -150c-115 0 -171 63 -180 152h104c5 -40 29 -70 79 -70c42 0 66 26 66 59c0 36 -21 59 -100 86c-90 29 -135 74 -135 148
c0 79 62 137 163 137c103 0 157 -61 169 -139z" />
    <glyph glyph-name="t" unicode="t" horiz-adv-x="334" 
d="M14 385v94h60v153h112v-153h119v-94h-119v-214c0 -65 20 -83 66 -83c19 0 41 4 58 8v-91c-25 -7 -57 -11 -85 -11c-119 0 -151 72 -151 170v221h-60z" />
    <glyph glyph-name="u" unicode="u" horiz-adv-x="557" 
d="M493 479v-479h-111v59h-3c-40 -56 -91 -75 -142 -75c-81 0 -178 50 -178 212v283h112v-270c0 -81 39 -126 98 -126c68 0 112 48 112 141v255h112z" />
    <glyph glyph-name="v" unicode="v" horiz-adv-x="449" 
d="M452 479l-177 -479h-102l-177 479h116l80 -238c13 -40 26 -87 32 -120h4c9 40 19 81 32 120l81 238h111z" />
    <glyph glyph-name="w" unicode="w" horiz-adv-x="710" 
d="M433 0l-58 241c-7 33 -15 69 -20 104h-4c-4 -35 -12 -77 -23 -124l-52 -221h-134l-123 479h110l64 -272c10 -44 14 -63 19 -95h4c6 31 12 63 21 100l66 267h107l67 -271c10 -40 13 -66 18 -96h3c5 37 12 73 17 95l66 272h110l-125 -479h-133z" />
    <glyph glyph-name="x" unicode="x" horiz-adv-x="497" 
d="M13 0l175 243l-165 236h126l71 -107c12 -18 21 -37 29 -51h3c8 16 17 32 27 48l69 110h125l-165 -233l174 -246h-130l-76 115c-12 20 -21 37 -29 52h-3c-10 -18 -20 -35 -31 -53l-74 -114h-126z" />
    <glyph glyph-name="y" unicode="y" horiz-adv-x="452" 
d="M456 479l-263 -714h-107l88 237l-175 477h115l83 -238c10 -30 26 -77 32 -110h3c10 40 19 71 32 110l81 238h111z" />
    <glyph glyph-name="z" unicode="z" horiz-adv-x="484" 
d="M48 386v93h387v-89l-257 -297h269v-93h-411v89l258 297h-246z" />
    <glyph glyph-name="braceleft" unicode="{" horiz-adv-x="382" 
d="M320 742v-85c-51 -1 -70 -30 -70 -79v-186c0 -55 -26 -107 -82 -129v-2c50 -17 82 -66 82 -136v-177c0 -49 19 -77 70 -79v-84c-119 1 -175 61 -175 165v188c0 45 -29 81 -83 85v80c54 3 83 40 83 84v192c0 97 53 161 175 163z" />
    <glyph glyph-name="bar" unicode="|" horiz-adv-x="376" 
d="M232 -210h-89v1000h89v-1000z" />
    <glyph glyph-name="braceright" unicode="}" horiz-adv-x="382" 
d="M62 657v85c121 -2 174 -66 174 -163v-192c0 -44 29 -81 83 -84v-80c-54 -4 -83 -40 -83 -85v-188c0 -111 -65 -164 -174 -165v84c51 2 70 30 70 79v177c0 70 32 119 82 136v2c-56 22 -82 74 -82 129v186c0 49 -19 78 -70 79z" />
    <glyph glyph-name="asciitilde" unicode="~" horiz-adv-x="668" 
d="M624 294c-45 -76 -96 -116 -176 -116c-42 0 -87 14 -125 38c-40 25 -69 43 -105 43c-44 0 -72 -25 -104 -76l-70 46c43 77 97 117 172 117c49 0 92 -19 126 -39c40 -26 74 -43 108 -43c45 0 78 32 104 75z" />
    <glyph glyph-name="exclamdown" unicode="&#xa1;" horiz-adv-x="256" 
d="M188 682v-112h-119v112h119zM190 0h-123l12 480h99z" />
    <glyph glyph-name="cent" unicode="&#xa2;" horiz-adv-x="569" 
d="M250 0v93c-115 21 -205 114 -205 254c0 124 78 228 205 250v85h86v-84c112 -14 170 -94 185 -157h-113c-12 28 -37 51 -72 61v-313c41 10 66 38 79 68h114c-25 -79 -88 -152 -193 -166v-91h-86zM159 346c0 -71 34 -130 91 -152v305c-54 -20 -91 -75 -91 -153z" />
    <glyph glyph-name="sterling" unicode="&#xa3;" horiz-adv-x="569" 
d="M415 398v-89h-172c5 -26 9 -53 9 -79c0 -52 -20 -85 -44 -105c26 0 64 -12 92 -22c32 -10 64 -22 89 -22c37 0 51 33 53 88h107c-2 -117 -50 -191 -150 -191c-44 0 -90 14 -135 29c-38 13 -74 24 -104 24c-39 0 -79 -13 -114 -34v99c66 21 99 77 99 124
c0 32 -5 63 -12 89h-87v89h63c-7 30 -15 69 -15 116c0 100 66 191 208 191c126 0 205 -83 210 -197h-114c-2 61 -43 100 -95 100c-61 0 -94 -44 -94 -106c0 -35 5 -72 12 -104h194z" />
    <glyph glyph-name="fraction" unicode="&#x2044;" horiz-adv-x="192" 
d="M283 682h88l-461 -682h-89z" />
    <glyph glyph-name="yen" unicode="&#xa5;" horiz-adv-x="569" 
d="M53 278v84h135l-169 320h122l107 -213c15 -29 29 -58 38 -85h2c11 28 22 53 37 84l105 214h119l-169 -320h136v-84h-175v-78h175v-84h-175v-116h-113v116h-175v84h175v78h-175z" />
    <glyph glyph-name="florin" unicode="&#x192;" horiz-adv-x="569" 
d="M141 -79l75 467h-79v94h92l9 56c18 114 70 166 165 166c26 0 51 -4 68 -7v-91c-15 3 -33 4 -48 4c-44 0 -66 -27 -73 -75l-9 -53h88v-94h-102l-75 -474c-20 -120 -74 -171 -165 -171c-29 0 -52 2 -70 7v92c15 -3 34 -6 49 -6c44 0 65 25 75 85z" />
    <glyph glyph-name="section" unicode="&#xa7;" horiz-adv-x="439" 
d="M390 331c0 -53 -27 -93 -74 -116c37 -26 60 -68 60 -117c0 -75 -51 -144 -163 -144c-104 0 -158 57 -165 146h95c2 -41 23 -69 72 -69c44 0 68 29 68 64c0 43 -35 67 -90 91c-80 34 -138 76 -138 157c0 51 29 93 75 110c-39 28 -62 65 -62 116c0 74 55 135 158 135
c92 0 147 -58 150 -133h-89c-2 31 -26 54 -64 54c-46 0 -63 -30 -63 -54c0 -39 24 -58 108 -94c71 -30 122 -72 122 -146zM299 325c0 41 -34 61 -99 86c-28 -6 -55 -27 -55 -61c0 -42 28 -61 102 -93c33 12 52 38 52 68z" />
    <glyph glyph-name="currency" unicode="&#xa4;" horiz-adv-x="614" 
d="M544 175l-53 -55l-69 67c-34 -24 -74 -36 -115 -36c-35 0 -79 9 -116 36l-68 -67l-54 55l69 65c-24 37 -36 77 -36 114s11 79 36 114l-69 66l54 55l68 -67c39 26 81 35 116 35c36 0 81 -11 115 -35l69 67l53 -55l-68 -66c26 -39 36 -80 36 -114c0 -37 -11 -76 -36 -114
c22 -22 45 -44 68 -65zM435 355c0 74 -63 127 -128 127c-73 0 -129 -59 -129 -127c0 -70 58 -128 129 -128c70 0 128 58 128 128z" />
    <glyph glyph-name="quotesingle" unicode="'" horiz-adv-x="217" 
d="M56 721h105l-10 -232h-86z" />
    <glyph glyph-name="quotedblleft" unicode="&#x201c;" horiz-adv-x="443" 
d="M194 597v-124h-131v60c0 77 22 138 53 187h65c-23 -35 -35 -79 -38 -123h51zM380 597v-124h-130v60c0 77 22 138 53 187h64c-22 -35 -34 -79 -38 -123h51z" />
    <glyph glyph-name="guillemotleft" unicode="&#xab;" horiz-adv-x="487" 
d="M241 248l128 207l70 -38l-87 -169l87 -169l-70 -39zM52 248l128 207l70 -38l-88 -169l88 -169l-70 -39z" />
    <glyph glyph-name="guilsinglleft" unicode="&#x2039;" horiz-adv-x="298" 
d="M52 248l128 207l70 -38l-88 -169l88 -169l-70 -39z" />
    <glyph glyph-name="guilsinglright" unicode="&#x203a;" horiz-adv-x="298" 
d="M246 247l-128 -207l-70 38l87 169l-87 170l70 38z" />
    <glyph glyph-name="endash" unicode="&#x2013;" horiz-adv-x="556" 
d="M480 217h-404v94h404v-94z" />
    <glyph glyph-name="dagger" unicode="&#x2020;" horiz-adv-x="451" 
d="M407 428l-142 15l14 -93l-14 -350h-79l-15 350l15 93l-141 -15v108l141 -14l-15 160h108l-14 -160l142 14v-108z" />
    <glyph glyph-name="daggerdbl" unicode="&#x2021;" horiz-adv-x="451" 
d="M276 151l-13 -151h-76l-12 151l12 76l-142 -13v102l142 -13l-12 76l12 77l-142 -13v101l142 -13l-12 151h101l-13 -151l144 13v-101l-144 13l13 -77l-13 -76l144 13v-102l-144 13z" />
    <glyph glyph-name="periodcentered" unicode="&#xb7;" horiz-adv-x="256" 
d="M61 285v135h141v-135h-141z" />
    <glyph glyph-name="paragraph" unicode="&#xb6;" horiz-adv-x="557" 
d="M492 607h-61v-607h-83v607h-73v-607h-82v371c-97 2 -162 68 -162 157c0 100 75 154 169 154h292v-75z" />
    <glyph glyph-name="bullet" unicode="&#x2022;" horiz-adv-x="412" 
d="M66 304c0 77 62 140 139 140c76 0 141 -63 141 -140c0 -78 -65 -140 -141 -140c-77 0 -139 62 -139 140z" />
    <glyph glyph-name="quotesinglbase" unicode="&#x201a;" horiz-adv-x="256" 
d="M63 0v124h130v-60c0 -77 -22 -138 -53 -187h-65c23 35 35 79 38 123h-50z" />
    <glyph glyph-name="quotedblbase" unicode="&#x201e;" horiz-adv-x="443" 
d="M249 0v124h131v-60c0 -77 -22 -138 -53 -187h-65c23 35 35 79 38 123h-51zM63 0v124h130v-60c0 -77 -22 -138 -53 -187h-65c23 35 35 79 38 123h-50z" />
    <glyph glyph-name="quotedblright" unicode="&#x201d;" horiz-adv-x="443" 
d="M249 596v124h131v-60c0 -77 -22 -138 -53 -187h-65c23 35 35 79 38 123h-51zM63 596v124h130v-60c0 -77 -22 -138 -53 -187h-65c23 35 35 79 38 123h-50z" />
    <glyph glyph-name="guillemotright" unicode="&#xbb;" horiz-adv-x="487" 
d="M246 247l-128 -207l-70 38l87 169l-87 170l70 38zM436 247l-128 -207l-71 38l88 169l-88 170l71 38z" />
    <glyph glyph-name="ellipsis" unicode="&#x2026;" horiz-adv-x="1006" 
d="M100 0v135h140v-135h-140zM433 0v135h140v-135h-140zM766 0v135h140v-135h-140z" />
    <glyph glyph-name="perthousand" unicode="&#x2030;" horiz-adv-x="1144" 
d="M580 682h91l-458 -682h-92zM41 515c0 134 85 188 161 188c69 0 152 -47 152 -186c0 -153 -95 -192 -155 -192c-72 0 -158 46 -158 190zM268 515c0 74 -26 112 -70 112c-38 0 -70 -32 -70 -111c0 -80 28 -115 71 -115c36 0 69 33 69 114zM437 169c0 133 84 187 159 187
c70 0 153 -47 153 -185c0 -154 -95 -193 -156 -193c-71 0 -156 46 -156 191zM663 169c0 73 -26 111 -70 111c-38 0 -70 -32 -70 -110c0 -81 28 -115 71 -115c36 0 69 31 69 114zM790 169c0 133 85 187 160 187c70 0 153 -47 153 -185c0 -154 -95 -193 -156 -193
c-71 0 -157 46 -157 191zM1016 169c0 73 -25 111 -70 111c-37 0 -69 -32 -69 -110c0 -81 28 -115 70 -115c37 0 69 31 69 114z" />
    <glyph glyph-name="questiondown" unicode="&#xbf;" horiz-adv-x="454" 
d="M127 357c37 36 52 68 52 123h100c0 -73 -8 -115 -52 -165c-55 -60 -87 -87 -87 -145c0 -51 34 -91 90 -91c51 0 92 38 92 102h114c-3 -123 -86 -203 -209 -203c-132 0 -206 83 -206 184c0 85 49 144 106 195zM289 682v-112h-120v112h120z" />
    <glyph glyph-name="grave" unicode="`" horiz-adv-x="324" 
d="M34 685l63 73l147 -142l-50 -60z" />
    <glyph glyph-name="acute" unicode="&#xb4;" horiz-adv-x="324" 
d="M80 616l148 142l62 -73l-160 -129z" />
    <glyph glyph-name="circumflex" unicode="&#x2c6;" horiz-adv-x="324" 
d="M162 740l154 -127l-45 -59l-109 79l-109 -79l-45 59z" />
    <glyph glyph-name="tilde" unicode="&#x2dc;" horiz-adv-x="324" 
d="M64 590h-71c4 73 34 128 102 128c29 0 49 -10 75 -30c25 -19 43 -28 60 -28c16 0 29 10 30 49h71c-3 -83 -37 -128 -103 -128c-31 0 -56 10 -81 29c-27 21 -39 29 -53 29c-17 0 -28 -17 -30 -49z" />
    <glyph glyph-name="macron" unicode="&#xaf;" horiz-adv-x="324" 
d="M303 597h-282v80h282v-80z" />
    <glyph glyph-name="breve" unicode="&#x2d8;" horiz-adv-x="324" 
d="M245 721h80c-5 -92 -75 -154 -163 -154c-93 0 -158 62 -162 154h79c4 -43 35 -71 83 -71c47 0 80 29 83 71z" />
    <glyph glyph-name="dotaccent" unicode="&#x2d9;" horiz-adv-x="324" 
d="M108 592v103h108v-103h-108z" />
    <glyph glyph-name="dieresis" unicode="&#xa8;" horiz-adv-x="324" 
d="M20 593v102h105v-102h-105zM200 593v102h105v-102h-105z" />
    <glyph glyph-name="ring" unicode="&#x2da;" horiz-adv-x="324" 
d="M102 657c0 -34 28 -61 62 -61c33 0 59 27 59 61c0 33 -26 59 -59 59c-34 0 -62 -26 -62 -59zM37 657c0 69 55 125 127 125c69 0 125 -56 125 -125c0 -71 -56 -127 -125 -127c-72 0 -127 56 -127 127z" />
    <glyph glyph-name="cedilla" unicode="&#xb8;" horiz-adv-x="324" 
d="M133 0h69l-16 -39c54 -9 86 -50 86 -97c0 -62 -41 -107 -124 -107c-37 0 -79 8 -106 17l24 67c14 -6 49 -12 71 -12c32 0 52 10 52 34c0 27 -29 43 -94 43z" />
    <glyph glyph-name="hungarumlaut" unicode="&#x2dd;" horiz-adv-x="324" 
d="M112 754l81 -52l-113 -153l-64 41zM283 754l81 -52l-113 -153l-64 41z" />
    <glyph glyph-name="ogonek" unicode="&#x2db;" horiz-adv-x="324" 
d="M242 -135v-80c-15 -4 -38 -7 -58 -7c-84 0 -118 50 -118 109c0 42 27 88 73 113h71c-40 -34 -55 -66 -55 -93c0 -32 21 -46 48 -46c12 0 26 1 39 4z" />
    <glyph glyph-name="caron" unicode="&#x2c7;" horiz-adv-x="324" 
d="M162 554l-154 127l45 59l109 -79l109 79l45 -59z" />
    <glyph glyph-name="emdash" unicode="&#x2014;" horiz-adv-x="1106" 
d="M1030 217h-954v94h954v-94z" />
    <glyph glyph-name="AE" unicode="&#xc6;" horiz-adv-x="893" 
d="M822 682v-104h-261v-175h251v-101h-251v-198h272v-104h-389v167h-233l-87 -167h-130l373 682h455zM426 578l-170 -321h188v321h-18z" />
    <glyph glyph-name="ordfeminine" unicode="&#xaa;" horiz-adv-x="384" 
d="M360 399v-70c-8 -4 -23 -7 -39 -7c-33 0 -63 19 -69 55c-24 -36 -67 -58 -112 -58c-72 0 -113 43 -113 103c0 75 69 132 218 145v4c0 45 -18 66 -58 66c-39 0 -63 -15 -69 -45h-78c10 69 69 112 148 112c86 0 140 -45 140 -143v-124c0 -29 5 -40 19 -40c5 0 9 1 13 2z
M245 483v21c-99 -10 -133 -43 -133 -75c0 -25 17 -41 48 -41c50 0 85 38 85 95z" />
    <glyph glyph-name="Lslash" unicode="&#x141;" horiz-adv-x="489" 
d="M8 170v101l67 48v363h118v-289l127 90v-102l-127 -89v-188h286v-104h-404v217z" />
    <glyph glyph-name="Oslash" unicode="&#xd8;" horiz-adv-x="793" 
d="M35 341c0 195 152 363 363 363c85 0 157 -25 213 -66l90 96l63 -58l-90 -97c55 -65 84 -150 84 -238c0 -199 -155 -363 -361 -363c-90 0 -161 24 -216 64l-90 -97l-64 57l91 99c-56 69 -83 157 -83 240zM152 341c0 -59 17 -111 46 -153l340 369c-39 28 -87 45 -141 45
c-138 0 -245 -111 -245 -261zM641 341c0 57 -17 110 -45 153l-339 -369c39 -29 86 -45 139 -45c139 0 245 112 245 261z" />
    <glyph glyph-name="OE" unicode="&#x152;" horiz-adv-x="1082" 
d="M1011 682v-104h-275v-175h265v-101h-265v-198h286v-104h-396v96c-59 -73 -141 -118 -238 -118c-244 0 -353 194 -353 363c0 195 148 363 354 363c102 0 181 -44 237 -114v92h385zM156 341c0 -147 103 -257 240 -257c134 0 237 110 237 257c0 144 -95 257 -236 257
c-137 0 -241 -109 -241 -257z" />
    <glyph glyph-name="ordmasculine" unicode="&#xba;" horiz-adv-x="448" 
d="M29 513c0 116 87 191 195 191c115 0 195 -83 195 -191c0 -109 -81 -192 -195 -192c-109 0 -195 76 -195 192zM119 512c0 -62 45 -110 105 -110c61 0 105 46 105 110c0 63 -44 111 -105 111c-58 0 -105 -38 -105 -111z" />
    <glyph glyph-name="ae" unicode="&#xe6;" horiz-adv-x="852" 
d="M586 495c165 0 231 -133 231 -251c0 -12 -1 -23 -2 -28h-353c1 -80 50 -145 132 -145c49 0 78 20 97 54h115c-35 -84 -103 -142 -211 -142c-95 0 -159 38 -196 105c-39 -56 -97 -105 -193 -105c-125 0 -172 72 -172 151c0 108 92 159 249 159h75v25c0 57 -38 94 -100 94
c-65 0 -96 -27 -101 -63h-104c5 72 69 146 201 146c89 0 141 -32 165 -78c37 47 94 78 167 78zM585 411c-75 0 -116 -56 -122 -118h242c-6 65 -47 118 -120 118zM358 216h-75c-105 0 -139 -32 -139 -80c0 -49 34 -69 74 -69c86 0 135 73 140 149z" />
    <glyph glyph-name="dotlessi" unicode="&#x131;" horiz-adv-x="242" 
d="M65 0v479h112v-479h-112z" />
    <glyph glyph-name="lslash" unicode="&#x142;" horiz-adv-x="264" 
d="M3 229v101l73 56v334h112v-254l73 57v-101l-73 -57v-365h-112v285z" />
    <glyph glyph-name="oslash" unicode="&#xf8;" horiz-adv-x="577" 
d="M32 240c0 148 111 255 256 255c53 0 100 -14 139 -38l63 71l58 -52l-62 -70c37 -44 58 -102 58 -166c0 -141 -107 -257 -256 -257c-52 0 -99 15 -138 39l-61 -70l-60 51l62 70c-37 45 -59 103 -59 167zM142 240c0 -34 9 -64 25 -89l199 226c-22 14 -48 22 -78 22
c-88 0 -146 -68 -146 -159zM435 240c0 32 -9 62 -24 88l-199 -226c22 -15 49 -23 76 -23c87 0 147 70 147 161z" />
    <glyph glyph-name="oe" unicode="&#x153;" horiz-adv-x="920" 
d="M32 240c0 148 107 255 246 255c85 0 152 -39 193 -100c37 60 99 100 184 100c152 -1 231 -125 231 -251c0 -10 -1 -22 -2 -32h-357c0 -75 57 -141 133 -141c47 0 76 20 100 54h115c-31 -73 -99 -142 -216 -142c-86 0 -150 39 -188 102c-41 -62 -109 -102 -193 -102
c-140 0 -246 112 -246 257zM146 240c0 -92 61 -157 136 -157c81 0 136 68 136 157c0 85 -52 156 -136 156c-82 0 -136 -67 -136 -156zM652 411c-72 0 -117 -58 -124 -120h246c-6 64 -53 120 -122 120z" />
    <glyph glyph-name="germandbls" unicode="&#xdf;" horiz-adv-x="620" 
d="M497 560c0 -57 -24 -98 -82 -128c-48 -25 -62 -42 -62 -62c0 -26 14 -43 91 -74c110 -44 140 -94 140 -162c0 -82 -58 -151 -178 -151c-117 0 -170 66 -178 152h104c6 -44 29 -70 78 -70c44 0 67 26 67 60c0 39 -23 61 -97 91c-102 41 -133 85 -133 147
c0 48 23 88 76 116c50 27 64 45 64 78c0 30 -19 78 -98 78c-77 0 -112 -45 -112 -134v-501h-112v504c0 151 90 221 226 221c126 0 206 -72 206 -165z" />
    <glyph glyph-name="logicalnot" unicode="&#xac;" horiz-adv-x="672" 
d="M595 104h-92v191h-427v90h519v-281z" />
    <glyph glyph-name="mu" unicode="&#xb5;" horiz-adv-x="570" 
d="M59 -213v692h112v-270c0 -79 33 -126 97 -126c70 0 112 50 112 145v251h113v-338c0 -37 8 -50 34 -50c7 0 16 2 22 3v-98c-14 -5 -35 -8 -52 -8c-67 0 -97 25 -108 77h-2c-34 -57 -82 -81 -134 -81c-30 0 -66 10 -90 28l-3 -2c9 -36 11 -81 11 -122v-101h-112z" />
    <glyph glyph-name="trademark" unicode="&#x2122;" horiz-adv-x="604" 
d="M510 682l17 -223h-63l-7 110c-1 22 -1 32 -1 43h-3c-3 -11 -4 -24 -10 -43l-36 -110h-48l-32 103c-8 24 -11 38 -13 50h-2c0 -11 0 -23 -2 -46l-7 -107h-64l19 223h86l30 -93c7 -21 9 -28 10 -35h1c3 10 5 18 11 36l29 92h85zM52 625v57h178v-57h-58v-166h-63v166h-57z
" />
    <glyph glyph-name="Eth" unicode="&#xd0;" horiz-adv-x="732" 
d="M15 305v94h80v283h228c246 0 374 -155 374 -341c0 -185 -136 -341 -376 -341h-226v305h-80zM213 103h108c173 0 255 109 255 238c0 139 -89 238 -255 238h-108v-180h169v-94h-169v-202z" />
    <glyph glyph-name="onehalf" unicode="&#xbd;" horiz-adv-x="971" 
d="M163 250v357h-68v77h160v-434h-92zM659 682h88l-461 -682h-89zM625 0v62l138 147c34 37 64 70 64 108c0 32 -22 53 -56 53c-39 0 -57 -25 -59 -64h-91c3 78 51 141 154 141c90 0 148 -55 148 -127c0 -55 -31 -95 -97 -164l-75 -77h178v-79h-304z" />
    <glyph glyph-name="plusminus" unicode="&#xb1;" horiz-adv-x="672" 
d="M594 0h-516v90h516v-90zM594 322h-213v-177h-91v177h-212v91h212v178h91v-178h213v-91z" />
    <glyph glyph-name="Thorn" unicode="&#xde;" horiz-adv-x="549" 
d="M70 0v682h118v-124h86c141 0 242 -67 242 -201c0 -133 -82 -210 -248 -210h-80v-147h-118zM396 355c0 63 -41 104 -121 104h-87v-213h84c90 0 124 45 124 109z" />
    <glyph glyph-name="onequarter" unicode="&#xbc;" horiz-adv-x="929" 
d="M163 250v357h-68v77h160v-434h-92zM659 682h88l-461 -682h-89zM901 75h-63v-75h-90v75h-200v67l202 292h88v-289h63v-70zM713 268l-86 -123h121v131c0 25 1 30 2 48h-3c-8 -16 -24 -41 -34 -56z" />
    <glyph glyph-name="divide" unicode="&#xf7;" horiz-adv-x="672" 
d="M594 219h-516v90h516v-90zM401 455c0 -39 -31 -64 -65 -64c-35 0 -65 30 -65 63c0 36 28 66 65 66c39 0 65 -28 65 -65zM401 74c0 -40 -31 -67 -64 -67c-36 0 -66 31 -66 66c0 34 28 64 65 64c39 0 65 -28 65 -63z" />
    <glyph glyph-name="brokenbar" unicode="&#xa6;" horiz-adv-x="376" 
d="M232 390h-89v300h89v-300zM232 -110h-89v300h89v-300z" />
    <glyph glyph-name="degree" unicode="&#xb0;" horiz-adv-x="369" 
d="M52 564c0 73 59 132 133 132c73 0 132 -59 132 -132s-59 -132 -132 -132c-74 0 -133 59 -133 132zM110 563c0 -42 33 -74 75 -74c41 0 74 32 74 74s-33 76 -74 76c-42 0 -75 -34 -75 -76z" />
    <glyph glyph-name="thorn" unicode="&#xfe;" horiz-adv-x="604" 
d="M65 -235v955h110v-302h3c31 36 78 76 165 76c122 0 228 -102 228 -256c0 -150 -105 -255 -235 -255c-74 0 -126 35 -158 75h-3v-293h-110zM457 239c0 80 -48 157 -146 157c-78 0 -141 -63 -141 -159c0 -93 66 -157 142 -157c97 0 145 80 145 159z" />
    <glyph glyph-name="threequarters" unicode="&#xbe;" horiz-adv-x="955" 
d="M139 569h-89c2 74 56 128 149 128c95 0 147 -47 147 -113c0 -48 -33 -84 -75 -95v-2c55 -13 90 -54 90 -112c0 -72 -54 -139 -164 -139c-103 0 -154 54 -161 139h90c5 -43 29 -66 72 -66s69 30 69 72c0 36 -24 67 -81 67h-30v69h28c43 0 68 22 68 55c0 29 -18 52 -56 52
c-39 0 -55 -27 -57 -55zM686 682h88l-461 -682h-89zM927 75h-63v-75h-90v75h-200v67l202 292h88v-289h63v-70zM739 268l-86 -123h121v131c0 25 1 30 2 48h-3c-8 -16 -24 -41 -34 -56z" />
    <glyph glyph-name="registered" unicode="&#xae;" horiz-adv-x="498" 
d="M35 488c0 119 97 216 215 216s214 -97 214 -216c0 -118 -96 -214 -214 -214s-215 96 -215 214zM80 488c0 -94 77 -169 170 -169c94 0 169 75 169 169s-75 170 -169 170c-93 0 -170 -76 -170 -170zM299 464l67 -89h-64l-60 83h-20v-83h-59v232h97c64 0 91 -35 91 -74
c0 -34 -22 -61 -52 -69zM291 531c0 17 -10 32 -42 32h-27v-63h27c29 0 42 11 42 31z" />
    <glyph glyph-name="minus" unicode="&#x2212;" horiz-adv-x="672" 
d="M594 219h-516v90h516v-90z" />
    <glyph glyph-name="eth" unicode="&#xf0;" horiz-adv-x="577" 
d="M185 513l-42 68l86 54c-34 32 -69 61 -102 85h131c16 -10 35 -24 56 -41l84 51l41 -68l-63 -39c100 -98 168 -221 168 -375c0 -146 -107 -265 -256 -265c-146 0 -256 112 -256 257c0 148 113 253 258 253c30 0 62 -8 85 -23l2 3c-23 32 -60 74 -91 103zM146 240
c0 -92 65 -157 142 -157c85 0 143 68 143 157c0 85 -54 156 -143 156c-86 0 -142 -67 -142 -156z" />
    <glyph glyph-name="multiply" unicode="&#xd7;" horiz-adv-x="672" 
d="M585 72l-64 -64l-186 188l-187 -190l-64 64l187 189l-187 187l64 64l186 -187l188 187l64 -64l-187 -187z" />
    <glyph glyph-name="copyright" unicode="&#xa9;" horiz-adv-x="822" 
d="M412 554c109 0 165 -76 180 -141h-89c-12 40 -46 63 -93 63c-67 0 -113 -50 -113 -130c0 -74 44 -130 117 -130c45 0 81 27 93 71h89c-22 -83 -89 -149 -184 -149c-121 0 -200 89 -200 210c0 119 86 206 200 206zM48 341c0 200 163 363 363 363c201 0 363 -163 363 -363
s-162 -363 -363 -363c-200 0 -363 163 -363 363zM106 341c0 -168 138 -305 305 -305c169 0 305 137 305 305s-136 305 -305 305c-167 0 -305 -137 -305 -305z" />
    <glyph glyph-name="Aacute" unicode="&#xc1;" horiz-adv-x="652" 
d="M10 0l271 682h108l259 -682h-123l-61 167h-272l-62 -167h-120zM287 431l-64 -174h210l-63 175c-14 38 -28 82 -38 118h-5c-11 -37 -26 -82 -40 -119zM427 902l41 -88l-190 -80l-33 71z" />
    <glyph glyph-name="Acircumflex" unicode="&#xc2;" horiz-adv-x="652" 
d="M10 0l271 682h108l259 -682h-123l-61 167h-272l-62 -167h-120zM287 431l-64 -174h210l-63 175c-14 38 -28 82 -38 118h-5c-11 -37 -26 -82 -40 -119zM334 897l155 -101l-32 -62l-123 59l-123 -59l-32 62z" />
    <glyph glyph-name="Adieresis" unicode="&#xc4;" horiz-adv-x="652" 
d="M10 0l271 682h108l259 -682h-123l-61 167h-272l-62 -167h-120zM287 431l-64 -174h210l-63 175c-14 38 -28 82 -38 118h-5c-11 -37 -26 -82 -40 -119zM191 773v102h105v-102h-105zM371 773v102h105v-102h-105z" />
    <glyph glyph-name="Agrave" unicode="&#xc0;" horiz-adv-x="652" 
d="M10 0l271 682h108l259 -682h-123l-61 167h-272l-62 -167h-120zM287 431l-64 -174h210l-63 175c-14 38 -28 82 -38 118h-5c-11 -37 -26 -82 -40 -119zM200 814l42 88l182 -97l-34 -71z" />
    <glyph glyph-name="Aring" unicode="&#xc5;" horiz-adv-x="652" 
d="M10 0l271 682h108l259 -682h-123l-61 167h-272l-62 -167h-120zM287 431l-64 -174h210l-63 175c-14 38 -28 82 -38 118h-5c-11 -37 -26 -82 -40 -119zM273 842c0 -34 28 -61 62 -61c33 0 59 27 59 61c0 33 -26 59 -59 59c-34 0 -62 -26 -62 -59zM208 842
c0 69 55 125 127 125c69 0 125 -56 125 -125c0 -71 -56 -127 -125 -127c-72 0 -127 56 -127 127z" />
    <glyph glyph-name="Atilde" unicode="&#xc3;" horiz-adv-x="652" 
d="M10 0l271 682h108l259 -682h-123l-61 167h-272l-62 -167h-120zM287 431l-64 -174h210l-63 175c-14 38 -28 82 -38 118h-5c-11 -37 -26 -82 -40 -119zM236 770h-71c4 73 34 128 102 128c29 0 49 -10 75 -30c25 -19 43 -28 60 -28c16 0 29 10 30 49h71
c-3 -83 -37 -128 -103 -128c-31 0 -56 10 -81 29c-27 21 -39 29 -53 29c-17 0 -28 -17 -30 -49z" />
    <glyph glyph-name="Ccedilla" unicode="&#xc7;" horiz-adv-x="764" 
d="M388 704c190 0 291 -119 320 -222h-129c-24 65 -91 120 -192 120c-127 0 -231 -99 -231 -260c0 -144 96 -262 235 -262c104 0 169 60 196 132h132c-46 -125 -142 -222 -302 -233l-7 -18c54 -9 86 -50 86 -97c0 -62 -41 -107 -124 -107c-37 0 -79 8 -106 17l24 67
c14 -6 49 -12 71 -12c32 0 52 10 52 34c0 27 -30 43 -94 43l29 74c-189 18 -313 167 -313 363c0 208 151 361 353 361z" />
    <glyph glyph-name="Eacute" unicode="&#xc9;" horiz-adv-x="535" 
d="M467 682v-104h-276v-175h266v-101h-266v-198h287v-104h-405v682h394zM359 902l41 -88l-190 -80l-33 71z" />
    <glyph glyph-name="Ecircumflex" unicode="&#xca;" horiz-adv-x="535" 
d="M467 682v-104h-276v-175h266v-101h-266v-198h287v-104h-405v682h394zM271 897l155 -101l-32 -62l-123 59l-123 -59l-32 62z" />
    <glyph glyph-name="Edieresis" unicode="&#xcb;" horiz-adv-x="535" 
d="M467 682v-104h-276v-175h266v-101h-266v-198h287v-104h-405v682h394zM127 773v102h105v-102h-105zM307 773v102h105v-102h-105z" />
    <glyph glyph-name="Egrave" unicode="&#xc8;" horiz-adv-x="535" 
d="M467 682v-104h-276v-175h266v-101h-266v-198h287v-104h-405v682h394zM141 814l42 88l182 -97l-34 -71z" />
    <glyph glyph-name="Iacute" unicode="&#xcd;" horiz-adv-x="259" 
d="M73 0v682h118v-682h-118zM225 902l41 -88l-190 -80l-33 71z" />
    <glyph glyph-name="Icircumflex" unicode="&#xce;" horiz-adv-x="259" 
d="M73 0v682h118v-682h-118zM132 897l155 -101l-32 -62l-123 59l-123 -59l-32 62z" />
    <glyph glyph-name="Idieresis" unicode="&#xcf;" horiz-adv-x="259" 
d="M73 0v682h118v-682h-118zM-10 773v102h105v-102h-105zM170 773v102h105v-102h-105z" />
    <glyph glyph-name="Igrave" unicode="&#xcc;" horiz-adv-x="259" 
d="M73 0v682h118v-682h-118zM-2 814l42 88l182 -97l-34 -71z" />
    <glyph glyph-name="Ntilde" unicode="&#xd1;" horiz-adv-x="675" 
d="M178 503h-3c1 -34 3 -102 3 -136v-367h-105v682h105l203 -308c70 -105 102 -160 122 -198h2c-1 36 -2 100 -2 133v373h104v-682h-104l-194 293c-84 127 -110 172 -131 210zM240 770h-71c4 73 34 128 102 128c29 0 49 -10 75 -30c25 -19 43 -28 60 -28c16 0 29 10 30 49
h71c-3 -83 -37 -128 -103 -128c-31 0 -56 10 -81 29c-27 21 -39 29 -53 29c-17 0 -28 -17 -30 -49z" />
    <glyph glyph-name="Oacute" unicode="&#xd3;" horiz-adv-x="793" 
d="M159 341c0 -147 104 -257 240 -257c137 0 241 110 241 257c0 144 -96 257 -240 257c-136 0 -241 -109 -241 -257zM38 341c0 195 152 363 363 363c224 0 360 -173 360 -363c0 -199 -155 -363 -361 -363c-250 0 -362 194 -362 363zM488 902l41 -88l-190 -80l-33 71z" />
    <glyph glyph-name="Ocircumflex" unicode="&#xd4;" horiz-adv-x="793" 
d="M159 341c0 -147 104 -257 240 -257c137 0 241 110 241 257c0 144 -96 257 -240 257c-136 0 -241 -109 -241 -257zM38 341c0 195 152 363 363 363c224 0 360 -173 360 -363c0 -199 -155 -363 -361 -363c-250 0 -362 194 -362 363zM402 897l155 -101l-32 -62l-123 59
l-123 -59l-32 62z" />
    <glyph glyph-name="Odieresis" unicode="&#xd6;" horiz-adv-x="793" 
d="M159 341c0 -147 104 -257 240 -257c137 0 241 110 241 257c0 144 -96 257 -240 257c-136 0 -241 -109 -241 -257zM38 341c0 195 152 363 363 363c224 0 360 -173 360 -363c0 -199 -155 -363 -361 -363c-250 0 -362 194 -362 363zM260 773v102h105v-102h-105zM440 773v102
h105v-102h-105z" />
    <glyph glyph-name="Ograve" unicode="&#xd2;" horiz-adv-x="793" 
d="M159 341c0 -147 104 -257 240 -257c137 0 241 110 241 257c0 144 -96 257 -240 257c-136 0 -241 -109 -241 -257zM38 341c0 195 152 363 363 363c224 0 360 -173 360 -363c0 -199 -155 -363 -361 -363c-250 0 -362 194 -362 363zM275 814l42 88l182 -97l-34 -71z" />
    <glyph glyph-name="Otilde" unicode="&#xd5;" horiz-adv-x="793" 
d="M159 341c0 -147 104 -257 240 -257c137 0 241 110 241 257c0 144 -96 257 -240 257c-136 0 -241 -109 -241 -257zM38 341c0 195 152 363 363 363c224 0 360 -173 360 -363c0 -199 -155 -363 -361 -363c-250 0 -362 194 -362 363zM304 770h-71c4 73 34 128 102 128
c29 0 49 -10 75 -30c25 -19 43 -28 60 -28c16 0 29 10 30 49h71c-3 -83 -37 -128 -103 -128c-31 0 -56 10 -81 29c-27 21 -39 29 -53 29c-17 0 -28 -17 -30 -49z" />
    <glyph glyph-name="Scaron" unicode="&#x160;" horiz-adv-x="555" 
d="M492 520h-116c-7 51 -41 86 -97 86c-55 0 -92 -35 -92 -85c0 -56 47 -84 122 -108c146 -46 197 -122 197 -225c0 -100 -72 -210 -224 -210c-127 0 -218 71 -236 206h120c11 -65 49 -108 117 -108c69 0 106 51 106 105c0 65 -41 101 -132 130c-131 42 -186 112 -186 209
c0 108 90 184 209 184c122 0 203 -76 212 -184zM275 734l-155 101l32 62l123 -59l124 59l31 -62z" />
    <glyph glyph-name="Uacute" unicode="&#xda;" horiz-adv-x="631" 
d="M316 -22c-135 0 -256 76 -256 293v411h118v-422c0 -109 51 -180 138 -180c101 0 137 77 137 180v422h117v-409c0 -214 -110 -295 -254 -295zM406 902l41 -88l-190 -80l-33 71z" />
    <glyph glyph-name="Ucircumflex" unicode="&#xdb;" horiz-adv-x="631" 
d="M316 -22c-135 0 -256 76 -256 293v411h118v-422c0 -109 51 -180 138 -180c101 0 137 77 137 180v422h117v-409c0 -214 -110 -295 -254 -295zM315 897l155 -101l-32 -62l-123 59l-123 -59l-32 62z" />
    <glyph glyph-name="Udieresis" unicode="&#xdc;" horiz-adv-x="631" 
d="M316 -22c-135 0 -256 76 -256 293v411h118v-422c0 -109 51 -180 138 -180c101 0 137 77 137 180v422h117v-409c0 -214 -110 -295 -254 -295zM173 773v102h105v-102h-105zM353 773v102h105v-102h-105z" />
    <glyph glyph-name="Ugrave" unicode="&#xd9;" horiz-adv-x="631" 
d="M316 -22c-135 0 -256 76 -256 293v411h118v-422c0 -109 51 -180 138 -180c101 0 137 77 137 180v422h117v-409c0 -214 -110 -295 -254 -295zM183 814l42 88l182 -97l-34 -71z" />
    <glyph glyph-name="Yacute" unicode="&#xdd;" horiz-adv-x="570" 
d="M230 0v274l-218 408h130l115 -223c15 -29 27 -55 36 -82h2c11 28 22 50 37 81l110 224h123l-217 -407v-275h-118zM384 902l41 -88l-190 -80l-33 71z" />
    <glyph glyph-name="Ydieresis" unicode="&#x178;" horiz-adv-x="570" 
d="M230 0v274l-218 408h130l115 -223c15 -29 27 -55 36 -82h2c11 28 22 50 37 81l110 224h123l-217 -407v-275h-118zM150 773v102h105v-102h-105zM330 773v102h105v-102h-105z" />
    <glyph glyph-name="Zcaron" unicode="&#x17d;" horiz-adv-x="612" 
d="M59 578v104h500v-98l-371 -480h387v-104h-533v97l371 481h-354zM300 734l-155 101l32 62l123 -59l124 59l31 -62z" />
    <glyph glyph-name="aacute" unicode="&#xe1;" horiz-adv-x="604" 
d="M541 479v-479h-109v61h-3c-33 -41 -85 -78 -164 -78c-108 0 -230 86 -230 257c0 152 108 254 238 254c80 0 128 -42 157 -80h2v65h109zM150 240c0 -80 46 -159 145 -159c74 0 142 64 142 156c0 97 -63 161 -141 161c-99 0 -146 -80 -146 -158zM209 616l148 142l62 -73
l-160 -129z" />
    <glyph glyph-name="acircumflex" unicode="&#xe2;" horiz-adv-x="604" 
d="M541 479v-479h-109v61h-3c-33 -41 -85 -78 -164 -78c-108 0 -230 86 -230 257c0 152 108 254 238 254c80 0 128 -42 157 -80h2v65h109zM150 240c0 -80 46 -159 145 -159c74 0 142 64 142 156c0 97 -63 161 -141 161c-99 0 -146 -80 -146 -158zM291 740l154 -127l-45 -59
l-109 79l-109 -79l-45 59z" />
    <glyph glyph-name="adieresis" unicode="&#xe4;" horiz-adv-x="604" 
d="M541 479v-479h-109v61h-3c-33 -41 -85 -78 -164 -78c-108 0 -230 86 -230 257c0 152 108 254 238 254c80 0 128 -42 157 -80h2v65h109zM150 240c0 -80 46 -159 145 -159c74 0 142 64 142 156c0 97 -63 161 -141 161c-99 0 -146 -80 -146 -158zM149 593v102h105v-102h-105
zM329 593v102h105v-102h-105z" />
    <glyph glyph-name="agrave" unicode="&#xe0;" horiz-adv-x="604" 
d="M541 479v-479h-109v61h-3c-33 -41 -85 -78 -164 -78c-108 0 -230 86 -230 257c0 152 108 254 238 254c80 0 128 -42 157 -80h2v65h109zM150 240c0 -80 46 -159 145 -159c74 0 142 64 142 156c0 97 -63 161 -141 161c-99 0 -146 -80 -146 -158zM163 685l63 73l147 -142
l-50 -60z" />
    <glyph glyph-name="aring" unicode="&#xe5;" horiz-adv-x="604" 
d="M541 479v-479h-109v61h-3c-33 -41 -85 -78 -164 -78c-108 0 -230 86 -230 257c0 152 108 254 238 254c80 0 128 -42 157 -80h2v65h109zM150 240c0 -80 46 -159 145 -159c74 0 142 64 142 156c0 97 -63 161 -141 161c-99 0 -146 -80 -146 -158zM231 657
c0 -34 28 -61 62 -61c33 0 59 27 59 61c0 33 -26 59 -59 59c-34 0 -62 -26 -62 -59zM166 657c0 69 55 125 127 125c69 0 125 -56 125 -125c0 -71 -56 -127 -125 -127c-72 0 -127 56 -127 127z" />
    <glyph glyph-name="atilde" unicode="&#xe3;" horiz-adv-x="604" 
d="M541 479v-479h-109v61h-3c-33 -41 -85 -78 -164 -78c-108 0 -230 86 -230 257c0 152 108 254 238 254c80 0 128 -42 157 -80h2v65h109zM150 240c0 -80 46 -159 145 -159c74 0 142 64 142 156c0 97 -63 161 -141 161c-99 0 -146 -80 -146 -158zM199 590h-71
c4 73 34 128 102 128c29 0 49 -10 75 -30c25 -19 43 -28 60 -28c16 0 29 10 30 49h71c-3 -83 -37 -128 -103 -128c-31 0 -56 10 -81 29c-27 21 -39 29 -53 29c-17 0 -28 -17 -30 -49z" />
    <glyph glyph-name="ccedilla" unicode="&#xe7;" horiz-adv-x="547" 
d="M287 495c137 0 206 -90 221 -160h-115c-15 38 -51 65 -107 65c-81 0 -139 -59 -139 -160c0 -91 56 -161 143 -161c62 0 94 35 110 72h116c-25 -82 -87 -157 -203 -167l-9 -23c54 -9 86 -50 86 -97c0 -62 -41 -107 -124 -107c-37 0 -79 8 -106 17l24 67
c14 -6 49 -12 71 -12c32 0 52 10 52 34c0 27 -30 43 -94 43l32 81c-118 17 -213 111 -213 254c0 140 98 254 255 254z" />
    <glyph glyph-name="eacute" unicode="&#xe9;" horiz-adv-x="551" 
d="M278 495c165 -1 241 -129 241 -251c0 -10 0 -23 -2 -33h-370c0 -75 66 -140 143 -140c49 0 82 20 107 54h115c-32 -73 -101 -142 -222 -142c-147 0 -255 108 -255 261c0 135 92 251 243 251zM278 411c-77 0 -124 -57 -130 -119h259c-7 64 -56 119 -129 119zM194 616
l148 142l62 -73l-160 -129z" />
    <glyph glyph-name="ecircumflex" unicode="&#xea;" horiz-adv-x="551" 
d="M278 495c165 -1 241 -129 241 -251c0 -10 0 -23 -2 -33h-370c0 -75 66 -140 143 -140c49 0 82 20 107 54h115c-32 -73 -101 -142 -222 -142c-147 0 -255 108 -255 261c0 135 92 251 243 251zM278 411c-77 0 -124 -57 -130 -119h259c-7 64 -56 119 -129 119zM276 740
l154 -127l-45 -59l-109 79l-109 -79l-45 59z" />
    <glyph glyph-name="edieresis" unicode="&#xeb;" horiz-adv-x="551" 
d="M278 495c165 -1 241 -129 241 -251c0 -10 0 -23 -2 -33h-370c0 -75 66 -140 143 -140c49 0 82 20 107 54h115c-32 -73 -101 -142 -222 -142c-147 0 -255 108 -255 261c0 135 92 251 243 251zM278 411c-77 0 -124 -57 -130 -119h259c-7 64 -56 119 -129 119zM134 593v102
h105v-102h-105zM314 593v102h105v-102h-105z" />
    <glyph glyph-name="egrave" unicode="&#xe8;" horiz-adv-x="551" 
d="M278 495c165 -1 241 -129 241 -251c0 -10 0 -23 -2 -33h-370c0 -75 66 -140 143 -140c49 0 82 20 107 54h115c-32 -73 -101 -142 -222 -142c-147 0 -255 108 -255 261c0 135 92 251 243 251zM278 411c-77 0 -124 -57 -130 -119h259c-7 64 -56 119 -129 119zM148 685
l63 73l147 -142l-50 -60z" />
    <glyph glyph-name="iacute" unicode="&#xed;" horiz-adv-x="242" 
d="M68 0v479h112v-479h-112zM42 616l148 142l62 -73l-160 -129z" />
    <glyph glyph-name="icircumflex" unicode="&#xee;" horiz-adv-x="242" 
d="M68 0v479h112v-479h-112zM124 740l154 -127l-45 -59l-109 79l-109 -79l-45 59z" />
    <glyph glyph-name="idieresis" unicode="&#xef;" horiz-adv-x="242" 
d="M68 0v479h112v-479h-112zM-18 593v102h105v-102h-105zM162 593v102h105v-102h-105z" />
    <glyph glyph-name="igrave" unicode="&#xec;" horiz-adv-x="242" 
d="M68 0v479h112v-479h-112zM-4 685l63 73l147 -142l-50 -60z" />
    <glyph glyph-name="ntilde" unicode="&#xf1;" horiz-adv-x="569" 
d="M68 0v479h111v-60h2c38 54 93 76 146 76c99 0 186 -65 186 -219v-276h-112v270c0 82 -39 126 -103 126c-70 0 -118 -49 -118 -142v-254h-112zM198 590h-71c4 73 34 128 102 128c29 0 49 -10 75 -30c25 -19 43 -28 60 -28c16 0 29 10 30 49h71c-3 -83 -37 -128 -103 -128
c-31 0 -56 10 -81 29c-27 21 -39 29 -53 29c-17 0 -28 -17 -30 -49z" />
    <glyph glyph-name="oacute" unicode="&#xf3;" horiz-adv-x="577" 
d="M35 240c0 148 111 255 256 255c150 0 256 -110 256 -255c0 -141 -107 -257 -256 -257c-146 0 -256 112 -256 257zM149 240c0 -92 65 -157 142 -157c85 0 143 68 143 157c0 85 -54 156 -143 156c-86 0 -142 -67 -142 -156zM201 616l148 142l62 -73l-160 -129z" />
    <glyph glyph-name="ocircumflex" unicode="&#xf4;" horiz-adv-x="577" 
d="M35 240c0 148 111 255 256 255c150 0 256 -110 256 -255c0 -141 -107 -257 -256 -257c-146 0 -256 112 -256 257zM149 240c0 -92 65 -157 142 -157c85 0 143 68 143 157c0 85 -54 156 -143 156c-86 0 -142 -67 -142 -156zM291 740l154 -127l-45 -59l-109 79l-109 -79
l-45 59z" />
    <glyph glyph-name="odieresis" unicode="&#xf6;" horiz-adv-x="577" 
d="M35 240c0 148 111 255 256 255c150 0 256 -110 256 -255c0 -141 -107 -257 -256 -257c-146 0 -256 112 -256 257zM149 240c0 -92 65 -157 142 -157c85 0 143 68 143 157c0 85 -54 156 -143 156c-86 0 -142 -67 -142 -156zM149 593v102h105v-102h-105zM329 593v102h105
v-102h-105z" />
    <glyph glyph-name="ograve" unicode="&#xf2;" horiz-adv-x="577" 
d="M35 240c0 148 111 255 256 255c150 0 256 -110 256 -255c0 -141 -107 -257 -256 -257c-146 0 -256 112 -256 257zM149 240c0 -92 65 -157 142 -157c85 0 143 68 143 157c0 85 -54 156 -143 156c-86 0 -142 -67 -142 -156zM172 685l63 73l147 -142l-50 -60z" />
    <glyph glyph-name="otilde" unicode="&#xf5;" horiz-adv-x="577" 
d="M35 240c0 148 111 255 256 255c150 0 256 -110 256 -255c0 -141 -107 -257 -256 -257c-146 0 -256 112 -256 257zM149 240c0 -92 65 -157 142 -157c85 0 143 68 143 157c0 85 -54 156 -143 156c-86 0 -142 -67 -142 -156zM193 590h-71c4 73 34 128 102 128
c29 0 49 -10 75 -30c25 -19 43 -28 60 -28c16 0 29 10 30 49h71c-3 -83 -37 -128 -103 -128c-31 0 -56 10 -81 29c-27 21 -39 29 -53 29c-17 0 -28 -17 -30 -49z" />
    <glyph glyph-name="scaron" unicode="&#x161;" horiz-adv-x="434" 
d="M391 356h-103c-5 35 -31 58 -64 58c-39 0 -60 -24 -60 -51c0 -29 15 -49 98 -77c103 -33 139 -86 139 -153c0 -88 -66 -150 -176 -150c-115 0 -171 63 -180 152h104c5 -40 29 -70 79 -70c42 0 66 26 66 59c0 36 -21 59 -100 86c-90 29 -135 74 -135 148
c0 79 62 137 163 137c103 0 157 -61 169 -139zM220 554l-154 127l45 59l109 -79l109 79l45 -59z" />
    <glyph glyph-name="uacute" unicode="&#xfa;" horiz-adv-x="557" 
d="M496 479v-479h-111v59h-3c-40 -56 -91 -75 -142 -75c-81 0 -178 50 -178 212v283h112v-270c0 -81 39 -126 98 -126c68 0 112 48 112 141v255h112zM198 616l148 142l62 -73l-160 -129z" />
    <glyph glyph-name="ucircumflex" unicode="&#xfb;" horiz-adv-x="557" 
d="M496 479v-479h-111v59h-3c-40 -56 -91 -75 -142 -75c-81 0 -178 50 -178 212v283h112v-270c0 -81 39 -126 98 -126c68 0 112 48 112 141v255h112zM280 740l154 -127l-45 -59l-109 79l-109 -79l-45 59z" />
    <glyph glyph-name="udieresis" unicode="&#xfc;" horiz-adv-x="557" 
d="M496 479v-479h-111v59h-3c-40 -56 -91 -75 -142 -75c-81 0 -178 50 -178 212v283h112v-270c0 -81 39 -126 98 -126c68 0 112 48 112 141v255h112zM138 593v102h105v-102h-105zM318 593v102h105v-102h-105z" />
    <glyph glyph-name="ugrave" unicode="&#xf9;" horiz-adv-x="557" 
d="M496 479v-479h-111v59h-3c-40 -56 -91 -75 -142 -75c-81 0 -178 50 -178 212v283h112v-270c0 -81 39 -126 98 -126c68 0 112 48 112 141v255h112zM152 685l63 73l147 -142l-50 -60z" />
    <glyph glyph-name="yacute" unicode="&#xfd;" horiz-adv-x="452" 
d="M459 479l-263 -714h-107l88 237l-175 477h115l83 -238c10 -30 26 -77 32 -110h3c10 40 19 71 32 110l81 238h111zM152 616l148 142l62 -73l-160 -129z" />
    <glyph glyph-name="ydieresis" unicode="&#xff;" horiz-adv-x="452" 
d="M459 479l-263 -714h-107l88 237l-175 477h115l83 -238c10 -30 26 -77 32 -110h3c10 40 19 71 32 110l81 238h111zM92 593v102h105v-102h-105zM272 593v102h105v-102h-105z" />
    <glyph glyph-name="zcaron" unicode="&#x17e;" horiz-adv-x="484" 
d="M51 386v93h387v-89l-257 -297h269v-93h-411v89l258 297h-246zM238 554l-154 127l45 59l109 -79l109 79l45 -59z" />
    <glyph glyph-name="dollar.oldstyle" horiz-adv-x="518" 
d="M216 625h90v-67c84 -15 136 -69 141 -141h-102c-4 44 -39 67 -87 67c-57 0 -81 -29 -81 -62c0 -38 19 -54 121 -88c111 -37 164 -91 164 -174c0 -77 -55 -142 -156 -157v-74h-90v73c-102 13 -156 71 -159 157h102c4 -51 36 -82 103 -82c57 0 92 30 92 76
c0 51 -36 74 -114 100c-118 39 -170 86 -170 164c0 76 58 129 146 142v66z" />
    <glyph glyph-name="zero.oldstyle" horiz-adv-x="631" 
d="M29 256c0 160 125 278 286 278c167 0 287 -121 287 -278c0 -155 -121 -280 -287 -280c-162 0 -286 122 -286 280zM147 255c0 -104 76 -177 169 -177c101 0 168 75 168 177c0 98 -63 178 -168 178c-103 0 -169 -75 -169 -178z" />
    <glyph glyph-name="one.oldstyle" horiz-adv-x="384" 
d="M157 0v409h-120v103h235v-512h-115z" />
    <glyph glyph-name="two.oldstyle" horiz-adv-x="551" 
d="M54 0v85l191 125c88 59 112 89 112 139c0 48 -29 84 -84 84s-90 -33 -92 -88h-117c6 110 75 189 211 189c129 0 202 -79 202 -170c0 -80 -32 -134 -135 -202l-96 -63h263v-99h-455z" />
    <glyph glyph-name="three.oldstyle" horiz-adv-x="557" 
d="M183 347h-114c3 114 85 186 202 186c127 0 204 -76 204 -176c0 -68 -42 -118 -97 -137v-3c88 -26 135 -96 135 -191c0 -128 -105 -223 -243 -223c-140 0 -229 85 -239 210h114c7 -68 59 -113 124 -113c69 0 126 49 126 129c0 79 -54 131 -141 131h-40v95h43
c61 0 100 36 100 92c0 49 -33 88 -87 88c-53 0 -85 -39 -87 -88z" />
    <glyph glyph-name="four.oldstyle" horiz-adv-x="601" 
d="M564 21h-94v-195h-112v195h-325v92l332 399h105v-392h94v-99zM303 301l-152 -181h207v185c0 40 1 50 2 76h-3c-12 -25 -36 -58 -54 -80z" />
    <glyph glyph-name="five.oldstyle" horiz-adv-x="550" 
d="M248 169c-62 0 -121 -12 -169 -26l37 369h358v-103h-256l-17 -150c13 3 43 9 76 9c154 0 243 -92 243 -229c0 -126 -94 -236 -236 -236c-151 0 -227 97 -236 217h115c5 -66 44 -118 120 -118c63 0 119 50 119 134c0 82 -56 133 -154 133z" />
    <glyph glyph-name="six.oldstyle" horiz-adv-x="586" 
d="M38 225c0 83 37 150 84 218l171 239h128l-158 -219c13 5 38 8 56 8c122 0 229 -101 229 -246c0 -136 -108 -247 -256 -247c-149 0 -254 103 -254 247zM156 224c0 -84 60 -145 136 -145c79 0 138 61 138 145c0 83 -55 147 -138 147c-80 0 -136 -60 -136 -147z" />
    <glyph glyph-name="seven.oldstyle" horiz-adv-x="536" 
d="M486 512v-94l-285 -592h-126l290 583h-322v103h443z" />
    <glyph glyph-name="eight.oldstyle" horiz-adv-x="588" 
d="M86 524c0 106 85 180 208 180c124 0 207 -74 207 -180c0 -62 -35 -114 -84 -137v-2c74 -28 124 -100 124 -185c0 -132 -95 -224 -247 -224c-151 0 -248 90 -248 224c0 85 52 156 124 185v2c-48 23 -84 75 -84 137zM165 206c0 -85 65 -132 129 -132c69 0 128 48 128 132
c0 72 -54 129 -128 129c-76 0 -129 -57 -129 -129zM201 516c0 -53 39 -90 93 -90c55 0 92 38 92 91c0 52 -38 90 -92 90c-53 0 -93 -37 -93 -91z" />
    <glyph glyph-name="nine.oldstyle" horiz-adv-x="586" 
d="M548 287c0 -83 -39 -160 -107 -249l-158 -212h-128l168 223c-13 -5 -39 -8 -58 -8c-133 3 -227 108 -227 246c0 136 108 247 256 247c149 0 254 -103 254 -247zM430 288c0 84 -60 145 -136 145c-79 0 -138 -61 -138 -145c0 -83 55 -147 138 -147c80 0 136 60 136 147z
" />
    <glyph glyph-name="cent.oldstyle" horiz-adv-x="532" 
d="M316 -77h-84v104c-108 17 -188 101 -188 230c0 113 69 208 188 226v88h84v-87c98 -15 156 -86 172 -165h-107c-11 35 -33 59 -65 69v-266c35 12 59 39 69 78h107c-21 -84 -80 -156 -176 -173v-104zM154 256c0 -64 27 -115 78 -133v265c-49 -16 -78 -64 -78 -132z" />
    <glyph glyph-name="oneeighth" unicode="&#x215b;" horiz-adv-x="971" 
d="M163 250v357h-68v77h160v-434h-92zM659 682h88l-461 -682h-89zM707 321c0 -38 28 -62 63 -62c38 0 64 25 64 62s-28 59 -64 59s-63 -22 -63 -59zM698 127c0 -44 29 -72 74 -72c42 0 73 27 73 72c0 43 -31 73 -73 73c-43 0 -74 -29 -74 -73zM931 121
c0 -71 -52 -135 -160 -135s-161 59 -161 133c0 55 29 95 78 114v1c-41 17 -65 51 -65 93c0 68 55 120 148 120c91 0 146 -51 146 -114c0 -47 -26 -83 -66 -97v-2c53 -19 80 -59 80 -113z" />
    <glyph glyph-name="threeeighths" unicode="&#x215c;" horiz-adv-x="998" 
d="M139 569h-89c2 74 56 128 149 128c95 0 147 -47 147 -113c0 -48 -33 -84 -75 -95v-2c55 -13 90 -54 90 -112c0 -72 -54 -139 -164 -139c-103 0 -154 54 -161 139h90c5 -43 29 -66 72 -66s69 30 69 72c0 36 -24 67 -81 67h-30v69h28c43 0 68 22 68 55c0 29 -18 52 -56 52
c-39 0 -55 -27 -57 -55zM686 682h88l-461 -682h-89zM733 321c0 -38 28 -62 63 -62c38 0 64 25 64 62s-28 59 -64 59s-63 -22 -63 -59zM724 127c0 -44 29 -72 74 -72c42 0 73 27 73 72c0 43 -31 73 -73 73c-43 0 -74 -29 -74 -73zM957 121c0 -71 -52 -135 -160 -135
s-161 59 -161 133c0 55 29 95 78 114v1c-41 17 -65 51 -65 93c0 68 55 120 148 120c91 0 146 -51 146 -114c0 -47 -26 -83 -66 -97v-2c53 -19 80 -59 80 -113z" />
    <glyph glyph-name="fiveeighths" unicode="&#x215d;" horiz-adv-x="998" 
d="M169 606l-9 -74c8 2 26 4 37 4c97 0 157 -60 157 -148c0 -78 -57 -152 -159 -152s-150 61 -155 130h93c2 -30 23 -51 62 -51c35 0 61 27 61 69c0 47 -27 76 -88 76c-32 0 -65 -4 -100 -12l22 236h230v-78h-151zM686 682h88l-461 -682h-89zM733 321c0 -38 28 -62 63 -62
c38 0 64 25 64 62s-28 59 -64 59s-63 -22 -63 -59zM724 127c0 -44 29 -72 74 -72c42 0 73 27 73 72c0 43 -31 73 -73 73c-43 0 -74 -29 -74 -73zM957 121c0 -71 -52 -135 -160 -135s-161 59 -161 133c0 55 29 95 78 114v1c-41 17 -65 51 -65 93c0 68 55 120 148 120
c91 0 146 -51 146 -114c0 -47 -26 -83 -66 -97v-2c53 -19 80 -59 80 -113z" />
    <glyph glyph-name="seveneighths" unicode="&#x215e;" horiz-adv-x="952" 
d="M351 684v-70l-172 -364h-101l176 356h-201v78h298zM637 682h88l-461 -682h-89zM688 321c0 -38 28 -62 63 -62c38 0 64 25 64 62s-28 59 -64 59s-63 -22 -63 -59zM679 127c0 -44 29 -72 74 -72c42 0 73 27 73 72c0 43 -31 73 -73 73c-43 0 -74 -29 -74 -73zM912 121
c0 -71 -52 -135 -160 -135s-161 59 -161 133c0 55 29 95 78 114v1c-41 17 -65 51 -65 93c0 68 55 120 148 120c91 0 146 -51 146 -114c0 -47 -26 -83 -66 -97v-2c53 -19 80 -59 80 -113z" />
    <glyph glyph-name="onethird" unicode="&#x2153;" horiz-adv-x="971" 
d="M163 250v357h-68v77h160v-434h-92zM659 682h88l-461 -682h-89zM708 319h-89c2 74 56 128 149 128c95 0 147 -47 147 -113c0 -48 -33 -84 -75 -95v-2c55 -13 90 -54 90 -112c0 -72 -54 -139 -164 -139c-103 0 -154 54 -161 139h90c5 -43 29 -66 72 -66s69 30 69 72
c0 36 -24 67 -81 67h-30v69h28c43 0 68 22 68 55c0 29 -18 52 -56 52c-39 0 -55 -27 -57 -55z" />
    <glyph glyph-name="twothirds" unicode="&#x2154;" horiz-adv-x="1005" 
d="M56 250v62l138 147c34 37 64 70 64 108c0 32 -22 53 -56 53c-39 0 -57 -25 -59 -64h-91c3 78 51 141 154 141c90 0 148 -55 148 -127c0 -55 -31 -95 -97 -164l-75 -77h178v-79h-304zM693 682h88l-461 -682h-89zM741 319h-89c2 74 56 128 149 128c95 0 147 -47 147 -113
c0 -48 -33 -84 -75 -95v-2c55 -13 90 -54 90 -112c0 -72 -54 -139 -164 -139c-103 0 -154 54 -161 139h90c5 -43 29 -66 72 -66s69 30 69 72c0 36 -24 67 -81 67h-30v69h28c43 0 68 22 68 55c0 29 -18 52 -56 52c-39 0 -55 -27 -57 -55z" />
    <glyph glyph-name="zero.superior" unicode="&#x2070;" 
d="M28 646c0 166 90 226 178 226c79 0 170 -52 170 -226c0 -191 -106 -236 -174 -236c-81 0 -174 52 -174 236zM281 644c0 105 -32 151 -79 151c-40 0 -79 -37 -79 -147c0 -118 35 -160 80 -160c38 0 78 38 78 156z" />
    <glyph glyph-name="four.superior" unicode="&#x2074;" 
d="M375 500h-63v-75h-90v75h-200v67l202 292h88v-289h63v-70zM187 693l-87 -123h122v131c0 25 1 31 2 49h-3c-8 -17 -24 -41 -34 -57z" />
    <glyph glyph-name="five.superior" unicode="&#x2075;" 
d="M169 781l-9 -74c8 2 26 4 37 4c97 0 157 -60 157 -148c0 -78 -57 -152 -159 -152s-150 61 -155 130h93c2 -30 23 -51 62 -51c35 0 61 27 61 69c0 47 -27 76 -88 76c-32 0 -65 -4 -100 -12l22 236h230v-78h-151z" />
    <glyph glyph-name="six.superior" unicode="&#x2076;" 
d="M29 569c0 57 23 104 63 154l112 136h97l-110 -136c8 3 25 4 34 4c89 -4 149 -70 149 -158c0 -85 -66 -158 -174 -158c-105 0 -171 68 -171 158zM120 569c0 -50 36 -82 81 -82c46 0 82 33 82 82c0 48 -34 84 -82 84c-47 0 -81 -35 -81 -84z" />
    <glyph glyph-name="seven.superior" unicode="&#x2077;" 
d="M351 859v-70l-172 -364h-101l176 356h-201v78h298z" />
    <glyph glyph-name="eight.superior" unicode="&#x2078;" 
d="M138 746c0 -38 28 -62 63 -62c38 0 64 25 64 62s-28 59 -64 59s-63 -22 -63 -59zM129 552c0 -44 29 -72 74 -72c42 0 73 27 73 72c0 43 -31 73 -73 73c-43 0 -74 -29 -74 -73zM362 546c0 -71 -52 -135 -160 -135s-161 59 -161 133c0 55 29 95 78 114v1
c-41 17 -65 51 -65 93c0 68 55 120 148 120c91 0 146 -51 146 -114c0 -47 -26 -83 -66 -97v-2c53 -19 80 -59 80 -113z" />
    <glyph glyph-name="nine.superior" unicode="&#x2079;" 
d="M374 714c0 -56 -26 -105 -63 -153l-112 -136h-97l110 136c-9 -3 -24 -4 -34 -4c-91 3 -149 69 -149 157s70 158 174 158c103 0 171 -64 171 -158zM284 715c0 51 -38 82 -82 82c-47 0 -82 -31 -82 -82c0 -50 34 -84 82 -84c47 0 82 31 82 84z" />
    <glyph glyph-name="zero.inferior" unicode="&#x2080;" 
d="M28 46c0 166 90 226 178 226c79 0 170 -52 170 -226c0 -191 -106 -236 -174 -236c-81 0 -174 52 -174 236zM281 44c0 105 -32 151 -79 151c-40 0 -79 -37 -79 -147c0 -118 35 -160 80 -160c38 0 78 38 78 156z" />
    <glyph glyph-name="one.inferior" unicode="&#x2081;" 
d="M163 -175v357h-68v77h160v-434h-92z" />
    <glyph glyph-name="two.inferior" unicode="&#x2082;" 
d="M56 -175v62l138 147c34 37 64 70 64 108c0 32 -22 53 -56 53c-39 0 -57 -25 -59 -64h-91c3 78 51 141 154 141c90 0 148 -55 148 -127c0 -55 -31 -95 -97 -164l-75 -77h178v-79h-304z" />
    <glyph glyph-name="three.inferior" unicode="&#x2083;" 
d="M139 144h-89c2 74 56 128 149 128c95 0 147 -47 147 -113c0 -48 -33 -84 -75 -95v-2c55 -13 90 -54 90 -112c0 -72 -54 -139 -164 -139c-103 0 -154 54 -161 139h90c5 -43 29 -66 72 -66s69 30 69 72c0 36 -24 67 -81 67h-30v69h28c43 0 68 22 68 55c0 29 -18 52 -56 52
c-39 0 -55 -27 -57 -55z" />
    <glyph glyph-name="four.inferior" unicode="&#x2084;" 
d="M375 -100h-63v-75h-90v75h-200v67l202 292h88v-289h63v-70zM187 93l-86 -123h121v131c0 25 1 30 2 48h-3c-8 -16 -24 -41 -34 -56z" />
    <glyph glyph-name="five.inferior" unicode="&#x2085;" 
d="M169 181l-9 -74c8 2 26 4 37 4c97 0 157 -60 157 -148c0 -78 -57 -152 -159 -152s-150 61 -155 130h93c2 -30 23 -51 62 -51c35 0 61 27 61 69c0 47 -27 76 -88 76c-32 0 -65 -4 -100 -12l22 236h230v-78h-151z" />
    <glyph glyph-name="six.inferior" unicode="&#x2086;" 
d="M29 -31c0 57 23 104 63 154l112 136h97l-110 -136c8 3 25 4 34 4c89 -4 149 -70 149 -158c0 -85 -66 -158 -174 -158c-105 0 -171 68 -171 158zM120 -31c0 -50 36 -82 81 -82c46 0 82 33 82 82c0 48 -34 84 -82 84c-47 0 -81 -35 -81 -84z" />
    <glyph glyph-name="seven.inferior" unicode="&#x2087;" 
d="M351 259v-70l-172 -364h-101l176 356h-201v78h298z" />
    <glyph glyph-name="eight.inferior" unicode="&#x2088;" 
d="M138 146c0 -38 28 -62 63 -62c38 0 64 25 64 62s-28 59 -64 59s-63 -22 -63 -59zM129 -48c0 -44 29 -72 74 -72c42 0 73 27 73 72c0 43 -31 73 -73 73c-43 0 -74 -29 -74 -73zM362 -54c0 -71 -52 -135 -160 -135s-161 59 -161 133c0 55 29 95 78 114v1
c-41 17 -65 51 -65 93c0 68 55 120 148 120c91 0 146 -51 146 -114c0 -47 -26 -83 -66 -97v-2c53 -19 80 -59 80 -113z" />
    <glyph glyph-name="nine.inferior" unicode="&#x2089;" 
d="M374 114c0 -56 -26 -105 -63 -153l-112 -136h-97l110 136c-9 -3 -24 -4 -34 -4c-91 3 -149 69 -149 157s70 158 174 158c103 0 171 -64 171 -158zM284 115c0 51 -38 82 -82 82c-47 0 -82 -31 -82 -82c0 -50 34 -84 82 -84c47 0 82 31 82 84z" />
    <glyph glyph-name="commaaccent" horiz-adv-x="324" 
d="M108 -153v91h106v-55c0 -48 -15 -94 -34 -122h-57c16 23 25 57 26 86h-41z" />
    <glyph glyph-name="Abreve" unicode="&#x102;" horiz-adv-x="652" 
d="M7 0l271 682h108l259 -682h-123l-61 167h-272l-62 -167h-120zM284 431l-64 -174h210l-63 175c-14 38 -28 82 -38 118h-5c-11 -37 -26 -82 -40 -119zM414 886h80c-5 -84 -71 -139 -163 -139c-103 0 -159 60 -162 139h79c3 -35 33 -58 83 -58c53 0 81 25 83 58z" />
    <glyph glyph-name="Amacron" unicode="&#x100;" horiz-adv-x="652" 
d="M7 0l271 682h108l259 -682h-123l-61 167h-272l-62 -167h-120zM284 431l-64 -174h210l-63 175c-14 38 -28 82 -38 118h-5c-11 -37 -26 -82 -40 -119zM481 777h-282v80h282v-80z" />
    <glyph glyph-name="Aogonek" unicode="&#x104;" horiz-adv-x="652" 
d="M645 -135v-80c-15 -4 -38 -7 -58 -7c-84 0 -118 50 -118 109c0 48 29 89 73 113h-20l-61 167h-272l-62 -167h-120l271 682h108l259 -682h-5c-41 0 -82 -41 -82 -93c0 -32 21 -46 49 -46c12 0 25 1 38 4zM284 431l-64 -174h210l-60 167c-16 44 -31 90 -41 126h-5
c-11 -37 -26 -82 -40 -119z" />
    <glyph glyph-name="Cacute" unicode="&#x106;" horiz-adv-x="764" 
d="M388 704c190 0 291 -119 320 -222h-129c-24 65 -91 120 -192 120c-127 0 -231 -99 -231 -260c0 -144 96 -262 235 -262c104 0 169 60 196 132h132c-49 -133 -154 -234 -332 -234c-211 0 -352 157 -352 365s151 361 353 361zM484 902l41 -88l-190 -80l-33 71z" />
    <glyph glyph-name="Ccaron" unicode="&#x10c;" horiz-adv-x="764" 
d="M388 704c190 0 291 -119 320 -222h-129c-24 65 -91 120 -192 120c-127 0 -231 -99 -231 -260c0 -144 96 -262 235 -262c104 0 169 60 196 132h132c-49 -133 -154 -234 -332 -234c-211 0 -352 157 -352 365s151 361 353 361zM389 734l-155 101l32 62l123 -59l124 59
l31 -62z" />
    <glyph glyph-name="Ccircumflex" unicode="&#x108;" horiz-adv-x="764" 
d="M388 704c190 0 291 -119 320 -222h-129c-24 65 -91 120 -192 120c-127 0 -231 -99 -231 -260c0 -144 96 -262 235 -262c104 0 169 60 196 132h132c-49 -133 -154 -234 -332 -234c-211 0 -352 157 -352 365s151 361 353 361zM388 897l155 -101l-32 -62l-123 59l-123 -59
l-32 62z" />
    <glyph glyph-name="Cdotaccent" unicode="&#x10a;" horiz-adv-x="764" 
d="M388 704c190 0 291 -119 320 -222h-129c-24 65 -91 120 -192 120c-127 0 -231 -99 -231 -260c0 -144 96 -262 235 -262c104 0 169 60 196 132h132c-49 -133 -154 -234 -332 -234c-211 0 -352 157 -352 365s151 361 353 361zM334 773v104h108v-104h-108z" />
    <glyph glyph-name="Dcaron" unicode="&#x10e;" horiz-adv-x="708" 
d="M71 682h228c246 0 374 -155 374 -341c0 -185 -136 -341 -376 -341h-226v682zM189 105h108c173 0 255 107 255 236c0 139 -88 236 -255 236h-108v-472zM303 734l-155 101l32 62l123 -59l124 59l31 -62z" />
    <glyph glyph-name="Dcroat" unicode="&#x110;" horiz-adv-x="732" 
d="M15 305v94h80v283h228c246 0 374 -155 374 -341c0 -185 -136 -341 -376 -341h-226v305h-80zM213 103h108c173 0 255 109 255 238c0 139 -89 238 -255 238h-108v-180h169v-94h-169v-202z" />
    <glyph glyph-name="Ebreve" unicode="&#x114;" horiz-adv-x="535" 
d="M464 682v-104h-276v-175h266v-101h-266v-198h287v-104h-405v682h394zM347 886h80c-5 -84 -71 -139 -163 -139c-103 0 -159 60 -162 139h79c3 -35 33 -58 83 -58c53 0 81 25 83 58z" />
    <glyph glyph-name="Ecaron" unicode="&#x11a;" horiz-adv-x="535" 
d="M464 682v-104h-276v-175h266v-101h-266v-198h287v-104h-405v682h394zM266 734l-155 101l32 62l123 -59l124 59l31 -62z" />
    <glyph glyph-name="Edotaccent" unicode="&#x116;" horiz-adv-x="535" 
d="M464 682v-104h-276v-175h266v-101h-266v-198h287v-104h-405v682h394zM212 773v104h108v-104h-108z" />
    <glyph glyph-name="Emacron" unicode="&#x112;" horiz-adv-x="535" 
d="M464 682v-104h-276v-175h266v-101h-266v-198h287v-104h-405v682h394zM414 777h-282v80h282v-80z" />
    <glyph glyph-name="Eng" unicode="&#x14a;" horiz-adv-x="675" 
d="M175 503h-3c1 -34 3 -102 3 -136v-367h-105v682h105l203 -308c70 -105 102 -160 122 -198h2c-1 36 -2 100 -2 133v373h104v-701c0 -140 -66 -202 -172 -202c-40 0 -68 7 -89 14v91c12 -4 45 -12 74 -12c60 0 83 41 83 99v29l-194 293c-84 127 -110 172 -131 210z" />
    <glyph glyph-name="Eogonek" unicode="&#x118;" horiz-adv-x="535" 
d="M454 -135v-80c-16 -4 -39 -7 -59 -7c-83 0 -118 50 -118 109c0 42 28 88 73 113h-280v682h394v-104h-276v-175h266v-101h-266v-198h287v-104h-24c-40 0 -84 -38 -84 -93c0 -32 20 -46 48 -46c12 0 25 1 39 4z" />
    <glyph glyph-name="Gbreve" unicode="&#x11e;" horiz-adv-x="773" 
d="M355 373h383v-22c0 -193 -118 -372 -349 -372c-210 0 -354 165 -354 360c0 205 151 364 354 364c166 0 280 -83 326 -206h-128c-33 63 -103 104 -195 104c-139 0 -236 -107 -236 -259c0 -160 103 -261 242 -261c117 0 202 84 214 192h-257v100zM474 886h80
c-5 -84 -71 -139 -163 -139c-103 0 -159 60 -162 139h79c3 -35 33 -58 83 -58c53 0 81 25 83 58z" />
    <glyph glyph-name="Gcircumflex" unicode="&#x11c;" horiz-adv-x="773" 
d="M355 373h383v-22c0 -193 -118 -372 -349 -372c-210 0 -354 165 -354 360c0 205 151 364 354 364c166 0 280 -83 326 -206h-128c-33 63 -103 104 -195 104c-139 0 -236 -107 -236 -259c0 -160 103 -261 242 -261c117 0 202 84 214 192h-257v100zM392 897l155 -101l-32 -62
l-123 59l-123 -59l-32 62z" />
    <glyph glyph-name="Gcommaaccent" unicode="&#x122;" horiz-adv-x="773" 
d="M355 373h383v-22c0 -193 -118 -372 -349 -372c-210 0 -354 165 -354 360c0 205 151 364 354 364c166 0 280 -83 326 -206h-128c-33 63 -103 104 -195 104c-139 0 -236 -107 -236 -259c0 -160 103 -261 242 -261c117 0 202 84 214 192h-257v100zM334 -153v91h106v-55
c0 -48 -15 -94 -34 -122h-57c16 23 25 57 26 86h-41z" />
    <glyph glyph-name="Gdotaccent" unicode="&#x120;" horiz-adv-x="773" 
d="M355 373h383v-22c0 -193 -118 -372 -349 -372c-210 0 -354 165 -354 360c0 205 151 364 354 364c166 0 280 -83 326 -206h-128c-33 63 -103 104 -195 104c-139 0 -236 -107 -236 -259c0 -160 103 -261 242 -261c117 0 202 84 214 192h-257v100zM336 773v104h108v-104
h-108z" />
    <glyph glyph-name="Hbar" unicode="&#x126;" horiz-adv-x="693" 
d="M685 515h-63v-515h-117v297h-316v-297h-118v515h-63v80h63v87h118v-87h316v87h117v-87h63v-80zM189 397h316v118h-316v-118z" />
    <glyph glyph-name="Hcircumflex" unicode="&#x124;" horiz-adv-x="693" 
d="M504 0v300h-315v-300h-118v682h118v-277h315v277h118v-682h-118zM346 897l155 -101l-32 -62l-123 59l-123 -59l-32 62z" />
    <glyph glyph-name="Ibreve" unicode="&#x12c;" horiz-adv-x="259" 
d="M70 0v682h118v-682h-118zM212 886h80c-5 -84 -71 -139 -163 -139c-103 0 -159 60 -162 139h79c3 -35 33 -58 83 -58c53 0 81 25 83 58z" />
    <glyph glyph-name="Imacron" unicode="&#x12a;" horiz-adv-x="259" 
d="M70 0v682h118v-682h-118zM276 777h-282v80h282v-80z" />
    <glyph glyph-name="Iogonek" unicode="&#x12e;" horiz-adv-x="259" 
d="M70 0v682h118v-682c-28 -5 -68 -40 -68 -93c0 -32 20 -46 48 -46c12 0 25 1 39 4v-80c-15 -4 -39 -7 -59 -7c-83 0 -118 50 -118 109c0 42 28 88 73 113h-33z" />
    <glyph glyph-name="Itilde" unicode="&#x128;" horiz-adv-x="259" 
d="M70 0v682h118v-682h-118zM32 770h-71c4 73 34 128 102 128c29 0 49 -10 75 -30c25 -19 43 -28 60 -28c16 0 29 10 30 49h71c-3 -83 -37 -128 -103 -128c-31 0 -56 10 -81 29c-27 21 -39 29 -53 29c-17 0 -28 -17 -30 -49z" />
    <glyph glyph-name="Jcircumflex" unicode="&#x134;" horiz-adv-x="369" 
d="M189 190v492h118v-487c0 -157 -69 -216 -193 -216c-35 0 -80 10 -104 20v101c22 -10 64 -19 89 -19c62 0 90 29 90 109zM246 897l155 -101l-32 -62l-123 59l-123 -59l-32 62z" />
    <glyph glyph-name="Kcommaaccent" unicode="&#x136;" horiz-adv-x="629" 
d="M494 0l-251 308c-16 -16 -39 -41 -54 -56v-252h-118v682h118v-286l272 286h151l-287 -294l320 -388h-151zM272 -153v91h106v-55c0 -48 -15 -94 -34 -122h-57c16 23 25 57 26 86h-41z" />
    <glyph glyph-name="Lacute" unicode="&#x139;" horiz-adv-x="485" 
d="M70 0v682h118v-578h287v-104h-405zM217 902l41 -88l-190 -80l-33 71z" />
    <glyph glyph-name="Lcaron" unicode="&#x13d;" horiz-adv-x="485" 
d="M70 0v682h118v-578h287v-104h-405zM314 591v91h106v-55c0 -48 -15 -94 -34 -122h-57c16 23 25 57 26 86h-41z" />
    <glyph glyph-name="Lcommaaccent" unicode="&#x13b;" horiz-adv-x="485" 
d="M70 0v682h118v-578h287v-104h-405zM211 -153v91h106v-55c0 -48 -15 -94 -34 -122h-57c16 23 25 57 26 86h-41z" />
    <glyph glyph-name="Ldot" unicode="&#x13f;" horiz-adv-x="503" 
d="M70 0v682h118v-578h287v-104h-405zM325 310v103h108v-103h-108z" />
    <glyph glyph-name="Nacute" unicode="&#x143;" horiz-adv-x="675" 
d="M175 503h-3c1 -34 3 -102 3 -136v-367h-105v682h105l203 -308c70 -105 102 -160 122 -198h2c-1 36 -2 100 -2 133v373h104v-682h-104l-194 293c-84 127 -110 172 -131 210zM426 902l41 -88l-190 -80l-33 71z" />
    <glyph glyph-name="Ncaron" unicode="&#x147;" horiz-adv-x="675" 
d="M175 503h-3c1 -34 3 -102 3 -136v-367h-105v682h105l203 -308c70 -105 102 -160 122 -198h2c-1 36 -2 100 -2 133v373h104v-682h-104l-194 293c-84 127 -110 172 -131 210zM337 734l-155 101l32 62l123 -59l124 59l31 -62z" />
    <glyph glyph-name="Ncommaaccent" unicode="&#x145;" horiz-adv-x="675" 
d="M175 503h-3c1 -34 3 -102 3 -136v-367h-105v682h105l203 -308c70 -105 102 -160 122 -198h2c-1 36 -2 100 -2 133v373h104v-682h-104l-194 293c-84 127 -110 172 -131 210zM279 -153v91h106v-55c0 -48 -15 -94 -34 -122h-57c16 23 25 57 26 86h-41z" />
    <glyph glyph-name="Obreve" unicode="&#x14e;" horiz-adv-x="793" 
d="M156 341c0 -147 104 -257 240 -257c137 0 241 110 241 257c0 144 -96 257 -240 257c-136 0 -241 -109 -241 -257zM35 341c0 195 152 363 363 363c224 0 360 -173 360 -363c0 -199 -155 -363 -361 -363c-250 0 -362 194 -362 363zM480 886h80c-5 -84 -71 -139 -163 -139
c-103 0 -159 60 -162 139h79c3 -35 33 -58 83 -58c53 0 81 25 83 58z" />
    <glyph glyph-name="Ohungarumlaut" unicode="&#x150;" horiz-adv-x="793" 
d="M156 341c0 -147 104 -257 240 -257c137 0 241 110 241 257c0 144 -96 257 -240 257c-136 0 -241 -109 -241 -257zM35 341c0 195 152 363 363 363c224 0 360 -173 360 -363c0 -199 -155 -363 -361 -363c-250 0 -362 194 -362 363zM403 907l58 -76l-159 -105l-47 62z
M600 907l58 -76l-160 -105l-46 62z" />
    <glyph glyph-name="Omacron" unicode="&#x14c;" horiz-adv-x="793" 
d="M156 341c0 -147 104 -257 240 -257c137 0 241 110 241 257c0 144 -96 257 -240 257c-136 0 -241 -109 -241 -257zM35 341c0 195 152 363 363 363c224 0 360 -173 360 -363c0 -199 -155 -363 -361 -363c-250 0 -362 194 -362 363zM545 777h-282v80h282v-80z" />
    <glyph glyph-name="Racute" unicode="&#x154;" horiz-adv-x="589" 
d="M377 290l212 -290h-142l-194 275h-65v-275h-118v682h206c183 0 248 -100 248 -205c0 -97 -67 -167 -147 -187zM402 474c0 69 -42 109 -118 109h-96v-215h97c75 0 117 45 117 106zM358 902l41 -88l-190 -80l-33 71z" />
    <glyph glyph-name="Rcaron" unicode="&#x158;" horiz-adv-x="589" 
d="M377 290l212 -290h-142l-194 275h-65v-275h-118v682h206c183 0 248 -100 248 -205c0 -97 -67 -167 -147 -187zM402 474c0 69 -42 109 -118 109h-96v-215h97c75 0 117 45 117 106zM259 734l-155 101l32 62l123 -59l124 59l31 -62z" />
    <glyph glyph-name="Rcommaaccent" unicode="&#x156;" horiz-adv-x="589" 
d="M377 290l212 -290h-142l-194 275h-65v-275h-118v682h206c183 0 248 -100 248 -205c0 -97 -67 -167 -147 -187zM402 474c0 69 -42 109 -118 109h-96v-215h97c75 0 117 45 117 106zM250 -153v91h106v-55c0 -48 -15 -94 -34 -122h-57c16 23 25 57 26 86h-41z" />
    <glyph glyph-name="Sacute" unicode="&#x15a;" horiz-adv-x="555" 
d="M489 520h-116c-7 51 -41 86 -97 86c-55 0 -92 -35 -92 -85c0 -56 47 -84 122 -108c146 -46 197 -122 197 -225c0 -100 -72 -210 -224 -210c-127 0 -218 71 -236 206h120c11 -65 49 -108 117 -108c69 0 106 51 106 105c0 65 -41 101 -132 130c-131 42 -186 112 -186 209
c0 108 90 184 209 184c122 0 203 -76 212 -184zM367 902l41 -88l-190 -80l-33 71z" />
    <glyph glyph-name="Scedilla" unicode="&#x15e;" horiz-adv-x="555" 
d="M489 520h-116c-7 51 -41 86 -97 86c-55 0 -92 -35 -92 -85c0 -55 44 -81 122 -108c145 -49 197 -122 197 -225c0 -94 -65 -195 -197 -208l-8 -19c54 -9 87 -50 87 -97c0 -62 -41 -107 -125 -107c-37 0 -78 8 -105 17l23 67c14 -6 49 -12 71 -12c33 0 52 10 52 34
c0 27 -29 43 -94 43l30 75c-106 13 -178 82 -194 203h120c11 -65 49 -108 117 -108c69 0 106 51 106 104c0 66 -44 101 -133 132c-130 45 -185 111 -185 209c0 109 93 183 209 183c122 0 203 -76 212 -184z" />
    <glyph glyph-name="Scircumflex" unicode="&#x15c;" horiz-adv-x="555" 
d="M489 520h-116c-7 51 -41 86 -97 86c-55 0 -92 -35 -92 -85c0 -56 47 -84 122 -108c146 -46 197 -122 197 -225c0 -100 -72 -210 -224 -210c-127 0 -218 71 -236 206h120c11 -65 49 -108 117 -108c69 0 106 51 106 105c0 65 -41 101 -132 130c-131 42 -186 112 -186 209
c0 108 90 184 209 184c122 0 203 -76 212 -184zM275 897l155 -101l-32 -62l-123 59l-123 -59l-32 62z" />
    <glyph glyph-name="Scommaaccent" unicode="&#x218;" horiz-adv-x="555" 
d="M489 520h-116c-7 51 -41 86 -97 86c-55 0 -92 -35 -92 -85c0 -56 47 -84 122 -108c146 -46 197 -122 197 -225c0 -100 -72 -210 -224 -210c-127 0 -218 71 -236 206h120c11 -65 49 -108 117 -108c69 0 106 51 106 105c0 65 -41 101 -132 130c-131 42 -186 112 -186 209
c0 108 90 184 209 184c122 0 203 -76 212 -184zM222 -153v91h106v-55c0 -48 -15 -94 -34 -122h-57c16 23 25 57 26 86h-41z" />
    <glyph glyph-name="Tbar" unicode="&#x166;" horiz-adv-x="478" 
d="M412 301h-114v-301h-118v301h-114v94h114v183h-170v104h458v-104h-170v-183h114v-94z" />
    <glyph glyph-name="Tcaron" unicode="&#x164;" horiz-adv-x="478" 
d="M180 0v578h-170v104h458v-104h-170v-578h-118zM238 734l-155 101l32 62l123 -59l124 59l31 -62z" />
    <glyph glyph-name="Ubreve" unicode="&#x16c;" horiz-adv-x="631" 
d="M316 -22c-135 0 -256 76 -256 293v411h118v-422c0 -109 51 -180 138 -180c101 0 137 77 137 180v422h117v-409c0 -214 -110 -295 -254 -295zM398 886h80c-5 -84 -71 -139 -163 -139c-103 0 -159 60 -162 139h79c3 -35 33 -58 83 -58c53 0 81 25 83 58z" />
    <glyph glyph-name="Uhungarumlaut" unicode="&#x170;" horiz-adv-x="631" 
d="M316 -22c-135 0 -256 76 -256 293v411h118v-422c0 -109 51 -180 138 -180c101 0 137 77 137 180v422h117v-409c0 -214 -110 -295 -254 -295zM310 907l58 -76l-159 -105l-47 62zM507 907l58 -76l-160 -105l-46 62z" />
    <glyph glyph-name="Umacron" unicode="&#x16a;" horiz-adv-x="631" 
d="M316 -22c-135 0 -256 76 -256 293v411h118v-422c0 -109 51 -180 138 -180c101 0 137 77 137 180v422h117v-409c0 -214 -110 -295 -254 -295zM464 777h-282v80h282v-80z" />
    <glyph glyph-name="Uogonek" unicode="&#x172;" horiz-adv-x="631" 
d="M316 -22c-135 0 -256 76 -256 293v411h118v-422c0 -109 51 -180 138 -180c101 0 137 77 137 180v422h117v-409c0 -130 -40 -212 -105 -255c-32 -21 -48 -30 -64 -49c-16 -20 -24 -44 -24 -62c0 -32 21 -46 49 -46c12 0 25 1 39 4v-80c-16 -4 -39 -7 -59 -7
c-83 0 -118 50 -118 109c0 31 15 66 41 92c-4 -1 -9 -1 -13 -1z" />
    <glyph glyph-name="Uring" unicode="&#x16e;" horiz-adv-x="631" 
d="M316 -22c-135 0 -256 76 -256 293v411h118v-422c0 -109 51 -180 138 -180c101 0 137 77 137 180v422h117v-409c0 -214 -110 -295 -254 -295zM255 842c0 -34 28 -61 62 -61c33 0 59 27 59 61c0 33 -26 59 -59 59c-34 0 -62 -26 -62 -59zM190 842c0 69 55 125 127 125
c69 0 125 -56 125 -125c0 -71 -56 -127 -125 -127c-72 0 -127 56 -127 127z" />
    <glyph glyph-name="Utilde" unicode="&#x168;" horiz-adv-x="631" 
d="M316 -22c-135 0 -256 76 -256 293v411h118v-422c0 -109 51 -180 138 -180c101 0 137 77 137 180v422h117v-409c0 -214 -110 -295 -254 -295zM217 770h-71c4 73 34 128 102 128c29 0 49 -10 75 -30c25 -19 43 -28 60 -28c16 0 29 10 30 49h71c-3 -83 -37 -128 -103 -128
c-31 0 -56 10 -81 29c-27 21 -39 29 -53 29c-17 0 -28 -17 -30 -49z" />
    <glyph glyph-name="Wacute" unicode="&#x1e82;" horiz-adv-x="855" 
d="M550 0l-93 390c-13 56 -20 96 -24 145h-4c-6 -49 -11 -85 -25 -142l-90 -393h-123l-179 682h117l97 -400c16 -66 20 -92 27 -130h4c7 43 16 91 27 139l92 391h113l95 -398c14 -57 19 -91 26 -132h4c7 49 16 97 24 131l90 399h116l-168 -682h-126zM516 902l41 -88
l-190 -80l-33 71z" />
    <glyph glyph-name="Wcircumflex" unicode="&#x174;" horiz-adv-x="855" 
d="M550 0l-93 390c-13 56 -20 96 -24 145h-4c-6 -49 -11 -85 -25 -142l-90 -393h-123l-179 682h117l97 -400c16 -66 20 -92 27 -130h4c7 43 16 91 27 139l92 391h113l95 -398c14 -57 19 -91 26 -132h4c7 49 16 97 24 131l90 399h116l-168 -682h-126zM430 897l155 -101
l-32 -62l-123 59l-123 -59l-32 62z" />
    <glyph glyph-name="Wdieresis" unicode="&#x1e84;" horiz-adv-x="855" 
d="M550 0l-93 390c-13 56 -20 96 -24 145h-4c-6 -49 -11 -85 -25 -142l-90 -393h-123l-179 682h117l97 -400c16 -66 20 -92 27 -130h4c7 43 16 91 27 139l92 391h113l95 -398c14 -57 19 -91 26 -132h4c7 49 16 97 24 131l90 399h116l-168 -682h-126zM290 773v102h105v-102
h-105zM470 773v102h105v-102h-105z" />
    <glyph glyph-name="Wgrave" unicode="&#x1e80;" horiz-adv-x="855" 
d="M550 0l-93 390c-13 56 -20 96 -24 145h-4c-6 -49 -11 -85 -25 -142l-90 -393h-123l-179 682h117l97 -400c16 -66 20 -92 27 -130h4c7 43 16 91 27 139l92 391h113l95 -398c14 -57 19 -91 26 -132h4c7 49 16 97 24 131l90 399h116l-168 -682h-126zM303 814l42 88l182 -97
l-34 -71z" />
    <glyph glyph-name="Ycircumflex" unicode="&#x176;" horiz-adv-x="570" 
d="M227 0v274l-218 408h130l115 -223c15 -29 27 -55 36 -82h2c11 28 22 50 37 81l110 224h123l-217 -407v-275h-118zM289 897l155 -101l-32 -62l-123 59l-123 -59l-32 62z" />
    <glyph glyph-name="Ygrave" unicode="&#x1ef2;" horiz-adv-x="570" 
d="M227 0v274l-218 408h130l115 -223c15 -29 27 -55 36 -82h2c11 28 22 50 37 81l110 224h123l-217 -407v-275h-118zM144 814l42 88l182 -97l-34 -71z" />
    <glyph glyph-name="Zacute" unicode="&#x179;" horiz-adv-x="612" 
d="M56 578v104h500v-98l-371 -480h387v-104h-533v97l371 481h-354zM388 902l41 -88l-190 -80l-33 71z" />
    <glyph glyph-name="Zdotaccent" unicode="&#x17b;" horiz-adv-x="612" 
d="M56 578v104h500v-98l-371 -480h387v-104h-533v97l371 481h-354zM241 773v104h108v-104h-108z" />
    <glyph glyph-name="Idotaccent" unicode="&#x130;" horiz-adv-x="259" 
d="M70 0v682h118v-682h-118zM74 773v104h108v-104h-108z" />
    <glyph glyph-name="abreve" unicode="&#x103;" horiz-adv-x="604" 
d="M538 479v-479h-109v61h-3c-33 -41 -85 -78 -164 -78c-108 0 -230 86 -230 257c0 152 108 254 238 254c80 0 128 -42 157 -80h2v65h109zM147 240c0 -80 46 -159 145 -159c74 0 142 64 142 156c0 97 -63 161 -141 161c-99 0 -146 -80 -146 -158zM367 721h80
c-5 -92 -75 -154 -163 -154c-93 0 -158 62 -162 154h79c4 -43 35 -71 83 -71c47 0 80 29 83 71z" />
    <glyph glyph-name="amacron" unicode="&#x101;" horiz-adv-x="604" 
d="M538 479v-479h-109v61h-3c-33 -41 -85 -78 -164 -78c-108 0 -230 86 -230 257c0 152 108 254 238 254c80 0 128 -42 157 -80h2v65h109zM147 240c0 -80 46 -159 145 -159c74 0 142 64 142 156c0 97 -63 161 -141 161c-99 0 -146 -80 -146 -158zM429 597h-282v80h282v-80z
" />
    <glyph glyph-name="aogonek" unicode="&#x105;" horiz-adv-x="604" 
d="M551 -135v-80c-15 -4 -38 -7 -58 -7c-84 0 -118 50 -118 109c0 42 27 88 73 113h-19v61h-3c-30 -37 -78 -71 -145 -75c-14 -2 -28 -2 -43 -1c-98 12 -206 95 -206 255c0 142 94 240 212 252c15 1 29 1 43 -1c70 -4 112 -42 140 -77h2v65h109v-479c-32 -1 -74 -38 -74 -93
c0 -32 21 -46 49 -46c12 0 25 1 38 4zM147 240c0 -80 46 -159 145 -159c74 0 142 64 142 156c0 97 -63 161 -141 161c-99 0 -146 -80 -146 -158z" />
    <glyph glyph-name="cacute" unicode="&#x107;" horiz-adv-x="547" 
d="M287 495c137 0 206 -90 221 -160h-115c-15 38 -51 65 -107 65c-81 0 -139 -59 -139 -160c0 -91 56 -161 143 -161c62 0 94 35 110 72h116c-26 -87 -95 -168 -228 -168c-144 0 -256 103 -256 258c0 140 98 254 255 254zM190 616l148 142l62 -73l-160 -129z" />
    <glyph glyph-name="ccaron" unicode="&#x10d;" horiz-adv-x="547" 
d="M287 495c137 0 206 -90 221 -160h-115c-15 38 -51 65 -107 65c-81 0 -139 -59 -139 -160c0 -91 56 -161 143 -161c62 0 94 35 110 72h116c-26 -87 -95 -168 -228 -168c-144 0 -256 103 -256 258c0 140 98 254 255 254zM284 554l-154 127l45 59l109 -79l109 79l45 -59z
" />
    <glyph glyph-name="ccircumflex" unicode="&#x109;" horiz-adv-x="547" 
d="M287 495c137 0 206 -90 221 -160h-115c-15 38 -51 65 -107 65c-81 0 -139 -59 -139 -160c0 -91 56 -161 143 -161c62 0 94 35 110 72h116c-26 -87 -95 -168 -228 -168c-144 0 -256 103 -256 258c0 140 98 254 255 254zM284 740l154 -127l-45 -59l-109 79l-109 -79l-45 59
z" />
    <glyph glyph-name="cdotaccent" unicode="&#x10b;" horiz-adv-x="547" 
d="M287 495c137 0 206 -90 221 -160h-115c-15 38 -51 65 -107 65c-81 0 -139 -59 -139 -160c0 -91 56 -161 143 -161c62 0 94 35 110 72h116c-26 -87 -95 -168 -228 -168c-144 0 -256 103 -256 258c0 140 98 254 255 254zM230 592v103h108v-103h-108z" />
    <glyph glyph-name="dcaron" unicode="&#x10f;" horiz-adv-x="712" 
d="M538 720v-720h-109v57h-3c-32 -37 -87 -74 -166 -74c-108 0 -228 86 -228 257c0 150 105 255 234 255c79 0 124 -33 159 -76h3v301h110zM147 240c0 -80 47 -159 144 -159c76 0 143 64 143 156c0 97 -63 162 -142 162c-97 0 -145 -81 -145 -159zM604 629v91h106v-55
c0 -48 -15 -94 -34 -122h-57c16 23 25 57 26 86h-41z" />
    <glyph glyph-name="dcroat" unicode="&#x111;" horiz-adv-x="604" 
d="M604 564h-66v-564h-109v57h-3c-32 -37 -87 -74 -166 -74c-108 0 -228 86 -228 257c0 150 105 255 234 255c79 0 124 -33 159 -76h3v145h-177v80h177v76h110v-76h66v-80zM147 240c0 -80 47 -159 144 -159c76 0 143 64 143 156c0 97 -63 162 -142 162
c-97 0 -145 -81 -145 -159z" />
    <glyph glyph-name="ebreve" unicode="&#x115;" horiz-adv-x="551" 
d="M275 495c165 -1 241 -129 241 -251c0 -10 0 -23 -2 -33h-370c0 -75 66 -140 143 -140c49 0 82 20 107 54h115c-32 -73 -101 -142 -222 -142c-147 0 -255 108 -255 261c0 135 92 251 243 251zM275 411c-77 0 -124 -57 -130 -119h259c-7 64 -56 119 -129 119zM357 721h80
c-5 -92 -75 -154 -163 -154c-93 0 -158 62 -162 154h79c4 -43 35 -71 83 -71c47 0 80 29 83 71z" />
    <glyph glyph-name="ecaron" unicode="&#x11b;" horiz-adv-x="551" 
d="M275 495c165 -1 241 -129 241 -251c0 -10 0 -23 -2 -33h-370c0 -75 66 -140 143 -140c49 0 82 20 107 54h115c-32 -73 -101 -142 -222 -142c-147 0 -255 108 -255 261c0 135 92 251 243 251zM275 411c-77 0 -124 -57 -130 -119h259c-7 64 -56 119 -129 119zM274 554
l-154 127l45 59l109 -79l109 79l45 -59z" />
    <glyph glyph-name="edotaccent" unicode="&#x117;" horiz-adv-x="551" 
d="M275 495c165 -1 241 -129 241 -251c0 -10 0 -23 -2 -33h-370c0 -75 66 -140 143 -140c49 0 82 20 107 54h115c-32 -73 -101 -142 -222 -142c-147 0 -255 108 -255 261c0 135 92 251 243 251zM275 411c-77 0 -124 -57 -130 -119h259c-7 64 -56 119 -129 119zM220 592v103
h108v-103h-108z" />
    <glyph glyph-name="emacron" unicode="&#x113;" horiz-adv-x="551" 
d="M275 495c165 -1 241 -129 241 -251c0 -10 0 -23 -2 -33h-370c0 -75 66 -140 143 -140c49 0 82 20 107 54h115c-32 -73 -101 -142 -222 -142c-147 0 -255 108 -255 261c0 135 92 251 243 251zM275 411c-77 0 -124 -57 -130 -119h259c-7 64 -56 119 -129 119zM414 597h-282
v80h282v-80z" />
    <glyph glyph-name="eng" unicode="&#x14b;" horiz-adv-x="569" 
d="M65 0v479h111v-60h2c38 54 93 76 146 76c99 0 186 -65 186 -219v-321c0 -140 -62 -206 -168 -206c-33 0 -59 5 -85 14v89c17 -6 42 -10 66 -10c57 0 75 39 75 105v323c0 82 -39 126 -103 126c-70 0 -118 -49 -118 -142v-254h-112z" />
    <glyph glyph-name="eogonek" unicode="&#x119;" horiz-adv-x="551" 
d="M431 -135v-80c-15 -4 -38 -7 -58 -7c-84 0 -119 50 -119 109c0 34 18 71 49 97c-5 0 -10 -1 -16 -1c-147 0 -255 108 -255 261c0 135 92 251 243 251c165 -1 241 -129 241 -251c0 -10 0 -23 -2 -33h-370c0 -75 66 -140 143 -140c49 0 82 20 107 54h115
c-16 -37 -43 -75 -95 -111c-53 -38 -70 -72 -70 -107c0 -32 20 -46 48 -46c12 0 25 1 39 4zM275 411c-77 0 -124 -57 -130 -119h259c-7 64 -56 119 -129 119z" />
    <glyph glyph-name="gbreve" unicode="&#x11f;" horiz-adv-x="604" 
d="M539 479v-464c0 -176 -80 -272 -253 -272c-134 0 -220 74 -239 188h112c13 -53 51 -95 132 -95c92 0 141 59 141 165v60h-2c-34 -39 -86 -74 -163 -74c-126 0 -234 98 -234 254c0 146 101 253 238 253c82 0 131 -42 158 -77h3v62h107zM147 241c0 -77 47 -156 144 -156
c78 0 143 63 143 154c0 96 -62 159 -141 159c-97 0 -146 -80 -146 -157zM365 721h80c-5 -92 -75 -154 -163 -154c-93 0 -158 62 -162 154h79c4 -43 35 -71 83 -71c47 0 80 29 83 71z" />
    <glyph glyph-name="gcircumflex" unicode="&#x11d;" horiz-adv-x="604" 
d="M539 479v-464c0 -176 -80 -272 -253 -272c-134 0 -220 74 -239 188h112c13 -53 51 -95 132 -95c92 0 141 59 141 165v60h-2c-34 -39 -86 -74 -163 -74c-126 0 -234 98 -234 254c0 146 101 253 238 253c82 0 131 -42 158 -77h3v62h107zM147 241c0 -77 47 -156 144 -156
c78 0 143 63 143 154c0 96 -62 159 -141 159c-97 0 -146 -80 -146 -157zM286 740l154 -127l-45 -59l-109 79l-109 -79l-45 59z" />
    <glyph glyph-name="gcommaaccent" unicode="&#x123;" horiz-adv-x="604" 
d="M539 479v-464c0 -176 -80 -272 -253 -272c-134 0 -220 74 -239 188h112c13 -53 51 -95 132 -95c92 0 141 59 141 165v60h-2c-34 -39 -86 -74 -163 -74c-126 0 -234 98 -234 254c0 146 101 253 238 253c82 0 131 -42 158 -77h3v62h107zM147 241c0 -77 47 -156 144 -156
c78 0 143 63 143 154c0 96 -62 159 -141 159c-97 0 -146 -80 -146 -157zM344 642v-91h-106v55c0 48 15 94 34 122h57c-16 -23 -25 -57 -26 -86h41z" />
    <glyph glyph-name="gdotaccent" unicode="&#x121;" horiz-adv-x="604" 
d="M539 479v-464c0 -176 -80 -272 -253 -272c-134 0 -220 74 -239 188h112c13 -53 51 -95 132 -95c92 0 141 59 141 165v60h-2c-34 -39 -86 -74 -163 -74c-126 0 -234 98 -234 254c0 146 101 253 238 253c82 0 131 -42 158 -77h3v62h107zM147 241c0 -77 47 -156 144 -156
c78 0 143 63 143 154c0 96 -62 159 -141 159c-97 0 -146 -80 -146 -157zM228 592v103h108v-103h-108z" />
    <glyph glyph-name="hbar" unicode="&#x127;" horiz-adv-x="566" 
d="M332 564h-155v-145h3c38 54 92 76 145 76c99 0 185 -64 185 -219v-276h-112v270c0 82 -39 126 -103 126c-70 0 -118 -48 -118 -141v-255h-112v564h-65v80h65v76h112v-76h155v-80z" />
    <glyph glyph-name="hcircumflex" unicode="&#x125;" horiz-adv-x="566" 
d="M65 0v720h112v-301h3c38 54 92 76 145 76c99 0 185 -64 185 -219v-276h-112v270c0 82 -39 126 -103 126c-70 0 -118 -48 -118 -141v-255h-112zM122 955l154 -127l-45 -59l-109 79l-109 -79l-45 59z" />
    <glyph glyph-name="ibreve" unicode="&#x12d;" horiz-adv-x="242" 
d="M65 0v479h112v-479h-112zM204 721h80c-5 -92 -75 -154 -163 -154c-93 0 -158 62 -162 154h79c4 -43 35 -71 83 -71c47 0 80 29 83 71z" />
    <glyph glyph-name="imacron" unicode="&#x12b;" horiz-adv-x="242" 
d="M65 0v479h112v-479h-112zM262 597h-282v80h282v-80z" />
    <glyph glyph-name="iogonek" unicode="&#x12f;" horiz-adv-x="242" 
d="M65 0v479h112v-479c-31 -4 -72 -40 -72 -93c0 -32 20 -46 48 -46c12 0 26 1 39 4v-80c-15 -4 -38 -7 -58 -7c-84 0 -119 50 -119 109c0 42 28 88 74 113h-24zM59 585v114h124v-114h-124z" />
    <glyph glyph-name="itilde" unicode="&#x129;" horiz-adv-x="242" 
d="M65 0v479h112v-479h-112zM23 590h-71c4 73 34 128 102 128c29 0 49 -10 75 -30c25 -19 43 -28 60 -28c16 0 29 10 30 49h71c-3 -83 -37 -128 -103 -128c-31 0 -56 10 -81 29c-27 21 -39 29 -53 29c-17 0 -28 -17 -30 -49z" />
    <glyph glyph-name="jcircumflex" unicode="&#x135;" horiz-adv-x="242" 
d="M177 479v-528c0 -140 -67 -202 -173 -202c-40 0 -69 7 -91 14v94c13 -3 43 -12 72 -12c58 0 80 40 80 106v528h112zM121 739l155 -127l-46 -59l-109 79l-108 -79l-46 59z" />
    <glyph glyph-name="kcommaaccent" unicode="&#x137;" horiz-adv-x="509" 
d="M380 0l-166 210l-37 -36v-174h-112v720h112v-420l172 179h136l-194 -197l225 -282h-136zM212 -153v91h106v-55c0 -48 -15 -94 -34 -122h-57c16 23 25 57 26 86h-41z" />
    <glyph glyph-name="lacute" unicode="&#x13a;" horiz-adv-x="242" 
d="M65 0v720h112v-720h-112zM33 831l148 142l62 -73l-160 -129z" />
    <glyph glyph-name="lcaron" unicode="&#x13e;" horiz-adv-x="350" 
d="M65 0v720h112v-720h-112zM242 629v91h106v-55c0 -48 -15 -94 -34 -122h-57c16 23 25 57 26 86h-41z" />
    <glyph glyph-name="lcommaaccent" unicode="&#x13c;" horiz-adv-x="242" 
d="M65 0v720h112v-720h-112zM66 -153v91h106v-55c0 -48 -15 -94 -34 -122h-57c16 23 25 57 26 86h-41z" />
    <glyph glyph-name="ldot" unicode="&#x140;" horiz-adv-x="365" 
d="M65 0v720h112v-720h-112zM249 314v103h108v-103h-108z" />
    <glyph glyph-name="nacute" unicode="&#x144;" horiz-adv-x="569" 
d="M65 0v479h111v-60h2c38 54 93 76 146 76c99 0 186 -65 186 -219v-276h-112v270c0 82 -39 126 -103 126c-70 0 -118 -49 -118 -142v-254h-112zM204 616l148 142l62 -73l-160 -129z" />
    <glyph glyph-name="ncaron" unicode="&#x148;" horiz-adv-x="569" 
d="M65 0v479h111v-60h2c38 54 93 76 146 76c99 0 186 -65 186 -219v-276h-112v270c0 82 -39 126 -103 126c-70 0 -118 -49 -118 -142v-254h-112zM291 554l-154 127l45 59l109 -79l109 79l45 -59z" />
    <glyph glyph-name="ncommaaccent" unicode="&#x146;" horiz-adv-x="569" 
d="M65 0v479h111v-60h2c38 54 93 76 146 76c99 0 186 -65 186 -219v-276h-112v270c0 82 -39 126 -103 126c-70 0 -118 -49 -118 -142v-254h-112zM231 -153v91h106v-55c0 -48 -15 -94 -34 -122h-57c16 23 25 57 26 86h-41z" />
    <glyph glyph-name="obreve" unicode="&#x14f;" horiz-adv-x="577" 
d="M32 240c0 148 111 255 256 255c150 0 256 -110 256 -255c0 -141 -107 -257 -256 -257c-146 0 -256 112 -256 257zM146 240c0 -92 65 -157 142 -157c85 0 143 68 143 157c0 85 -54 156 -143 156c-86 0 -142 -67 -142 -156zM371 721h80c-5 -92 -75 -154 -163 -154
c-93 0 -158 62 -162 154h79c4 -43 35 -71 83 -71c47 0 80 29 83 71z" />
    <glyph glyph-name="ohungarumlaut" unicode="&#x151;" horiz-adv-x="577" 
d="M32 240c0 148 111 255 256 255c150 0 256 -110 256 -255c0 -141 -107 -257 -256 -257c-146 0 -256 112 -256 257zM146 240c0 -92 65 -157 142 -157c85 0 143 68 143 157c0 85 -54 156 -143 156c-86 0 -142 -67 -142 -156zM238 754l81 -52l-113 -153l-64 41zM409 754
l81 -52l-113 -153l-64 41z" />
    <glyph glyph-name="omacron" unicode="&#x14d;" horiz-adv-x="577" 
d="M32 240c0 148 111 255 256 255c150 0 256 -110 256 -255c0 -141 -107 -257 -256 -257c-146 0 -256 112 -256 257zM146 240c0 -92 65 -157 142 -157c85 0 143 68 143 157c0 85 -54 156 -143 156c-86 0 -142 -67 -142 -156zM429 597h-282v80h282v-80z" />
    <glyph glyph-name="racute" unicode="&#x155;" horiz-adv-x="378" 
d="M354 491v-104c-14 2 -31 5 -56 5c-76 0 -121 -50 -121 -150v-242h-112v479h110v-68h3c22 41 70 83 134 83c18 0 30 -1 42 -3zM117 616l148 142l62 -73l-160 -129z" />
    <glyph glyph-name="rcaron" unicode="&#x159;" horiz-adv-x="378" 
d="M354 491v-104c-14 2 -31 5 -56 5c-76 0 -121 -50 -121 -150v-242h-112v479h110v-68h3c22 41 70 83 134 83c18 0 30 -1 42 -3zM211 554l-154 127l45 59l109 -79l109 79l45 -59z" />
    <glyph glyph-name="rcommaaccent" unicode="&#x157;" horiz-adv-x="378" 
d="M354 491v-104c-14 2 -31 5 -56 5c-76 0 -121 -50 -121 -150v-242h-112v479h110v-68h3c22 41 70 83 134 83c18 0 30 -1 42 -3zM66 -153v91h106v-55c0 -48 -15 -94 -34 -122h-57c16 23 25 57 26 86h-41z" />
    <glyph glyph-name="sacute" unicode="&#x15b;" horiz-adv-x="434" 
d="M388 356h-103c-5 35 -31 58 -64 58c-39 0 -60 -24 -60 -51c0 -29 15 -49 98 -77c103 -33 139 -86 139 -153c0 -88 -66 -150 -176 -150c-115 0 -171 63 -180 152h104c5 -40 29 -70 79 -70c42 0 66 26 66 59c0 36 -21 59 -100 86c-90 29 -135 74 -135 148
c0 79 62 137 163 137c103 0 157 -61 169 -139zM135 616l148 142l62 -73l-160 -129z" />
    <glyph glyph-name="scedilla" unicode="&#x15f;" horiz-adv-x="434" 
d="M386 356h-103c-5 35 -31 58 -64 58c-39 0 -60 -24 -60 -49c0 -31 13 -48 98 -79c103 -36 139 -86 139 -154c0 -79 -54 -137 -149 -147l-9 -24c54 -9 87 -50 87 -97c0 -62 -41 -107 -125 -107c-37 0 -78 8 -105 17l23 67c14 -6 49 -12 71 -12c33 0 52 10 52 34
c0 27 -29 43 -94 43l32 80c-89 12 -131 71 -139 149h104c5 -40 27 -70 78 -70c39 0 67 23 67 59c0 35 -21 57 -100 86c-92 32 -135 75 -135 148c0 79 62 137 163 137c103 0 157 -61 169 -139z" />
    <glyph glyph-name="scircumflex" unicode="&#x15d;" horiz-adv-x="434" 
d="M388 356h-103c-5 35 -31 58 -64 58c-39 0 -60 -24 -60 -51c0 -29 15 -49 98 -77c103 -33 139 -86 139 -153c0 -88 -66 -150 -176 -150c-115 0 -171 63 -180 152h104c5 -40 29 -70 79 -70c42 0 66 26 66 59c0 36 -21 59 -100 86c-90 29 -135 74 -135 148
c0 79 62 137 163 137c103 0 157 -61 169 -139zM222 740l154 -127l-45 -59l-109 79l-109 -79l-45 59z" />
    <glyph glyph-name="scommaaccent" unicode="&#x219;" horiz-adv-x="434" 
d="M386 356h-103c-5 35 -31 58 -64 58c-39 0 -60 -24 -60 -51c0 -29 15 -49 98 -77c103 -33 139 -86 139 -153c0 -88 -66 -150 -176 -150c-115 0 -171 63 -180 152h104c5 -40 29 -70 79 -70c42 0 66 26 66 59c0 36 -21 59 -100 86c-90 29 -135 74 -135 148
c0 79 62 137 163 137c103 0 157 -61 169 -139zM160 -153v91h106v-55c0 -48 -15 -94 -34 -122h-57c16 23 25 57 26 86h-41z" />
    <glyph glyph-name="tbar" unicode="&#x167;" horiz-adv-x="334" 
d="M292 208l-106 1c0 -96 8 -121 66 -121c19 0 41 4 58 8v-91c-25 -7 -57 -11 -85 -11c-119 0 -151 72 -151 170v45h-50v76h50v100h-60v94h60v153h112v-153h119v-94h-119v-100l106 -1v-76z" />
    <glyph glyph-name="tcaron" unicode="&#x165;" horiz-adv-x="349" 
d="M14 385v94h60v153h112v-153h119v-94h-119v-214c0 -65 20 -83 66 -83c19 0 41 4 58 8v-91c-25 -7 -57 -11 -85 -11c-119 0 -151 72 -151 170v221h-60zM244 629v91h106v-55c0 -48 -15 -94 -34 -122h-57c16 23 25 57 26 86h-41z" />
    <glyph glyph-name="ubreve" unicode="&#x16d;" horiz-adv-x="557" 
d="M493 479v-479h-111v59h-3c-40 -56 -91 -75 -142 -75c-81 0 -178 50 -178 212v283h112v-270c0 -81 39 -126 98 -126c68 0 112 48 112 141v255h112zM361 721h80c-5 -92 -75 -154 -163 -154c-93 0 -158 62 -162 154h79c4 -43 35 -71 83 -71c47 0 80 29 83 71z" />
    <glyph glyph-name="uhungarumlaut" unicode="&#x171;" horiz-adv-x="557" 
d="M493 479v-479h-111v59h-3c-40 -56 -91 -75 -142 -75c-81 0 -178 50 -178 212v283h112v-270c0 -81 39 -126 98 -126c68 0 112 48 112 141v255h112zM227 754l81 -52l-113 -153l-64 41zM398 754l81 -52l-113 -153l-64 41z" />
    <glyph glyph-name="umacron" unicode="&#x16b;" horiz-adv-x="557" 
d="M493 479v-479h-111v59h-3c-40 -56 -91 -75 -142 -75c-81 0 -178 50 -178 212v283h112v-270c0 -81 39 -126 98 -126c68 0 112 48 112 141v255h112zM419 597h-282v80h282v-80z" />
    <glyph glyph-name="uogonek" unicode="&#x173;" horiz-adv-x="557" 
d="M506 -135v-80c-15 -4 -38 -7 -58 -7c-84 0 -118 50 -118 109c0 42 27 88 73 113h-21v59h-3c-40 -56 -91 -75 -142 -75c-81 0 -178 50 -178 212v283h112v-270c0 -81 39 -126 98 -126c68 0 112 48 112 141v255h112v-479c-29 -2 -74 -35 -74 -93c0 -32 21 -46 49 -46
c12 0 25 1 38 4z" />
    <glyph glyph-name="uring" unicode="&#x16f;" horiz-adv-x="557" 
d="M493 479v-479h-111v59h-3c-40 -56 -91 -75 -142 -75c-81 0 -178 50 -178 212v283h112v-270c0 -81 39 -126 98 -126c68 0 112 48 112 141v255h112zM217 657c0 -34 28 -61 62 -61c33 0 59 27 59 61c0 33 -26 59 -59 59c-34 0 -62 -26 -62 -59zM152 657c0 69 55 125 127 125
c69 0 125 -56 125 -125c0 -71 -56 -127 -125 -127c-72 0 -127 56 -127 127z" />
    <glyph glyph-name="utilde" unicode="&#x169;" horiz-adv-x="557" 
d="M493 479v-479h-111v59h-3c-40 -56 -91 -75 -142 -75c-81 0 -178 50 -178 212v283h112v-270c0 -81 39 -126 98 -126c68 0 112 48 112 141v255h112zM179 590h-71c4 73 34 128 102 128c29 0 49 -10 75 -30c25 -19 43 -28 60 -28c16 0 29 10 30 49h71
c-3 -83 -37 -128 -103 -128c-31 0 -56 10 -81 29c-27 21 -39 29 -53 29c-17 0 -28 -17 -30 -49z" />
    <glyph glyph-name="wacute" unicode="&#x1e83;" horiz-adv-x="710" 
d="M433 0l-58 241c-7 33 -15 69 -20 104h-4c-4 -35 -12 -77 -23 -124l-52 -221h-134l-123 479h110l64 -272c10 -44 14 -63 19 -95h4c6 31 12 63 21 100l66 267h107l67 -271c10 -40 13 -66 18 -96h3c5 37 12 73 17 95l66 272h110l-125 -479h-133zM270 616l148 142l62 -73
l-160 -129z" />
    <glyph glyph-name="wcircumflex" unicode="&#x175;" horiz-adv-x="710" 
d="M433 0l-58 241c-7 33 -15 69 -20 104h-4c-4 -35 -12 -77 -23 -124l-52 -221h-134l-123 479h110l64 -272c10 -44 14 -63 19 -95h4c6 31 12 63 21 100l66 267h107l67 -271c10 -40 13 -66 18 -96h3c5 37 12 73 17 95l66 272h110l-125 -479h-133zM357 740l154 -127l-45 -59
l-109 79l-109 -79l-45 59z" />
    <glyph glyph-name="wdieresis" unicode="&#x1e85;" horiz-adv-x="710" 
d="M433 0l-58 241c-7 33 -15 69 -20 104h-4c-4 -35 -12 -77 -23 -124l-52 -221h-134l-123 479h110l64 -272c10 -44 14 -63 19 -95h4c6 31 12 63 21 100l66 267h107l67 -271c10 -40 13 -66 18 -96h3c5 37 12 73 17 95l66 272h110l-125 -479h-133zM214 593v102h105v-102h-105z
M394 593v102h105v-102h-105z" />
    <glyph glyph-name="wgrave" unicode="&#x1e81;" horiz-adv-x="710" 
d="M433 0l-58 241c-7 33 -15 69 -20 104h-4c-4 -35 -12 -77 -23 -124l-52 -221h-134l-123 479h110l64 -272c10 -44 14 -63 19 -95h4c6 31 12 63 21 100l66 267h107l67 -271c10 -40 13 -66 18 -96h3c5 37 12 73 17 95l66 272h110l-125 -479h-133zM234 685l63 73l147 -142
l-50 -60z" />
    <glyph glyph-name="ycircumflex" unicode="&#x177;" horiz-adv-x="452" 
d="M456 479l-263 -714h-107l88 237l-175 477h115l83 -238c10 -30 26 -77 32 -110h3c10 40 19 71 32 110l81 238h111zM231 740l154 -127l-45 -59l-109 79l-109 -79l-45 59z" />
    <glyph glyph-name="ygrave" unicode="&#x1ef3;" horiz-adv-x="452" 
d="M456 479l-263 -714h-107l88 237l-175 477h115l83 -238c10 -30 26 -77 32 -110h3c10 40 19 71 32 110l81 238h111zM105 685l63 73l147 -142l-50 -60z" />
    <glyph glyph-name="zacute" unicode="&#x17a;" horiz-adv-x="484" 
d="M48 386v93h387v-89l-257 -297h269v-93h-411v89l258 297h-246zM152 616l148 142l62 -73l-160 -129z" />
    <glyph glyph-name="zdotaccent" unicode="&#x17c;" horiz-adv-x="484" 
d="M48 386v93h387v-89l-257 -297h269v-93h-411v89l258 297h-246zM180 592v103h108v-103h-108z" />
    <glyph glyph-name="kgreenlandic" unicode="&#x138;" horiz-adv-x="509" 
d="M380 0l-166 210l-37 -36v-174h-112v479h112v-179l172 179h136l-194 -197l225 -282h-136z" />
    <glyph glyph-name="longs" unicode="&#x17f;" horiz-adv-x="261" 
d="M70 0v558c0 108 56 167 163 167c26 0 52 -3 73 -9v-92c-19 5 -36 8 -54 8c-50 0 -70 -30 -70 -76v-556h-112z" />
    <glyph glyph-name="Omega" unicode="&#x2126;" horiz-adv-x="758" 
d="M718 382c0 -112 -60 -220 -173 -266v-13h174v-103h-282v157c96 27 160 110 160 219c0 130 -87 226 -219 226c-125 0 -218 -93 -218 -226c0 -109 64 -192 160 -219v-157h-281v103h173v13c-109 44 -173 149 -173 266c0 173 137 322 341 322c213 0 338 -148 338 -322z" />
    <glyph glyph-name="pi" unicode="&#x3c0;" horiz-adv-x="646" 
d="M590 97v-93c-19 -6 -49 -10 -72 -10c-94 0 -128 51 -128 151v240h-142v-250c0 -58 -7 -101 -17 -135h-113c12 38 18 91 18 141v244c-40 0 -88 -10 -116 -26v94c27 15 89 26 143 26h454v-94h-115v-224c0 -52 11 -70 49 -70c11 0 29 3 39 6z" />
    <glyph glyph-name="underscoredbl" unicode="&#x2017;" horiz-adv-x="550" 
d="M0 -235v62h550v-62h-550zM0 -128v63h550v-63h-550z" />
    <glyph glyph-name="quotereversed" unicode="&#x201b;" horiz-adv-x="256" 
d="M194 720v-124h-51c3 -44 15 -88 38 -123h-65c-31 49 -53 110 -53 187v60h131z" />
    <glyph glyph-name="minute" unicode="&#x2032;" horiz-adv-x="237" 
d="M116 698l78 -26l-90 -251l-61 18z" />
    <glyph glyph-name="second" unicode="&#x2033;" horiz-adv-x="432" 
d="M116 698l78 -26l-90 -251l-61 18zM311 698l78 -26l-90 -251l-61 18z" />
    <glyph glyph-name="exclamdbl" unicode="&#x203c;" horiz-adv-x="513" 
d="M69 0v112h119v-112h-119zM67 682h123l-12 -480h-99zM325 0v112h119v-112h-119zM323 682h123l-12 -480h-99z" />
    <glyph glyph-name="franc" unicode="&#x20a3;" horiz-adv-x="569" 
d="M358 114h-134v-114h-114v114h-82v89h82v479h394v-104h-280v-176h270v-100h-270v-99h134v-89z" />
    <glyph glyph-name="lira" unicode="&#x20a4;" horiz-adv-x="569" 
d="M372 248h-121c1 -7 1 -13 1 -18c0 -52 -20 -85 -44 -105c26 0 64 -12 92 -22c32 -10 64 -22 89 -22c37 0 51 32 53 81h107c-2 -111 -50 -184 -150 -184c-44 0 -90 14 -135 29c-38 13 -74 24 -104 24c-39 0 -79 -13 -114 -34v99c66 21 99 77 99 124c0 9 -1 19 -2 28h-108
v75h93l-14 58h-79v76h63c-2 17 -4 36 -4 57c0 100 66 191 208 191c126 0 205 -80 210 -189h-114c-2 55 -43 92 -93 92c-63 0 -96 -44 -96 -106c0 -15 0 -31 2 -45h161v-76h-147l13 -58h134v-75z" />
    <glyph glyph-name="peseta" unicode="&#x20a7;" horiz-adv-x="1252" 
d="M70 0v682h194c141 0 248 -64 254 -203h66v153h112v-153h120v-94h-120v-214c0 -65 20 -83 67 -83c18 0 40 4 58 8v-91c-25 -7 -58 -11 -86 -11c-118 0 -151 72 -151 170v221h-80c-28 -86 -107 -136 -246 -136h-70v-249h-118zM1206 356h-103c-5 35 -31 58 -64 58
c-40 0 -61 -24 -61 -51c0 -29 15 -49 99 -77c102 -33 138 -86 138 -153c0 -88 -66 -150 -175 -150c-116 0 -172 63 -181 152h104c6 -40 30 -70 79 -70c43 0 66 26 66 59c0 36 -21 59 -100 86c-90 29 -135 74 -135 148c0 79 62 137 164 137s156 -61 169 -139zM399 465
c0 66 -38 118 -134 118h-77v-236h74c109 0 137 56 137 118z" />
    <glyph glyph-name="Euro" unicode="&#x20ac;" horiz-adv-x="569" 
d="M549 99v-101c-37 -12 -76 -20 -127 -20c-180 0 -277 102 -312 244h-91l24 83h53c-1 11 -1 26 -1 37c0 15 1 34 2 49h-67l24 84h60c41 138 149 229 304 229c42 0 90 -8 126 -20l-26 -95c-27 9 -64 16 -100 16c-76 0 -149 -39 -183 -130h253l-24 -84h-249
c-2 -15 -3 -33 -3 -49c0 -11 1 -26 2 -37h229l-24 -83h-187c30 -90 98 -144 198 -144c43 0 90 11 119 21z" />
    <glyph glyph-name="estimated" unicode="&#x212e;" horiz-adv-x="666" 
d="M629 298h-460v-205c45 -44 99 -67 163 -67c106 0 171 54 221 136c12 -8 24 -15 37 -23c-61 -91 -132 -151 -258 -151c-177 0 -290 140 -290 310c0 172 110 311 292 311c184 0 290 -139 295 -311zM498 336v167c-43 42 -102 68 -165 68c-64 0 -120 -22 -164 -66v-169h329z
" />
    <glyph glyph-name="partialdiff" unicode="&#x2202;" horiz-adv-x="631" 
d="M578 465c0 -63 -8 -125 -25 -187c-43 -156 -143 -289 -295 -289c-120 0 -203 81 -203 200c0 198 141 302 267 302c72 0 122 -34 142 -71h2c4 18 4 35 4 57c0 101 -49 164 -141 164c-35 0 -74 -11 -105 -29c-8 25 -16 49 -25 74c30 20 88 39 149 39
c145 0 230 -100 230 -260zM451 333c-12 44 -49 81 -109 81c-94 0 -175 -101 -175 -230c0 -66 37 -110 95 -110c91 0 161 112 189 259z" />
    <glyph glyph-name="product" unicode="&#x220f;" horiz-adv-x="763" 
d="M679 -235h-116v813h-363v-813h-116v917h595v-917z" />
    <glyph glyph-name="summation" unicode="&#x2211;" horiz-adv-x="668" 
d="M628 -235h-604v75l312 389l-289 373v80h555v-102h-398l270 -349l-291 -364h445v-102z" />
    <glyph glyph-name="radical" unicode="&#x221a;" horiz-adv-x="587" 
d="M581 720c-73 -245 -146 -487 -218 -732h-81c-48 107 -96 215 -144 322c-20 -11 -39 -23 -59 -35c-11 19 -21 37 -32 56c45 28 91 57 136 85c47 -104 93 -207 139 -311c60 205 121 409 182 615h77z" />
    <glyph glyph-name="infinity" unicode="&#x221e;" horiz-adv-x="864" 
d="M808 292c0 -100 -72 -178 -181 -178c-81 0 -152 47 -196 113h-3c-44 -63 -113 -113 -194 -113c-108 0 -182 71 -182 174c0 107 76 178 180 178c87 0 153 -50 196 -115h3c36 52 102 115 193 115c107 0 184 -70 184 -174zM720 291c0 51 -31 98 -102 98
c-59 0 -106 -41 -145 -99c37 -61 89 -100 147 -100c69 0 100 48 100 101zM386 290c-37 58 -92 99 -148 99c-65 0 -99 -45 -99 -101s41 -98 100 -98s111 45 147 100z" />
    <glyph glyph-name="integral" unicode="&#x222b;" horiz-adv-x="518" 
d="M462 725l-22 -93c-11 5 -31 10 -50 10c-53 0 -76 -31 -76 -88v-589c0 -127 -63 -195 -169 -195c-35 0 -73 8 -95 16l23 94c12 -4 32 -10 52 -10c49 0 74 30 74 85v596c0 120 55 190 171 190c37 0 71 -7 92 -16z" />
    <glyph glyph-name="approxequal" unicode="&#x2248;" horiz-adv-x="672" 
d="M619 390c-43 -56 -94 -93 -169 -93c-40 0 -83 11 -124 33c-36 21 -69 36 -105 36c-44 0 -78 -33 -103 -66l-65 67c40 50 87 93 166 93c47 0 91 -16 123 -34c39 -21 72 -35 107 -35c43 0 77 29 104 66zM619 161c-43 -55 -94 -92 -169 -92c-40 0 -83 11 -124 33
c-36 20 -69 35 -105 35c-44 0 -77 -31 -103 -65l-65 66c40 52 87 94 166 94c48 0 89 -16 123 -34c34 -19 71 -35 107 -35c42 0 77 30 104 66z" />
    <glyph glyph-name="notequal" unicode="&#x2260;" horiz-adv-x="672" 
d="M434 549h102l-71 -128h130v-89h-172l-71 -133h243v-90h-288l-68 -123h-103l68 123h-128v90h173l71 133h-244v89h286z" />
    <glyph glyph-name="lessequal" unicode="&#x2264;" horiz-adv-x="672" 
d="M594 0h-516v90h516v-90zM594 137l-516 203v78l516 203v-100l-369 -141v-2l369 -140v-101z" />
    <glyph glyph-name="greaterequal" unicode="&#x2265;" horiz-adv-x="672" 
d="M594 0h-516v90h516v-90zM594 340l-516 -203v101l369 140v2l-369 141v100l516 -203v-78z" />
    <glyph glyph-name="lozenge" unicode="&#x25ca;" horiz-adv-x="599" 
d="M315 682l226 -341l-226 -341h-44l-225 340l225 342h44zM293 101l158 240l-158 240l-157 -240z" />
    <glyph glyph-name="uni00A0" unicode="&#xa0;" horiz-adv-x="250" 
 />
    <glyph glyph-name="uni00AD" unicode="&#xad;" horiz-adv-x="467" 
d="M401 217h-322v94h322v-94z" />
    <glyph glyph-name="zero.fitted" horiz-adv-x="577" 
d="M38 345c0 262 133 359 255 359c114 0 247 -83 247 -356c0 -301 -153 -370 -250 -370c-115 0 -252 81 -252 367zM422 345c0 174 -51 258 -133 258c-70 0 -133 -70 -133 -255c0 -194 57 -269 136 -269c65 0 130 70 130 266z" />
    <glyph glyph-name="one.fitted" horiz-adv-x="402" 
d="M159 0v579h-103v103h218v-682h-115z" />
    <glyph glyph-name="two.fitted" horiz-adv-x="553" 
d="M71 0v92l210 235c55 61 99 120 99 183c0 52 -34 93 -95 93c-57 0 -97 -44 -97 -109h-118c3 119 81 210 218 210c136 0 211 -85 211 -188c0 -92 -52 -163 -140 -258l-144 -155h295v-103h-439z" />
    <glyph glyph-name="three.fitted" horiz-adv-x="562" 
d="M179 516h-115c5 100 78 188 214 188c130 0 209 -77 209 -177c0 -80 -58 -135 -118 -152v-2c82 -17 141 -80 141 -179c0 -113 -78 -215 -234 -215c-148 0 -223 87 -231 203h115c8 -62 49 -106 119 -106c68 0 114 52 114 121c0 66 -43 120 -139 120h-40v96h40
c69 0 115 39 115 104c0 44 -29 89 -93 89c-67 0 -94 -45 -97 -90z" />
    <glyph glyph-name="four.fitted" horiz-adv-x="572" 
d="M538 142h-87v-142h-113v142h-302v94l304 446h111v-441h87v-99zM287 449l-143 -208h194v210c0 40 0 52 1 80h-3c-12 -24 -24 -45 -49 -82z" />
    <glyph glyph-name="five.fitted" horiz-adv-x="560" 
d="M216 579l-15 -145c19 5 44 8 65 8c145 0 242 -85 242 -226c0 -117 -84 -238 -238 -238c-146 0 -224 92 -232 197h121c7 -50 42 -94 114 -94c62 0 114 49 114 125c0 85 -51 134 -149 134c-47 0 -107 -9 -159 -22l35 364h347v-103h-245z" />
    <glyph glyph-name="six.fitted" horiz-adv-x="588" 
d="M39 225c0 83 36 150 84 218l171 239h128l-158 -219c12 5 35 8 54 8c131 0 231 -108 231 -246c0 -136 -108 -247 -256 -247c-149 0 -254 103 -254 247zM157 224c0 -84 59 -145 136 -145c78 0 138 61 138 145c0 83 -56 147 -138 147c-80 0 -136 -60 -136 -147z" />
    <glyph glyph-name="seven.fitted" horiz-adv-x="491" 
d="M465 682v-96l-274 -586h-126l280 579h-315v103h435z" />
    <glyph glyph-name="eight.fitted" horiz-adv-x="575" 
d="M186 508c0 -61 49 -103 101 -103c60 0 102 43 102 103s-44 99 -102 99c-54 0 -101 -39 -101 -99zM169 195c0 -69 49 -119 120 -119c69 0 119 42 119 119c0 71 -49 120 -118 120c-70 0 -121 -50 -121 -120zM524 190c0 -110 -76 -211 -235 -211c-160 0 -238 97 -238 206
c0 91 47 150 122 180v2c-67 28 -101 81 -101 151c0 101 82 186 217 186c131 0 214 -85 214 -182c0 -77 -41 -134 -100 -155v-2c81 -29 121 -92 121 -175z" />
    <glyph glyph-name="nine.fitted" horiz-adv-x="588" 
d="M549 457c0 -83 -37 -150 -85 -218l-171 -239h-127l158 219c-13 -5 -40 -8 -58 -8c-133 3 -227 108 -227 246c0 136 107 247 256 247c148 0 254 -103 254 -247zM431 458c0 84 -60 145 -137 145c-78 0 -137 -61 -137 -145c0 -83 55 -147 137 -147c81 0 137 60 137 147z" />
    <glyph glyph-name="percent.oldstyle" horiz-adv-x="842" 
d="M579 566h89l-407 -566h-89zM36 421c0 99 76 165 168 165c91 0 166 -66 166 -165c0 -100 -75 -166 -166 -166c-92 0 -168 66 -168 166zM125 421c0 -55 35 -88 79 -88c42 0 77 33 77 88s-35 89 -77 89c-44 0 -79 -34 -79 -89zM471 145c0 100 75 166 168 166
c92 0 166 -66 166 -166c0 -99 -74 -165 -166 -165c-93 0 -168 66 -168 165zM561 146c0 -56 34 -89 78 -89c43 0 78 33 78 89c0 55 -35 89 -78 89c-44 0 -78 -34 -78 -89z" />
    <glyph glyph-name="perthousand.oldstyle" horiz-adv-x="1231" 
d="M579 566h89l-407 -566h-89zM36 421c0 99 76 165 168 165c91 0 166 -66 166 -165c0 -100 -75 -166 -166 -166c-92 0 -168 66 -168 166zM125 421c0 -55 35 -88 79 -88c42 0 77 33 77 88s-35 89 -77 89c-44 0 -79 -34 -79 -89zM471 145c0 100 75 166 168 166
c92 0 166 -66 166 -166c0 -99 -74 -165 -166 -165c-93 0 -168 66 -168 165zM561 146c0 -56 34 -89 78 -89c43 0 78 33 78 89c0 55 -35 89 -78 89c-44 0 -78 -34 -78 -89zM861 145c0 100 74 166 167 166c92 0 167 -66 167 -166c0 -99 -75 -165 -167 -165
c-93 0 -167 66 -167 165zM950 146c0 -56 34 -89 78 -89c43 0 78 33 78 89c0 55 -35 89 -78 89c-44 0 -78 -34 -78 -89z" />
    <glyph glyph-name="zero.taboldstyle" horiz-adv-x="569" 
d="M29 256c0 168 110 278 255 278c150 0 255 -112 255 -278c0 -162 -105 -280 -255 -280c-146 0 -255 114 -255 280zM147 255c0 -107 60 -177 137 -177c85 0 137 73 137 177c0 100 -49 178 -137 178c-85 0 -137 -73 -137 -178z" />
    <glyph glyph-name="one.taboldstyle" horiz-adv-x="569" 
d="M247 0v409h-121v103h235v-512h-114z" />
    <glyph glyph-name="two.taboldstyle" horiz-adv-x="569" 
d="M65 0v85l186 125c87 59 111 90 111 139c0 47 -29 84 -81 84c-53 0 -87 -32 -89 -86h-116c5 109 73 187 208 187c126 0 197 -78 197 -169c0 -82 -34 -137 -134 -203l-96 -63h262v-99h-448z" />
    <glyph glyph-name="three.taboldstyle" horiz-adv-x="569" 
d="M192 347h-115c4 114 86 186 203 186c127 0 204 -76 204 -176c0 -68 -42 -118 -97 -137v-3c88 -26 134 -96 134 -191c0 -128 -104 -223 -242 -223c-141 0 -230 85 -239 210h114c7 -68 58 -113 124 -113c68 0 125 49 125 129c0 79 -55 131 -140 131h-41v95h44
c61 0 100 36 100 92c0 49 -33 88 -88 88c-52 0 -84 -39 -86 -88z" />
    <glyph glyph-name="four.taboldstyle" horiz-adv-x="569" 
d="M545 21h-89v-195h-112v195h-312v92l321 399h103v-392h89v-99zM289 298l-143 -178h198v185c0 40 1 50 2 76h-3c-12 -25 -35 -60 -54 -83z" />
    <glyph glyph-name="five.taboldstyle" horiz-adv-x="569" 
d="M254 169c-63 0 -122 -12 -170 -26l37 369h358v-103h-256l-17 -150c13 3 44 9 76 9c154 0 243 -92 243 -229c0 -126 -94 -236 -236 -236c-150 0 -227 97 -236 217h115c5 -66 44 -118 120 -118c63 0 119 50 119 134c0 82 -56 133 -153 133z" />
    <glyph glyph-name="six.taboldstyle" horiz-adv-x="569" 
d="M30 225c0 83 36 150 84 218l170 239h128l-158 -219c13 5 36 8 55 8c131 0 230 -106 230 -246c0 -136 -107 -247 -255 -247c-149 0 -254 103 -254 247zM148 224c0 -84 59 -145 136 -145c78 0 137 61 137 145c0 83 -55 147 -137 147c-80 0 -136 -60 -136 -147z" />
    <glyph glyph-name="seven.taboldstyle" horiz-adv-x="569" 
d="M502 512v-95l-272 -591h-127l280 583h-317v103h436z" />
    <glyph glyph-name="eight.taboldstyle" horiz-adv-x="569" 
d="M76 524c0 106 85 180 208 180c124 0 208 -74 208 -180c0 -62 -35 -114 -85 -137v-2c75 -28 125 -100 125 -185c0 -132 -96 -224 -248 -224c-151 0 -247 90 -247 224c0 85 51 156 123 185v2c-48 23 -84 75 -84 137zM155 206c0 -85 65 -132 129 -132c69 0 129 48 129 132
c0 72 -54 129 -129 129c-76 0 -129 -57 -129 -129zM191 516c0 -53 39 -90 93 -90c55 0 93 38 93 91c0 52 -39 90 -93 90c-53 0 -93 -37 -93 -91z" />
    <glyph glyph-name="nine.taboldstyle" horiz-adv-x="569" 
d="M539 287c0 -83 -39 -160 -107 -249l-158 -212h-128l168 223c-13 -5 -39 -8 -58 -8c-133 3 -227 108 -227 246c0 136 108 247 256 247c149 0 254 -103 254 -247zM421 288c0 84 -60 145 -136 145c-79 0 -138 -61 -138 -145c0 -83 55 -147 138 -147c80 0 136 60 136 147z
" />
    <glyph glyph-name="zero.denominator" 
d="M28 221c0 166 90 226 178 226c79 0 170 -52 170 -226c0 -191 -106 -236 -174 -236c-81 0 -174 52 -174 236zM281 219c0 105 -32 151 -79 151c-40 0 -79 -37 -79 -147c0 -118 35 -160 80 -160c38 0 78 38 78 156z" />
    <glyph glyph-name="one.denominator" 
d="M163 0v357h-68v77h160v-434h-92z" />
    <glyph glyph-name="two.denominator" 
d="M56 0v62l138 147c34 37 64 70 64 108c0 32 -22 53 -56 53c-39 0 -57 -25 -59 -64h-91c3 78 51 141 154 141c90 0 148 -55 148 -127c0 -55 -31 -95 -97 -164l-75 -77h178v-79h-304z" />
    <glyph glyph-name="three.denominator" 
d="M139 319h-89c2 74 56 128 149 128c95 0 147 -47 147 -113c0 -48 -33 -84 -75 -95v-2c55 -13 90 -54 90 -112c0 -72 -54 -139 -164 -139c-103 0 -154 54 -161 139h90c5 -43 29 -66 72 -66s69 30 69 72c0 36 -24 67 -81 67h-30v69h28c43 0 68 22 68 55c0 29 -18 52 -56 52
c-39 0 -55 -27 -57 -55z" />
    <glyph glyph-name="four.denominator" 
d="M375 75h-63v-75h-90v75h-200v67l202 292h88v-289h63v-70zM187 268l-86 -123h121v131c0 25 1 30 2 48h-3c-8 -16 -24 -41 -34 -56z" />
    <glyph glyph-name="five.denominator" 
d="M169 356l-9 -74c8 2 26 4 37 4c97 0 157 -60 157 -148c0 -78 -57 -152 -159 -152s-150 61 -155 130h93c2 -30 23 -51 62 -51c35 0 61 27 61 69c0 47 -27 76 -88 76c-32 0 -65 -4 -100 -12l22 236h230v-78h-151z" />
    <glyph glyph-name="six.denominator" 
d="M29 144c0 57 23 104 63 154l112 136h97l-110 -136c8 3 25 4 34 4c89 -4 149 -70 149 -158c0 -85 -66 -158 -174 -158c-105 0 -171 68 -171 158zM120 144c0 -50 36 -82 81 -82c46 0 82 33 82 82c0 48 -34 84 -82 84c-47 0 -81 -35 -81 -84z" />
    <glyph glyph-name="seven.denominator" 
d="M351 434v-70l-172 -364h-101l176 356h-201v78h298z" />
    <glyph glyph-name="eight.denominator" 
d="M138 321c0 -38 28 -62 63 -62c38 0 64 25 64 62s-28 59 -64 59s-63 -22 -63 -59zM129 127c0 -44 29 -72 74 -72c42 0 73 27 73 72c0 43 -31 73 -73 73c-43 0 -74 -29 -74 -73zM362 121c0 -71 -52 -135 -160 -135s-161 59 -161 133c0 55 29 95 78 114v1
c-41 17 -65 51 -65 93c0 68 55 120 148 120c91 0 146 -51 146 -114c0 -47 -26 -83 -66 -97v-2c53 -19 80 -59 80 -113z" />
    <glyph glyph-name="nine.denominator" 
d="M374 289c0 -56 -26 -105 -63 -153l-112 -136h-97l110 136c-9 -3 -24 -4 -34 -4c-91 3 -149 69 -149 157s70 158 174 158c103 0 171 -64 171 -158zM284 290c0 51 -38 82 -82 82c-47 0 -82 -31 -82 -82c0 -50 34 -84 82 -84c47 0 82 31 82 84z" />
    <glyph glyph-name="zero.numerator" 
d="M28 471c0 166 90 226 178 226c79 0 170 -52 170 -226c0 -191 -106 -236 -174 -236c-81 0 -174 52 -174 236zM281 469c0 105 -32 151 -79 151c-40 0 -79 -37 -79 -147c0 -118 35 -160 80 -160c38 0 78 38 78 156z" />
    <glyph glyph-name="one.numerator" 
d="M163 250v357h-68v77h160v-434h-92z" />
    <glyph glyph-name="two.numerator" 
d="M56 250v62l138 147c34 37 64 70 64 108c0 32 -22 53 -56 53c-39 0 -57 -25 -59 -64h-91c3 78 51 141 154 141c90 0 148 -55 148 -127c0 -55 -31 -95 -97 -164l-75 -77h178v-79h-304z" />
    <glyph glyph-name="three.numerator" 
d="M139 569h-89c2 74 56 128 149 128c95 0 147 -47 147 -113c0 -48 -33 -84 -75 -95v-2c55 -13 90 -54 90 -112c0 -72 -54 -139 -164 -139c-103 0 -154 54 -161 139h90c5 -43 29 -66 72 -66s69 30 69 72c0 36 -24 67 -81 67h-30v69h28c43 0 68 22 68 55c0 29 -18 52 -56 52
c-39 0 -55 -27 -57 -55z" />
    <glyph glyph-name="four.numerator" 
d="M375 325h-63v-75h-90v75h-200v67l202 292h88v-289h63v-70zM187 518l-87 -123h122v131c0 25 1 31 2 49h-3c-8 -17 -24 -41 -34 -57z" />
    <glyph glyph-name="five.numerator" 
d="M169 606l-9 -74c8 2 26 4 37 4c97 0 157 -60 157 -148c0 -78 -57 -152 -159 -152s-150 61 -155 130h93c2 -30 23 -51 62 -51c35 0 61 27 61 69c0 47 -27 76 -88 76c-32 0 -65 -4 -100 -12l22 236h230v-78h-151z" />
    <glyph glyph-name="six.numerator" 
d="M29 394c0 57 23 104 63 154l112 136h97l-110 -136c8 3 25 4 34 4c89 -4 149 -70 149 -158c0 -85 -66 -158 -174 -158c-105 0 -171 68 -171 158zM120 394c0 -50 36 -82 81 -82c46 0 82 33 82 82c0 48 -34 84 -82 84c-47 0 -81 -35 -81 -84z" />
    <glyph glyph-name="seven.numerator" 
d="M351 684v-70l-172 -364h-101l176 356h-201v78h298z" />
    <glyph glyph-name="eight.numerator" 
d="M138 571c0 -38 28 -62 63 -62c38 0 64 25 64 62s-28 59 -64 59s-63 -22 -63 -59zM129 377c0 -44 29 -72 74 -72c42 0 73 27 73 72c0 43 -31 73 -73 73c-43 0 -74 -29 -74 -73zM362 371c0 -71 -52 -135 -160 -135s-161 59 -161 133c0 55 29 95 78 114v1
c-41 17 -65 51 -65 93c0 68 55 120 148 120c91 0 146 -51 146 -114c0 -47 -26 -83 -66 -97v-2c53 -19 80 -59 80 -113z" />
    <glyph glyph-name="nine.numerator" 
d="M374 539c0 -56 -26 -105 -63 -153l-112 -136h-97l110 136c-9 -3 -24 -4 -34 -4c-91 3 -149 69 -149 157s70 158 174 158c103 0 171 -64 171 -158zM284 540c0 51 -38 82 -82 82c-47 0 -82 -31 -82 -82c0 -50 34 -84 82 -84c47 0 82 31 82 84z" />
    <glyph glyph-name="parenleft.cap" horiz-adv-x="344" 
d="M327 -161h-108c-106 136 -152 320 -152 478c0 161 46 342 152 480h108c-108 -138 -150 -319 -150 -480c0 -158 42 -342 150 -478z" />
    <glyph glyph-name="parenright.cap" horiz-adv-x="344" 
d="M125 -161h-109c109 137 151 319 151 479c0 159 -42 342 -151 479h109c106 -137 152 -320 152 -479c0 -160 -46 -342 -152 -479z" />
    <glyph glyph-name="bracketleft.cap" horiz-adv-x="365" 
d="M301 782v-92h-106v-744h106v-92h-209v928h209z" />
    <glyph glyph-name="bracketright.cap" horiz-adv-x="365" 
d="M64 690v92h209v-928h-209v92h106v744h-106z" />
    <glyph glyph-name="braceleft.cap" horiz-adv-x="382" 
d="M320 796v-85c-51 -1 -70 -30 -70 -79v-186c0 -55 -26 -107 -82 -129v-2c50 -17 82 -66 82 -136v-177c0 -49 19 -78 70 -79v-84c-106 1 -175 60 -175 161v192c0 45 -29 81 -83 85v80c54 3 83 40 83 84v192c0 97 53 161 175 163z" />
    <glyph glyph-name="braceright.cap" horiz-adv-x="382" 
d="M62 711v85c121 -2 174 -66 174 -163v-192c0 -44 29 -81 83 -84v-80c-54 -4 -83 -40 -83 -85v-192c0 -101 -68 -160 -174 -161v84c51 1 70 30 70 79v177c0 70 32 119 82 136v2c-56 22 -82 74 -82 129v186c0 49 -19 78 -70 79z" />
    <glyph glyph-name="exclamdown.cap" horiz-adv-x="256" 
d="M188 682v-112h-119v112h119zM190 0h-123l12 480h99z" />
    <glyph glyph-name="questiondown.cap" horiz-adv-x="454" 
d="M127 357c37 36 52 68 52 123h100c0 -73 -8 -115 -52 -165c-55 -60 -87 -87 -87 -145c0 -51 34 -91 90 -91c51 0 92 38 92 102h114c-3 -123 -86 -203 -209 -203c-132 0 -206 83 -206 184c0 85 49 144 106 195zM289 682v-112h-120v112h120z" />
    <glyph glyph-name="guillemotleft.cap" horiz-adv-x="487" 
d="M241 328l128 207l70 -38l-87 -169l87 -169l-70 -39zM52 328l128 207l70 -38l-88 -169l88 -169l-70 -39z" />
    <glyph glyph-name="guillemotright.cap" horiz-adv-x="487" 
d="M246 327l-128 -207l-70 38l87 169l-87 170l70 38zM436 327l-128 -207l-71 38l88 169l-88 170l71 38z" />
    <glyph glyph-name="guilsinglleft.cap" horiz-adv-x="298" 
d="M52 328l128 207l70 -38l-88 -169l88 -169l-70 -39z" />
    <glyph glyph-name="guilsinglright.cap" horiz-adv-x="298" 
d="M246 327l-128 -207l-70 38l87 169l-87 170l70 38z" />
    <glyph glyph-name="hyphen.cap" horiz-adv-x="467" 
d="M398 317h-322v94h322v-94z" />
    <glyph glyph-name="endash.cap" horiz-adv-x="556" 
d="M480 317h-404v94h404v-94z" />
    <glyph glyph-name="emdash.cap" horiz-adv-x="1106" 
d="M1030 317h-954v94h954v-94z" />
    <glyph glyph-name="periodcentered.cap" horiz-adv-x="256" 
d="M61 285v135h141v-135h-141z" />
    <glyph glyph-name="at.cap" horiz-adv-x="941" 
d="M882 380c0 -156 -87 -266 -197 -266c-69 0 -115 33 -122 91h-4c-31 -59 -91 -91 -143 -91c-99 0 -155 79 -155 184c0 125 78 249 204 249c50 0 89 -28 111 -68h2l10 58h90l-38 -245c-2 -19 -5 -37 -5 -51c0 -30 15 -56 58 -56c61 0 104 80 104 190
c0 176 -106 282 -318 282c-210 0 -336 -161 -336 -345s127 -308 330 -308c82 0 158 15 202 36l27 -60c-55 -30 -141 -47 -237 -47c-239 0 -407 148 -407 380c0 231 173 415 426 415c273 0 398 -166 398 -348zM561 369c0 64 -29 105 -84 105c-78 0 -122 -86 -122 -174
c0 -69 31 -113 81 -113c79 0 125 92 125 182z" />
    <glyph glyph-name="sterling.oldstyle" horiz-adv-x="586" 
d="M372 257h-124c3 -15 5 -29 5 -43c0 -44 -14 -77 -38 -97c32 0 54 -6 88 -18c43 -17 59 -22 85 -22c31 0 55 15 57 74h105c-4 -131 -64 -173 -157 -173c-41 0 -82 12 -127 29c-41 16 -79 27 -109 27c-38 0 -79 -16 -114 -41v99c71 24 106 64 106 117c0 16 -3 32 -6 48h-93
v83h72c-5 20 -9 41 -9 63c0 92 58 183 198 183c120 0 193 -70 200 -182h-107c-5 55 -36 85 -90 85c-62 0 -90 -35 -90 -94c0 -18 3 -37 7 -55h141v-83z" />
    <glyph glyph-name="uni203E" unicode="&#x203e;" horiz-adv-x="550" 
d="M0 755v87h550v-87h-550z" />
    <glyph glyph-name="Euro.oldstyle" horiz-adv-x="516" 
d="M388 176h-164c23 -64 72 -105 150 -105c36 0 90 12 116 24v-93c-33 -15 -66 -26 -128 -26c-138 0 -224 75 -256 200h-82l21 75h50c-1 11 -1 21 -1 30c0 13 0 27 1 40h-68l22 75h61c32 111 116 190 256 190c46 0 88 -8 121 -22l-22 -88c-21 10 -59 17 -94 17
c-73 0 -122 -35 -146 -97h219l-19 -75h-217c-2 -12 -2 -25 -2 -39c0 -11 0 -21 1 -31h201z" />
    <glyph glyph-name="twosuperior" unicode="&#xb2;" 
d="M56 425v62l138 147c34 37 64 70 64 108c0 32 -22 53 -56 53c-39 0 -57 -25 -59 -64h-91c3 78 51 141 154 141c90 0 148 -55 148 -127c0 -55 -31 -95 -97 -164l-75 -77h178v-79h-304z" />
    <glyph glyph-name="threesuperior" unicode="&#xb3;" 
d="M139 744h-89c2 74 56 128 149 128c95 0 147 -47 147 -113c0 -48 -33 -84 -75 -95v-2c55 -13 90 -54 90 -112c0 -72 -54 -139 -164 -139c-103 0 -154 54 -161 139h90c5 -43 29 -66 72 -66s69 30 69 72c0 36 -24 67 -81 67h-30v69h28c43 0 68 22 68 55c0 29 -18 52 -56 52
c-39 0 -55 -27 -57 -55z" />
    <glyph glyph-name="onesuperior" unicode="&#xb9;" 
d="M163 425v357h-68v77h160v-434h-92z" />
    <glyph glyph-name="florin.oldstyle" horiz-adv-x="491" 
d="M53 -124c43 0 68 21 77 77l49 301h-78v94h92l11 75c18 115 72 163 167 163c26 0 53 -4 71 -8v-92c-16 4 -34 6 -49 6c-43 0 -69 -22 -77 -78l-12 -66h86v-94h-99l-49 -302c-19 -114 -69 -170 -167 -170c-29 0 -53 3 -71 8v92c13 -4 35 -6 49 -6z" />
    <glyph glyph-name="yen.oldstyle" horiz-adv-x="548" 
d="M61 243v75h119l-135 248h121l71 -138c15 -29 28 -58 38 -85h2c10 28 21 53 36 84l71 139h120l-137 -248h119v-75h-155v-66h155v-75h-155v-102h-114v102h-156v75h156v66h-156z" />
    <glyph glyph-name="numbersign.oldstyle" horiz-adv-x="589" 
d="M547 356h-102l-30 -140h104l-16 -71h-103l-31 -145h-78l31 145h-118l-31 -145h-78l32 145h-102l15 71h101l31 140h-103l15 72h104l30 138h77l-29 -138h117l29 138h78l-29 -138h103zM250 356l-31 -140h118l30 140h-117z" />
    <glyph glyph-name="nsuperior" unicode="&#x207f;" horiz-adv-x="443" 
d="M57 328v354h90v-44h2c27 40 65 56 104 56c73 0 137 -48 137 -162v-204h-91v193c0 58 -26 90 -67 90c-51 0 -84 -34 -84 -101v-182h-91z" />
    <glyph glyph-name="afii61289" unicode="&#x2113;" horiz-adv-x="569" 
d="M425 111l43 -59c-33 -32 -89 -67 -147 -67c-98 0 -138 73 -138 162v65l-53 -53l-42 45l95 95v207c0 130 58 198 145 198c83 0 112 -68 112 -120c0 -95 -49 -172 -117 -254c-10 -10 -26 -29 -33 -38v-131c0 -69 27 -91 61 -91c29 0 55 22 74 41zM371 572
c0 25 -9 49 -34 49c-28 0 -47 -29 -47 -98v-136c5 6 13 14 17 22c39 52 64 112 64 163z" />
    <glyph glyph-name="fi.alt01" horiz-adv-x="566" 
d="M318 385h-117v-385h-112v385h-68v94h68v25c0 137 81 221 213 221c121 0 191 -75 199 -164h-113c-4 27 -25 72 -89 72c-65 0 -98 -42 -98 -123v-31h117v-94zM389 0v479h112v-479h-112z" />
    <glyph glyph-name="fl.alt01" horiz-adv-x="567" 
d="M319 385h-117v-385h-112v385h-69v94h69v40c0 144 84 206 213 206c64 0 140 -15 199 -32v-693h-112v619c-21 6 -57 12 -84 12c-75 0 -104 -39 -104 -120v-32h117v-94z" />
    <glyph glyph-name="f_f.alt01" horiz-adv-x="616" 
d="M202 385v-385h-112v385h-69v94h69v29c0 144 82 217 205 217c53 0 100 -13 140 -43c25 29 71 43 118 43c27 0 53 -3 73 -9v-92c-19 5 -35 8 -54 8c-50 0 -70 -30 -70 -76v-77h107v-94h-107v-385h-112v385h-188zM390 479v79c0 16 1 31 5 44c-27 21 -65 31 -93 31
c-72 0 -100 -41 -100 -122v-32h188z" />
    <glyph glyph-name="f_f_i.alt01" horiz-adv-x="867" 
d="M390 385h-188v-385h-112v385h-69v94h69v29c0 144 85 217 207 217c59 0 114 -20 154 -53c37 35 92 53 152 53c120 0 191 -75 199 -164h-112c-4 27 -26 72 -90 72s-98 -40 -98 -121v-33h117v-94h-117v-385h-112v385zM690 0v479h112v-479h-112zM390 479v27c0 31 5 63 14 88
c-25 23 -70 39 -100 39c-73 0 -102 -41 -102 -122v-32h188z" />
    <glyph glyph-name="f_f_l.alt01" horiz-adv-x="868" 
d="M390 385h-188v-385h-112v385h-69v94h69v40c0 144 85 206 206 206c54 0 105 -15 149 -50c39 34 91 50 153 50c66 0 142 -11 205 -27v-698h-112v621c-23 6 -58 10 -86 10c-75 0 -103 -39 -103 -120v-32h111v-94h-111v-385h-112v385zM390 479v43c0 27 3 54 11 75
c-26 21 -69 36 -97 36c-73 0 -102 -41 -102 -122v-32h188z" />
    <glyph glyph-name="uni0162" unicode="&#x162;" horiz-adv-x="478" 
d="M180 0v578h-170v104h458v-104h-170v-578h-118zM184 -153v91h106v-55c0 -48 -15 -94 -34 -122h-57c16 23 25 57 26 86h-41z" />
    <glyph glyph-name="uni021A" unicode="&#x21a;" horiz-adv-x="478" 
d="M180 0v578h-170v104h458v-104h-170v-578h-118zM184 -153v91h106v-55c0 -48 -15 -94 -34 -122h-57c16 23 25 57 26 86h-41z" />
    <glyph glyph-name="uni0163" unicode="&#x163;" horiz-adv-x="334" 
d="M14 385v94h60v153h112v-153h119v-94h-119v-214c0 -65 20 -83 66 -83c19 0 41 4 58 8v-91c-25 -7 -57 -11 -85 -11c-119 0 -151 72 -151 170v221h-60zM142 -149v91h106v-55c0 -48 -15 -94 -34 -122h-57c16 23 25 57 26 86h-41z" />
    <glyph glyph-name="uni021B" unicode="&#x21b;" horiz-adv-x="334" 
d="M14 385v94h60v153h112v-153h119v-94h-119v-214c0 -65 20 -83 66 -83c19 0 41 4 58 8v-91c-25 -7 -57 -11 -85 -11c-119 0 -151 72 -151 170v221h-60zM142 -149v91h106v-55c0 -48 -15 -94 -34 -122h-57c16 23 25 57 26 86h-41z" />
    <glyph glyph-name="dotlessj" unicode="&#x237;" horiz-adv-x="242" 
d="M177 479v-524c0 -143 -67 -206 -173 -206c-40 0 -69 7 -91 14v94c13 -4 43 -12 72 -12c51 0 80 29 80 106v528h112z" />
    <glyph glyph-name="uni02C9" unicode="&#x2c9;" horiz-adv-x="324" 
d="M303 597h-282v80h282v-80z" />
    <glyph glyph-name="uni0394" unicode="&#x394;" horiz-adv-x="652" 
d="M7 0l271 682h108l259 -682h-638zM284 431l-123 -334h327l-121 335c-14 38 -28 82 -38 118h-5c-11 -37 -26 -82 -40 -119z" />
    <glyph glyph-name="uni03A9" unicode="&#x3a9;" horiz-adv-x="758" 
d="M718 382c0 -112 -60 -220 -173 -266v-13h174v-103h-282v157c96 27 160 110 160 219c0 130 -87 226 -219 226c-125 0 -218 -93 -218 -226c0 -109 64 -192 160 -219v-157h-281v103h173v13c-109 44 -173 149 -173 266c0 173 137 322 341 322c213 0 338 -148 338 -322z" />
    <glyph glyph-name="uni03BC" unicode="&#x3bc;" horiz-adv-x="570" 
d="M59 -213v692h112v-270c0 -79 33 -126 97 -126c70 0 112 50 112 145v251h113v-338c0 -37 8 -50 34 -50c7 0 16 2 22 3v-98c-14 -5 -35 -8 -52 -8c-67 0 -97 25 -108 77h-2c-34 -57 -82 -81 -134 -81c-30 0 -66 10 -90 28l-3 -2c9 -36 11 -81 11 -122v-101h-112z" />
    <glyph glyph-name="uni2215" unicode="&#x2215;" horiz-adv-x="192" 
d="M283 682h88l-461 -682h-89z" />
    <glyph glyph-name="uni2219" unicode="&#x2219;" horiz-adv-x="256" 
d="M61 285v135h141v-135h-141z" />
    <glyph glyph-name="uniF8FF" unicode="&#xf8ff;" horiz-adv-x="500" 
d="M12 0v665h475v-665h-475zM88 618l162 -243l161 243h-323zM60 575v-484c0 -1 161 242 161 242zM440 575l-162 -242l162 -243v485zM411 48l-161 242l-162 -242h323z" />
    <glyph glyph-name="acute.cap" horiz-adv-x="324" 
d="M248 902l41 -88l-190 -80l-33 71z" />
    <glyph glyph-name="breve.cap" horiz-adv-x="324" 
d="M245 886h80c-5 -84 -71 -139 -163 -139c-103 0 -159 60 -162 139h79c3 -35 33 -58 83 -58c53 0 81 25 83 58z" />
    <glyph glyph-name="caron.cap" horiz-adv-x="324" 
d="M162 734l-155 101l32 62l123 -59l124 59l31 -62z" />
    <glyph glyph-name="circumflex.cap" horiz-adv-x="324" 
d="M162 897l155 -101l-32 -62l-123 59l-123 -59l-32 62z" />
    <glyph glyph-name="dieresis.cap" horiz-adv-x="324" 
d="M20 773v102h105v-102h-105zM200 773v102h105v-102h-105z" />
    <glyph glyph-name="dotaccent.cap" horiz-adv-x="324" 
d="M108 773v104h108v-104h-108z" />
    <glyph glyph-name="grave.cap" horiz-adv-x="324" 
d="M35 814l42 88l182 -97l-34 -71z" />
    <glyph glyph-name="hungarumlaut.cap" horiz-adv-x="324" 
d="M174 907l58 -76l-159 -105l-47 62zM371 907l58 -76l-160 -105l-46 62z" />
    <glyph glyph-name="macron.cap" horiz-adv-x="324" 
d="M303 777h-282v80h282v-80z" />
    <glyph glyph-name="ring.cap" horiz-adv-x="324" 
d="M102 842c0 -34 28 -61 62 -61c33 0 59 27 59 61c0 33 -26 59 -59 59c-34 0 -62 -26 -62 -59zM37 842c0 69 55 125 127 125c69 0 125 -56 125 -125c0 -71 -56 -127 -125 -127c-72 0 -127 56 -127 127z" />
    <glyph glyph-name="tilde.cap" horiz-adv-x="324" 
d="M64 770h-71c4 73 34 128 102 128c29 0 49 -10 75 -30c25 -19 43 -28 60 -28c16 0 29 10 30 49h71c-3 -83 -37 -128 -103 -128c-31 0 -56 10 -81 29c-27 21 -39 29 -53 29c-17 0 -28 -17 -30 -49z" />
    <glyph glyph-name="caron.alt" horiz-adv-x="324" 
d="M91 629v91h106v-55c0 -48 -15 -94 -34 -122h-57c16 23 25 57 26 86h-41z" />
    <glyph glyph-name="commaaccent.alt" horiz-adv-x="324" 
d="M217 642v-91h-106v55c0 48 15 94 34 122h57c-16 -23 -25 -57 -26 -86h41z" />
    <glyph glyph-name="afii10051" unicode="&#x402;" horiz-adv-x="677" 
d="M500 -29v268c0 86 -36 125 -108 125c-71 0 -111 -54 -111 -116l1 -248h-118v578h-154v104h425v-104h-153v-184h3c26 44 80 72 140 72c125 0 193 -77 193 -222v-264c0 -140 -67 -201 -172 -201c-40 0 -68 7 -90 14v91c13 -4 40 -12 69 -12c57 0 75 41 75 99z" />
    <glyph glyph-name="afii10052" unicode="&#x403;" horiz-adv-x="485" 
d="M70 0v682h405v-104h-289v-578h-116zM359 902l41 -88l-190 -80l-33 71z" />
    <glyph glyph-name="afii10100" unicode="&#x453;" horiz-adv-x="421" 
d="M411 479v-97h-234v-382h-112v479h346zM153 616l148 142l62 -73l-160 -129z" />
    <glyph glyph-name="afii10058" unicode="&#x409;" horiz-adv-x="947" 
d="M463 578h-208l-32 -410c-10 -125 -56 -175 -157 -175c-23 0 -44 5 -57 9v99c7 -3 25 -6 39 -6c36 0 55 16 60 73l40 514h433v-277h98c140 0 234 -73 234 -201c0 -129 -100 -204 -235 -204h-215v578zM793 204c0 67 -47 106 -129 106h-83v-215h92c79 0 120 43 120 109z" />
    <glyph glyph-name="afii10059" unicode="&#x40a;" horiz-adv-x="945" 
d="M579 682v-277h98c140 0 234 -73 234 -201c0 -129 -100 -204 -235 -204h-215v300h-272v-300h-118v682h118v-277h272v277h118zM791 204c0 67 -47 106 -129 106h-83v-215h92c79 0 120 43 120 109z" />
    <glyph glyph-name="afii10061" unicode="&#x40c;" horiz-adv-x="629" 
d="M492 0l-303 326v-326h-118v682h118v-318l297 318h147l-321 -330l333 -352h-153zM410 902l41 -88l-190 -80l-33 71z" />
    <glyph glyph-name="afii10060" unicode="&#x40b;" horiz-adv-x="677" 
d="M282 578v-184h3c26 44 84 72 143 72c125 0 190 -77 190 -225v-241h-118v239c0 86 -32 125 -108 125c-71 0 -111 -54 -111 -116l1 -248h-118v578h-154v104h425v-104h-153z" />
    <glyph glyph-name="afii10145" unicode="&#x40f;" horiz-adv-x="662" 
d="M71 0v682h115v-578h290v578h115v-682h-202v-175h-117v175h-201z" />
    <glyph glyph-name="afii10099" unicode="&#x452;" horiz-adv-x="566" 
d="M398 -53v323c0 82 -39 126 -103 126c-70 0 -118 -48 -118 -141v-255h-112v564h-65v80h65v76h112v-76h155v-80h-155v-145h3c38 54 92 76 145 76c99 0 185 -64 185 -219v-321c0 -140 -62 -206 -168 -206c-33 0 -59 5 -85 14v89c17 -6 42 -10 66 -10c57 0 75 39 75 105z" />
    <glyph glyph-name="afii10106" unicode="&#x459;" horiz-adv-x="751" 
d="M127 479h338v-182h80c110 0 174 -52 174 -148c0 -90 -62 -149 -169 -149h-196v382h-131l-22 -237c-10 -109 -48 -152 -141 -152c-15 0 -34 3 -48 6v92c7 -2 23 -4 33 -4c36 0 49 25 53 70zM535 212h-70v-127h70c51 0 72 30 72 64c0 40 -23 63 -72 63z" />
    <glyph glyph-name="afii10107" unicode="&#x45a;" horiz-adv-x="744" 
d="M458 297h79c110 0 174 -52 174 -148c0 -90 -62 -149 -169 -149h-196v203h-169v-203h-112v479h112v-182h169v182h112v-182zM527 212h-69v-127h69c52 0 72 30 72 64c0 40 -22 63 -72 63z" />
    <glyph glyph-name="afii10109" unicode="&#x45c;" horiz-adv-x="519" 
d="M65 0v479h112v-212l200 212h131l-214 -227l220 -252h-136l-201 234v-234h-112zM180 616l148 142l62 -73l-160 -129z" />
    <glyph glyph-name="afii10108" unicode="&#x45b;" horiz-adv-x="566" 
d="M332 564h-155v-145h3c38 54 92 76 145 76c99 0 185 -64 185 -219v-276h-112v270c0 82 -39 126 -103 126c-70 0 -118 -48 -118 -141v-255h-112v564h-65v80h65v76h112v-76h155v-80z" />
    <glyph glyph-name="afii10193" unicode="&#x45f;" horiz-adv-x="575" 
d="M510 0h-167v-155h-111v155h-167v479h112v-382h221v382h112v-479z" />
    <glyph glyph-name="afii10062" unicode="&#x40e;" horiz-adv-x="590" 
d="M586 682l-239 -546c-45 -102 -102 -143 -174 -143c-23 0 -44 5 -56 9v98c8 -3 31 -6 42 -6c34 0 57 11 81 62l24 56l-255 470h130l149 -290c11 -20 22 -44 30 -67h2c8 26 19 50 26 68l117 289h123zM395 886h80c-5 -84 -71 -139 -163 -139c-103 0 -159 60 -162 139h79
c3 -35 33 -58 83 -58c53 0 81 25 83 58z" />
    <glyph glyph-name="afii10110" unicode="&#x45e;" horiz-adv-x="452" 
d="M456 479l-263 -714h-107l88 237l-175 477h115l83 -238c10 -30 26 -77 32 -110h3c10 40 19 71 32 110l81 238h111zM314 721h80c-5 -92 -75 -154 -163 -154c-93 0 -158 62 -162 154h79c4 -43 35 -71 83 -71c47 0 80 29 83 71z" />
    <glyph glyph-name="afii10057" unicode="&#x408;" horiz-adv-x="369" 
d="M189 190v492h118v-487c0 -157 -69 -216 -193 -216c-35 0 -80 10 -104 20v101c22 -10 64 -19 89 -19c62 0 90 29 90 109z" />
    <glyph glyph-name="afii10050" unicode="&#x490;" horiz-adv-x="485" 
d="M359 682v158h116v-262h-289v-578h-116v682h289z" />
    <glyph glyph-name="afii10023" unicode="&#x401;" horiz-adv-x="535" 
d="M467 682v-104h-276v-175h266v-101h-266v-198h287v-104h-405v682h394zM127 773v102h105v-102h-105zM307 773v102h105v-102h-105z" />
    <glyph glyph-name="afii10053" unicode="&#x404;" horiz-adv-x="762" 
d="M388 704c185 0 285 -110 319 -209h-130c-28 62 -94 110 -190 110c-112 0 -206 -75 -226 -202h337v-101h-339c13 -127 103 -225 232 -225c100 0 164 52 194 122h132c-52 -128 -156 -221 -330 -221c-211 0 -352 157 -352 365s151 361 353 361z" />
    <glyph glyph-name="afii10056" unicode="&#x407;" horiz-adv-x="259" 
d="M74 0v682h118v-682h-118zM-10 773v102h105v-102h-105zM170 773v102h105v-102h-105z" />
    <glyph glyph-name="afii10055" unicode="&#x406;" horiz-adv-x="259" 
d="M71 0v682h118v-682h-118z" />
    <glyph glyph-name="afii10103" unicode="&#x456;" horiz-adv-x="242" 
d="M65 0v479h112v-479h-112zM59 585v114h124v-114h-124z" />
    <glyph glyph-name="afii10098" unicode="&#x491;" horiz-adv-x="424" 
d="M411 614v-232h-234v-382h-112v479h234v135h112z" />
    <glyph glyph-name="afii10071" unicode="&#x451;" horiz-adv-x="551" 
d="M278 495c165 -1 241 -129 241 -251c0 -10 0 -23 -2 -33h-370c0 -75 66 -140 143 -140c49 0 82 20 107 54h115c-32 -73 -101 -142 -222 -142c-147 0 -255 108 -255 261c0 135 92 251 243 251zM278 411c-77 0 -124 -57 -130 -119h259c-7 64 -56 119 -129 119zM134 593v102
h105v-102h-105zM314 593v102h105v-102h-105z" />
    <glyph glyph-name="afii61352" unicode="&#x2116;" horiz-adv-x="1096" 
d="M175 503h-3c1 -34 3 -102 3 -136v-367h-105v682h105l203 -308c70 -105 102 -160 122 -198h2c-1 36 -2 100 -2 133v373h104v-682h-104l-194 293c-84 127 -110 172 -131 210zM674 330c0 114 85 188 193 188c115 0 194 -82 194 -188c0 -107 -79 -190 -194 -190
c-108 0 -193 75 -193 190zM764 329c0 -60 43 -105 103 -105c61 0 104 44 104 105c0 60 -43 107 -104 107c-57 0 -103 -37 -103 -107zM1043 0h-354v80h354v-80z" />
    <glyph glyph-name="afii10101" unicode="&#x454;" horiz-adv-x="547" 
d="M287 495c137 0 207 -81 224 -148h-116c-16 35 -50 60 -108 60c-67 0 -122 -40 -136 -119h202v-80h-204c9 -83 65 -137 141 -137c62 0 94 34 110 70h116c-26 -83 -95 -158 -228 -158c-144 0 -256 103 -256 258c0 140 98 254 255 254z" />
    <glyph glyph-name="afii10105" unicode="&#x458;" horiz-adv-x="242" 
d="M177 479v-524c0 -143 -67 -206 -173 -206c-40 0 -69 7 -91 14v94c13 -4 43 -12 72 -12c51 0 80 29 80 106v528h112zM59 585v114h124v-114h-124z" />
    <glyph glyph-name="afii10054" unicode="&#x405;" horiz-adv-x="555" 
d="M489 520h-116c-7 51 -41 86 -97 86c-55 0 -92 -35 -92 -85c0 -56 47 -84 122 -108c146 -46 197 -122 197 -225c0 -100 -72 -210 -224 -210c-127 0 -218 71 -236 206h120c11 -65 49 -108 117 -108c69 0 106 51 106 105c0 65 -41 101 -132 130c-131 42 -186 112 -186 209
c0 108 90 184 209 184c122 0 203 -76 212 -184z" />
    <glyph glyph-name="afii10102" unicode="&#x455;" horiz-adv-x="434" 
d="M386 356h-103c-5 35 -31 58 -64 58c-39 0 -60 -24 -60 -51c0 -29 15 -49 98 -77c103 -33 139 -86 139 -153c0 -88 -66 -150 -176 -150c-115 0 -171 63 -180 152h104c5 -40 29 -70 79 -70c42 0 66 26 66 59c0 36 -21 59 -100 86c-90 29 -135 74 -135 148
c0 79 62 137 163 137c103 0 157 -61 169 -139z" />
    <glyph glyph-name="afii10104" unicode="&#x457;" horiz-adv-x="242" 
d="M68 0v479h112v-479h-112zM-18 593v102h105v-102h-105zM162 593v102h105v-102h-105z" />
    <glyph glyph-name="afii10017" unicode="&#x410;" horiz-adv-x="652" 
d="M7 0l271 682h108l259 -682h-123l-61 167h-272l-62 -167h-120zM284 431l-64 -174h210l-63 175c-14 38 -28 82 -38 118h-5c-11 -37 -26 -82 -40 -119z" />
    <glyph glyph-name="afii10018" unicode="&#x411;" horiz-adv-x="556" 
d="M401 204c0 67 -47 106 -129 106h-83v-215h92c79 0 120 43 120 109zM71 682h390v-104h-272v-173h98c140 0 234 -73 234 -201c0 -129 -100 -204 -235 -204h-215v682z" />
    <glyph glyph-name="afii10019" unicode="&#x412;" horiz-adv-x="554" 
d="M71 0v682h173c141 0 230 -62 230 -173c0 -77 -54 -125 -117 -144v-2c105 -13 159 -87 159 -170c0 -127 -102 -193 -234 -193h-211zM396 202c0 65 -46 107 -129 107h-83v-214h92c80 0 120 41 120 107zM356 498c0 61 -46 90 -116 90h-56v-186h61c73 0 111 38 111 96z" />
    <glyph glyph-name="afii10020" unicode="&#x413;" horiz-adv-x="485" 
d="M70 0v682h405v-104h-289v-578h-116z" />
    <glyph glyph-name="afii10021" unicode="&#x414;" horiz-adv-x="772" 
d="M20 -175v279h22c51 0 107 38 118 187l28 391h463v-578h91v-279h-118v175h-486v-175h-118zM533 104v474h-237l-20 -287c-7 -88 -24 -147 -62 -187h319z" />
    <glyph glyph-name="afii10022" unicode="&#x415;" horiz-adv-x="535" 
d="M464 682v-104h-276v-175h266v-101h-266v-198h287v-104h-405v682h394z" />
    <glyph glyph-name="afii10024" unicode="&#x416;" horiz-adv-x="884" 
d="M383 332l-255 -332h-142l278 354l-266 328h140l245 -313v313h118v-313l245 313h140l-266 -328l278 -354h-142l-255 332v-332h-118v332z" />
    <glyph glyph-name="afii10025" unicode="&#x417;" horiz-adv-x="546" 
d="M31 182h122c7 -60 50 -103 116 -103c65 0 112 47 112 119c0 65 -44 119 -126 119h-63v97h63c65 0 103 42 103 99c0 49 -37 91 -92 91s-84 -35 -89 -82h-121c8 113 97 182 211 182c130 0 209 -77 209 -185c0 -67 -41 -121 -102 -146v-3c77 -24 127 -92 127 -176
c0 -123 -95 -215 -233 -215c-141 0 -228 87 -237 203z" />
    <glyph glyph-name="afii10026" unicode="&#x418;" horiz-adv-x="681" 
d="M71 682h115v-373c0 -33 0 -97 -2 -133h2c19 38 53 92 120 198l195 308h109v-682h-115v367c0 34 1 102 2 136h-2c-21 -40 -47 -81 -129 -210l-186 -293h-109v682z" />
    <glyph glyph-name="afii10027" unicode="&#x419;" horiz-adv-x="681" 
d="M71 682h115v-373c0 -33 0 -97 -2 -133h2c19 38 53 92 120 198l195 308h109v-682h-115v367c0 34 1 102 2 136h-2c-21 -40 -47 -81 -129 -210l-186 -293h-109v682zM421 886h80c-5 -84 -71 -139 -163 -139c-103 0 -159 60 -162 139h79c3 -35 33 -58 83 -58c53 0 81 25 83 58
z" />
    <glyph glyph-name="afii10028" unicode="&#x41a;" horiz-adv-x="629" 
d="M492 0l-303 326v-326h-118v682h118v-318l297 318h147l-321 -330l333 -352h-153z" />
    <glyph glyph-name="afii10029" unicode="&#x41b;" horiz-adv-x="682" 
d="M255 578l-32 -410c-10 -125 -56 -175 -157 -175c-23 0 -44 5 -57 9v99c7 -3 25 -6 39 -6c36 0 55 16 60 73l40 514h463v-682h-115v578h-241z" />
    <glyph glyph-name="afii10030" unicode="&#x41c;" horiz-adv-x="819" 
d="M702 682l80 -682h-114l-36 361c-5 49 -11 120 -15 163h-5c-13 -48 -32 -114 -48 -164l-113 -360h-88l-114 368c-15 46 -35 104 -46 156h-7c-2 -49 -7 -107 -12 -155l-38 -369h-108l79 682h135l120 -371c12 -37 27 -88 36 -125h4c9 37 26 90 37 125l119 371h134z" />
    <glyph glyph-name="afii10031" unicode="&#x41d;" horiz-adv-x="693" 
d="M504 0v300h-315v-300h-118v682h118v-277h315v277h118v-682h-118z" />
    <glyph glyph-name="afii10032" unicode="&#x41e;" horiz-adv-x="793" 
d="M156 341c0 -147 104 -257 240 -257c137 0 241 110 241 257c0 144 -96 257 -240 257c-136 0 -241 -109 -241 -257zM35 341c0 195 152 363 363 363c224 0 360 -173 360 -363c0 -199 -155 -363 -361 -363c-250 0 -362 194 -362 363z" />
    <glyph glyph-name="afii10033" unicode="&#x41f;" horiz-adv-x="662" 
d="M476 0v578h-290v-578h-115v682h520v-682h-115z" />
    <glyph glyph-name="afii10034" unicode="&#x420;" horiz-adv-x="554" 
d="M415 465c0 66 -38 118 -134 118h-93v-236h91c108 0 136 56 136 118zM70 0v682h210c146 0 255 -68 255 -215c0 -135 -82 -218 -261 -218h-86v-249h-118z" />
    <glyph glyph-name="afii10035" unicode="&#x421;" horiz-adv-x="764" 
d="M388 704c190 0 291 -119 320 -222h-129c-24 65 -91 120 -192 120c-127 0 -231 -99 -231 -260c0 -144 96 -262 235 -262c104 0 169 60 196 132h132c-49 -133 -154 -234 -332 -234c-211 0 -352 157 -352 365s151 361 353 361z" />
    <glyph glyph-name="afii10036" unicode="&#x422;" horiz-adv-x="478" 
d="M180 0v578h-170v104h458v-104h-170v-578h-118z" />
    <glyph glyph-name="afii10037" unicode="&#x423;" horiz-adv-x="590" 
d="M586 682l-239 -546c-45 -102 -102 -143 -174 -143c-23 0 -44 5 -56 9v98c8 -3 31 -6 42 -6c34 0 57 11 81 62l24 56l-255 470h130l149 -290c11 -20 22 -44 30 -67h2c8 26 19 50 26 68l117 289h123z" />
    <glyph glyph-name="afii10038" unicode="&#x424;" horiz-adv-x="780" 
d="M331 162v364c-106 0 -178 -73 -178 -181c0 -111 83 -183 178 -183zM449 526v-364c95 0 178 72 178 183c0 107 -72 181 -178 181zM449 -10h-118v76c-178 3 -299 120 -299 279c0 162 123 274 299 276v70h118v-70c177 -3 299 -114 299 -276c0 -160 -121 -276 -299 -279v-76z
" />
    <glyph glyph-name="afii10039" unicode="&#x425;" horiz-adv-x="594" 
d="M146 682l105 -164c19 -29 33 -53 48 -79h3c16 29 30 53 48 81l104 162h126l-221 -326l231 -356h-133l-107 173c-19 30 -37 62 -55 92h-2c-19 -31 -38 -63 -57 -94l-105 -171h-127l229 352l-221 330h134z" />
    <glyph glyph-name="afii10040" unicode="&#x426;" horiz-adv-x="712" 
d="M564 0h-493v682h118v-578h284v578h118v-578h91v-279h-118v175z" />
    <glyph glyph-name="afii10041" unicode="&#x427;" horiz-adv-x="624" 
d="M554 0h-118v313h-4c-33 -46 -102 -72 -161 -72c-133 0 -213 72 -213 227v214h118v-204c0 -96 48 -135 127 -135s133 48 133 137v202h118v-682z" />
    <glyph glyph-name="afii10042" unicode="&#x428;" horiz-adv-x="917" 
d="M71 0v682h115v-578h215v578h115v-578h215v578h115v-682h-775z" />
    <glyph glyph-name="afii10043" unicode="&#x429;" horiz-adv-x="967" 
d="M819 0h-748v682h115v-578h215v578h115v-578h215v578h115v-578h91v-279h-118v175z" />
    <glyph glyph-name="afii10044" unicode="&#x42a;" horiz-adv-x="664" 
d="M510 204c0 67 -46 106 -129 106h-83v-215h92c79 0 120 43 120 109zM180 578h-170v104h288v-277h98c140 0 234 -73 234 -201c0 -129 -100 -204 -235 -204h-215v578z" />
    <glyph glyph-name="afii10045" unicode="&#x42b;" horiz-adv-x="796" 
d="M401 204c0 67 -47 106 -129 106h-83v-215h92c79 0 120 43 120 109zM71 0v682h118v-277h98c140 0 234 -73 234 -201c0 -129 -100 -204 -235 -204h-215zM608 0v682h118v-682h-118z" />
    <glyph glyph-name="afii10046" unicode="&#x42c;" horiz-adv-x="555" 
d="M401 204c0 67 -47 106 -129 106h-83v-215h92c79 0 120 43 120 109zM71 0v682h118v-277h98c140 0 234 -73 234 -201c0 -129 -100 -204 -235 -204h-215z" />
    <glyph glyph-name="afii10047" unicode="&#x42d;" horiz-adv-x="762" 
d="M374 704c202 0 353 -153 353 -361s-141 -365 -352 -365c-174 0 -278 93 -330 221h132c30 -70 94 -122 194 -122c129 0 218 98 232 225h-342v101h340c-20 127 -116 202 -226 202c-96 0 -161 -48 -189 -110h-130c34 99 133 209 318 209z" />
    <glyph glyph-name="afii10048" unicode="&#x42e;" horiz-adv-x="1030" 
d="M634 -22c-230 0 -341 165 -357 322h-88v-300h-118v682h118v-277h91c29 166 167 299 355 299c224 0 360 -173 360 -363c0 -199 -155 -363 -361 -363zM393 341c0 -147 104 -257 240 -257c137 0 241 110 241 257c0 144 -96 257 -240 257c-136 0 -241 -109 -241 -257z" />
    <glyph glyph-name="afii10049" unicode="&#x42f;" horiz-adv-x="589" 
d="M0 0l212 290c-80 20 -146 90 -146 187c0 105 64 205 247 205h206v-682h-118v275h-65l-194 -275h-142zM187 474c0 -61 42 -106 117 -106h97v215h-96c-76 0 -118 -40 -118 -109z" />
    <glyph glyph-name="afii10065" unicode="&#x430;" horiz-adv-x="604" 
d="M538 479v-479h-109v61h-3c-33 -41 -85 -78 -164 -78c-108 0 -230 86 -230 257c0 152 108 254 238 254c80 0 128 -42 157 -80h2v65h109zM147 240c0 -80 46 -159 145 -159c74 0 142 64 142 156c0 97 -63 161 -141 161c-99 0 -146 -80 -146 -158z" />
    <glyph glyph-name="afii10066" unicode="&#x431;" horiz-adv-x="580" 
d="M149 240c0 -92 65 -157 143 -157c85 0 142 68 142 157c0 85 -52 156 -140 156c-86 0 -145 -67 -145 -156zM348 584c-120 -18 -179 -72 -193 -154h3c32 36 90 62 148 62c145 0 242 -107 242 -252c0 -141 -107 -257 -256 -257c-147 0 -254 103 -254 295
c0 278 122 373 293 402c33 6 94 25 130 47l45 -92c-58 -32 -104 -44 -158 -51z" />
    <glyph glyph-name="afii10067" unicode="&#x432;" horiz-adv-x="501" 
d="M65 0v479h201c103 0 161 -42 161 -117c0 -43 -23 -85 -80 -101c83 -16 114 -66 114 -118c0 -85 -63 -143 -176 -143h-220zM264 212h-93v-134h103c57 0 79 32 79 67c0 40 -26 67 -89 67zM247 401h-76v-113h68c54 0 81 22 81 59c0 36 -28 54 -73 54z" />
    <glyph glyph-name="afii10068" unicode="&#x433;" horiz-adv-x="421" 
d="M411 479v-97h-234v-382h-112v479h346z" />
    <glyph glyph-name="afii10069" unicode="&#x434;" horiz-adv-x="614" 
d="M15 -155v252h11c54 0 102 43 117 204l17 178h367v-382h72v-252h-110v155h-364v-155h-110zM415 97v285h-161l-9 -90c-11 -113 -27 -159 -59 -195h229z" />
    <glyph glyph-name="afii10070" unicode="&#x435;" horiz-adv-x="551" 
d="M275 495c165 -1 241 -129 241 -251c0 -10 0 -23 -2 -33h-370c0 -75 66 -140 143 -140c49 0 82 20 107 54h115c-32 -73 -101 -142 -222 -142c-147 0 -255 108 -255 261c0 135 92 251 243 251zM275 411c-77 0 -124 -57 -130 -119h259c-7 64 -56 119 -129 119z" />
    <glyph glyph-name="afii10072" unicode="&#x436;" horiz-adv-x="711" 
d="M302 0v238l-174 -238h-131l193 252l-186 227h125l173 -216v216h108v-216l172 216h125l-186 -227l194 -252h-132l-173 238v-238h-108z" />
    <glyph glyph-name="afii10073" unicode="&#x437;" horiz-adv-x="456" 
d="M24 129h106c7 -35 37 -61 89 -61c61 0 92 30 92 69c0 46 -40 71 -84 71h-55v80h58c43 0 72 24 72 62c0 33 -29 60 -79 60c-40 0 -73 -19 -81 -54h-105c13 86 86 139 189 139c112 0 181 -55 181 -132c0 -60 -30 -97 -87 -114c59 -13 99 -56 99 -113
c0 -86 -62 -154 -204 -154c-103 0 -178 53 -191 147z" />
    <glyph glyph-name="afii10074" unicode="&#x438;" horiz-adv-x="575" 
d="M65 0v479h108v-184c0 -36 -1 -108 -3 -147h2c13 24 37 58 66 98l173 233h99v-479h-108v183c0 36 1 109 3 148h-2c-13 -24 -39 -61 -66 -98l-173 -233h-99z" />
    <glyph glyph-name="afii10075" unicode="&#x439;" horiz-adv-x="575" 
d="M65 0v479h108v-184c0 -36 -1 -108 -3 -147h2c13 24 37 58 66 98l173 233h99v-479h-108v183c0 36 1 109 3 148h-2c-13 -24 -39 -61 -66 -98l-173 -233h-99zM374 721h80c-5 -92 -75 -154 -163 -154c-93 0 -158 62 -162 154h79c4 -43 35 -71 83 -71c47 0 80 29 83 71z" />
    <glyph glyph-name="afii10076" unicode="&#x43a;" horiz-adv-x="519" 
d="M65 0v479h112v-212l200 212h131l-214 -227l220 -252h-136l-201 234v-234h-112z" />
    <glyph glyph-name="afii10077" unicode="&#x43b;" horiz-adv-x="573" 
d="M98 157l29 322h381v-479h-111v382h-174l-22 -238c-10 -108 -48 -151 -141 -151c-15 0 -34 3 -48 6v92c8 -2 22 -4 33 -4c36 0 49 25 53 70z" />
    <glyph glyph-name="afii10078" unicode="&#x43c;" horiz-adv-x="691" 
d="M579 479l86 -479h-103l-39 232c-5 33 -12 75 -15 108h-3c-8 -36 -17 -71 -30 -108l-86 -232h-86l-87 237c-13 35 -24 68 -31 103h-3c-4 -33 -8 -65 -14 -102l-40 -238h-102l88 479h112l95 -257c9 -24 18 -59 24 -86h3c7 27 17 63 25 87l96 256h110z" />
    <glyph glyph-name="afii10079" unicode="&#x43d;" horiz-adv-x="575" 
d="M510 479v-479h-112v203h-221v-203h-112v479h112v-182h221v182h112z" />
    <glyph glyph-name="afii10080" unicode="&#x43e;" horiz-adv-x="577" 
d="M32 240c0 148 111 255 256 255c150 0 256 -110 256 -255c0 -141 -107 -257 -256 -257c-146 0 -256 112 -256 257zM146 240c0 -92 65 -157 142 -157c85 0 143 68 143 157c0 85 -54 156 -143 156c-86 0 -142 -67 -142 -156z" />
    <glyph glyph-name="afii10081" unicode="&#x43f;" horiz-adv-x="575" 
d="M510 479v-479h-112v382h-221v-382h-112v479h445z" />
    <glyph glyph-name="afii10082" unicode="&#x440;" horiz-adv-x="604" 
d="M65 -235v714h109v-61h3c31 36 78 76 165 76c123 0 229 -102 229 -256c0 -150 -106 -255 -235 -255c-74 0 -126 35 -158 75h-3v-293h-110zM456 239c0 80 -47 157 -145 157c-78 0 -141 -63 -141 -159c0 -93 65 -157 142 -157c96 0 144 80 144 159z" />
    <glyph glyph-name="afii10083" unicode="&#x441;" horiz-adv-x="547" 
d="M287 495c137 0 206 -90 221 -160h-115c-15 38 -51 65 -107 65c-81 0 -139 -59 -139 -160c0 -91 56 -161 143 -161c62 0 94 35 110 72h116c-26 -87 -95 -168 -228 -168c-144 0 -256 103 -256 258c0 140 98 254 255 254z" />
    <glyph glyph-name="afii10084" unicode="&#x442;" horiz-adv-x="394" 
d="M383 479v-97h-130v-382h-111v382h-131v97h372z" />
    <glyph glyph-name="afii10085" unicode="&#x443;" horiz-adv-x="452" 
d="M456 479l-263 -714h-107l88 237l-175 477h115l83 -238c10 -30 26 -77 32 -110h3c10 40 19 71 32 110l81 238h111z" />
    <glyph glyph-name="afii10086" unicode="&#x444;" horiz-adv-x="824" 
d="M355 431h2v289h110v-289h3c23 33 66 63 127 63c101 0 193 -87 193 -256c0 -150 -80 -255 -197 -255c-55 0 -100 28 -123 63h-3v-281h-110v282h-2c-26 -32 -70 -64 -125 -64c-120 0 -196 105 -196 257c0 149 81 254 202 254c53 0 97 -31 119 -63zM146 240
c0 -96 41 -162 110 -162c55 0 106 55 106 159c0 106 -45 162 -107 162c-69 0 -109 -70 -109 -159zM678 239c0 80 -31 160 -108 160c-60 0 -107 -52 -107 -162c0 -95 43 -159 108 -159c68 0 107 69 107 161z" />
    <glyph glyph-name="afii10087" unicode="&#x445;" horiz-adv-x="497" 
d="M13 0l175 243l-165 236h126l71 -107c12 -18 21 -37 29 -51h3c8 16 17 32 27 48l69 110h125l-165 -233l174 -246h-130l-76 115c-12 20 -21 37 -29 52h-3c-10 -18 -20 -35 -31 -53l-74 -114h-126z" />
    <glyph glyph-name="afii10088" unicode="&#x446;" horiz-adv-x="597" 
d="M510 97h72v-252h-112v155h-405v479h112v-382h221v382h112v-382z" />
    <glyph glyph-name="afii10089" unicode="&#x447;" horiz-adv-x="545" 
d="M480 479v-479h-112v229h-2c-35 -55 -86 -76 -136 -76c-94 0 -174 63 -174 214v112h112v-105c0 -79 37 -121 94 -121c63 0 106 46 106 136v90h112z" />
    <glyph glyph-name="afii10090" unicode="&#x448;" horiz-adv-x="847" 
d="M782 0h-717v479h112v-382h191v382h111v-382h191v382h112v-479z" />
    <glyph glyph-name="afii10091" unicode="&#x449;" horiz-adv-x="869" 
d="M742 0h-677v479h112v-382h191v382h111v-382h191v382h112v-382h72v-252h-112v155z" />
    <glyph glyph-name="afii10092" unicode="&#x44a;" horiz-adv-x="541" 
d="M325 212h-69v-127h69c51 0 72 30 72 64c0 40 -22 63 -72 63zM256 479v-182h79c110 0 174 -52 174 -148c0 -90 -62 -149 -169 -149h-196v382h-133v97h245z" />
    <glyph glyph-name="afii10093" unicode="&#x44b;" horiz-adv-x="690" 
d="M246 212h-69v-127h69c52 0 72 30 72 64c0 40 -22 63 -72 63zM177 297h79c110 0 174 -52 174 -148c0 -90 -62 -149 -169 -149h-196v479h112v-182zM513 0v479h112v-479h-112z" />
    <glyph glyph-name="afii10094" unicode="&#x44c;" horiz-adv-x="463" 
d="M246 212h-69v-127h69c52 0 72 30 72 64c0 40 -22 63 -72 63zM177 297h79c110 0 174 -52 174 -148c0 -90 -62 -149 -169 -149h-196v479h112v-182z" />
    <glyph glyph-name="afii10095" unicode="&#x44d;" horiz-adv-x="543" 
d="M259 495c153 0 252 -111 252 -255c0 -148 -104 -257 -257 -257c-133 0 -204 79 -226 158h115c16 -38 47 -70 110 -70c77 0 133 55 141 137h-206v80h204c-14 80 -70 119 -136 119c-57 0 -93 -26 -108 -60h-117c21 70 89 148 228 148z" />
    <glyph glyph-name="afii10096" unicode="&#x44e;" horiz-adv-x="786" 
d="M177 479v-184h72c23 118 122 200 249 200c150 0 256 -110 256 -255c0 -141 -107 -257 -256 -257c-135 0 -237 95 -252 223h-69v-206h-112v479h112zM355 240c0 -92 65 -157 143 -157c84 0 142 68 142 157c0 85 -54 156 -142 156c-86 0 -143 -67 -143 -156z" />
    <glyph glyph-name="afii10097" unicode="&#x44f;" horiz-adv-x="472" 
d="M295 185h-39l-119 -185h-123l136 196c-61 17 -102 64 -102 134c0 89 62 149 173 149h186v-479h-112v185zM232 264h63v131h-63c-50 0 -72 -30 -72 -65c0 -41 23 -66 72 -66z" />
    <glyph glyph-name="uni0400" unicode="&#x400;" horiz-adv-x="535" 
d="M467 682v-104h-276v-175h266v-101h-266v-198h287v-104h-405v682h394zM141 814l42 88l182 -97l-34 -71z" />
    <glyph glyph-name="uni0450" unicode="&#x450;" horiz-adv-x="551" 
d="M278 495c165 -1 241 -129 241 -251c0 -10 0 -23 -2 -33h-370c0 -75 66 -140 143 -140c49 0 82 20 107 54h115c-32 -73 -101 -142 -222 -142c-147 0 -255 108 -255 261c0 135 92 251 243 251zM278 411c-77 0 -124 -57 -130 -119h259c-7 64 -56 119 -129 119zM148 685
l63 73l147 -142l-50 -60z" />
    <glyph glyph-name="uni040D" unicode="&#x40d;" horiz-adv-x="681" 
d="M71 682h115v-373c0 -33 0 -97 -2 -133h2c19 38 53 92 120 198l195 308h109v-682h-115v367c0 34 1 102 2 136h-2c-21 -40 -47 -81 -129 -210l-186 -293h-109v682zM219 814l42 88l182 -97l-34 -71z" />
    <glyph glyph-name="uni045D" unicode="&#x45d;" horiz-adv-x="575" 
d="M65 0v479h108v-184c0 -36 -1 -108 -3 -147h2c13 24 37 58 66 98l173 233h99v-479h-108v183c0 36 1 109 3 148h-2c-13 -24 -39 -61 -66 -98l-173 -233h-99zM165 685l63 73l147 -142l-50 -60z" />
    <glyph glyph-name="uni2010" unicode="&#x2010;" horiz-adv-x="467" 
d="M398 217h-322v94h322v-94z" />
    <glyph glyph-name="Delta" unicode="&#x2206;" horiz-adv-x="652" 
d="M7 0l271 682h108l259 -682h-638zM284 431l-123 -334h327l-121 335c-14 38 -28 82 -38 118h-5c-11 -37 -26 -82 -40 -119z" />
    <glyph glyph-name="f_i" unicode="&#xf001;" horiz-adv-x="567" 
d="M21 385v94h68v79c0 108 57 167 163 167c27 0 53 -3 73 -9v-92c-19 5 -35 8 -54 8c-50 0 -70 -30 -70 -76v-77h107v-94h-107v-385h-112v385h-68zM390 0v479h112v-479h-112zM384 585v114h124v-114h-124z" />
    <glyph glyph-name="f_l" unicode="&#xf002;" horiz-adv-x="570" 
d="M21 385v94h68v79c0 108 57 167 163 167c27 0 53 -3 73 -9v-92c-19 5 -35 8 -54 8c-50 0 -70 -30 -70 -76v-77h107v-94h-107v-385h-112v385h-68zM393 0v720h112v-720h-112z" />
    </font>
</defs>
</svg>
